<svg xmlns="http://www.w3.org/2000/svg" width="1920" height="1080"><path d="M287,1329L-70,1344L595,1338Z" fill="#728e8d" stroke="#728e8d" stroke-width="1.51"/><path d="M712,1311L595,1338L1014,1296Z" fill="#4f8186" stroke="#4f8186" stroke-width="1.51"/><path d="M1173,1294L1014,1296L1342,1312Z" fill="#297480" stroke="#297480" stroke-width="1.51"/><path d="M1014,1296L595,1338L1342,1312Z" fill="#387a83" stroke="#387a83" stroke-width="1.51"/><path d="M1342,1312L595,1338L1449,1317Z" fill="#2d747f" stroke="#2d747f" stroke-width="1.51"/><path d="M423,-262L1145,-209L1540,-259Z" fill="#b1cae2" stroke="#b1cae2" stroke-width="1.51"/><path d="M423,-262L1540,-259L1797,-265Z" fill="#a5c2dd" stroke="#a5c2dd" stroke-width="1.51"/><path d="M1588,1280L1449,1317L1925,1302Z" fill="#04665d" stroke="#04665d" stroke-width="1.51"/><path d="M1939,863L1951,1022L2039,835Z" fill="#0e7070" stroke="#0e7070" stroke-width="1.51"/><path d="M2052,91L1974,210L2070,266Z" fill="#6b8f90" stroke="#6b8f90" stroke-width="1.51"/><path d="M2039,835L1951,1022L2085,1037Z" fill="#056b65" stroke="#056b65" stroke-width="1.51"/><path d="M2081,726L2039,835L2085,1037Z" fill="#146b6e" stroke="#146b6e" stroke-width="1.51"/><path d="M1797,-265L1959,-191L2106,-246Z" fill="#87a79f" stroke="#87a79f" stroke-width="1.51"/><path d="M1959,-191L2048,-46L2106,-246Z" fill="#829d97" stroke="#829d97" stroke-width="1.51"/><path d="M2052,91L2070,266L2106,-246Z" fill="#759290" stroke="#759290" stroke-width="1.51"/><path d="M2048,-46L2052,91L2106,-246Z" fill="#7c9793" stroke="#7c9793" stroke-width="1.51"/><path d="M1449,1317L595,1338L2107,1342Z" fill="#186a70" stroke="#186a70" stroke-width="1.51"/><path d="M1925,1302L1449,1317L2107,1342Z" fill="#025e4d" stroke="#025e4d" stroke-width="1.51"/><path d="M2043,1124L1967,1173L2107,1342Z" fill="#015b4a" stroke="#015b4a" stroke-width="1.51"/><path d="M1967,1173L1925,1302L2107,1342Z" fill="#015846" stroke="#015846" stroke-width="1.51"/><path d="M2085,1037L2043,1124L2107,1342Z" fill="#015d4b" stroke="#015d4b" stroke-width="1.51"/><path d="M1966,544L2081,726L2114,558Z" fill="#327983" stroke="#327983" stroke-width="1.51"/><path d="M2040,418L1966,544L2114,558Z" fill="#408087" stroke="#408087" stroke-width="1.51"/><path d="M2070,266L2040,418L2114,558Z" fill="#4e8287" stroke="#4e8287" stroke-width="1.51"/><path d="M2106,-246L2070,266L2114,558Z" fill="#688b8c" stroke="#688b8c" stroke-width="1.51"/><path d="M2085,1037L2107,1342L2114,558Z" fill="#04655f" stroke="#04655f" stroke-width="1.51"/><path d="M2081,726L2085,1037L2114,558Z" fill="#1e6d79" stroke="#1e6d79" stroke-width="1.51"/><path d="M1969,387L2040,418L2070,266Z" fill="#59888c" stroke="#59888c" stroke-width="1.51"/><path d="M1966,544L1934,735L2081,726Z" fill="#2d7a85" stroke="#2d7a85" stroke-width="1.51"/><path d="M1934,735L2039,835L2081,726Z" fill="#20737e" stroke="#20737e" stroke-width="1.51"/><path d="M1951,1022L2043,1124L2085,1037Z" fill="#04665a" stroke="#04665a" stroke-width="1.51"/><path d="M2048,-46L1903,-43L2052,91Z" fill="#7a9996" stroke="#7a9996" stroke-width="1.51"/><path d="M1903,-43L1904,94L2052,91Z" fill="#799b98" stroke="#799b98" stroke-width="1.51"/><path d="M1974,210L1969,387L2070,266Z" fill="#618c8f" stroke="#618c8f" stroke-width="1.51"/><path d="M1969,387L1966,544L2040,418Z" fill="#4b868c" stroke="#4b868c" stroke-width="1.51"/><path d="M1959,-191L1903,-43L2048,-46Z" fill="#819f9a" stroke="#819f9a" stroke-width="1.51"/><path d="M1904,94L1974,210L2052,91Z" fill="#729695" stroke="#729695" stroke-width="1.51"/><path d="M1934,735L1939,863L2039,835Z" fill="#1c747c" stroke="#1c747c" stroke-width="1.51"/><path d="M1951,1022L1967,1173L2043,1124Z" fill="#036657" stroke="#036657" stroke-width="1.51"/><path d="M423,-262L770,-177L1013,-184Z" fill="#c8d3e8" stroke="#c8d3e8" stroke-width="1.51"/><path d="M423,-262L1013,-184L1145,-209Z" fill="#bed0e5" stroke="#bed0e5" stroke-width="1.51"/><path d="M1145,-209L1367,-210L1540,-259Z" fill="#9ebed3" stroke="#9ebed3" stroke-width="1.51"/><path d="M1753,1235L1588,1280L1925,1302Z" fill="#036557" stroke="#036557" stroke-width="1.51"/><path d="M1939,863L1790,992L1951,1022Z" fill="#05746e" stroke="#05746e" stroke-width="1.51"/><path d="M1836,-78L1903,-43L1959,-191Z" fill="#84a59f" stroke="#84a59f" stroke-width="1.51"/><path d="M1772,719L1934,735L1966,544Z" fill="#2f818c" stroke="#2f818c" stroke-width="1.51"/><path d="M1792,511L1772,719L1966,544Z" fill="#388892" stroke="#388892" stroke-width="1.51"/><path d="M1951,1022L1838,1138L1967,1173Z" fill="#026a5b" stroke="#026a5b" stroke-width="1.51"/><path d="M1838,1138L1925,1302L1967,1173Z" fill="#016452" stroke="#016452" stroke-width="1.51"/><path d="M1793,276L1777,370L1969,387Z" fill="#5f9498" stroke="#5f9498" stroke-width="1.51"/><path d="M1792,511L1966,544L1969,387Z" fill="#488a90" stroke="#488a90" stroke-width="1.51"/><path d="M1777,370L1792,511L1969,387Z" fill="#539096" stroke="#539096" stroke-width="1.51"/><path d="M1793,276L1969,387L1974,210Z" fill="#649395" stroke="#649395" stroke-width="1.51"/><path d="M1904,94L1793,276L1974,210Z" fill="#6f9999" stroke="#6f9999" stroke-width="1.51"/><path d="M1540,-259L1630,-235L1797,-265Z" fill="#91b6b7" stroke="#91b6b7" stroke-width="1.51"/><path d="M1934,735L1787,793L1939,863Z" fill="#1f7a83" stroke="#1f7a83" stroke-width="1.51"/><path d="M1797,-265L1836,-78L1959,-191Z" fill="#88aaa4" stroke="#88aaa4" stroke-width="1.51"/><path d="M1781,98L1793,276L1904,94Z" fill="#749e9e" stroke="#749e9e" stroke-width="1.51"/><path d="M1790,992L1838,1138L1951,1022Z" fill="#047165" stroke="#047165" stroke-width="1.51"/><path d="M1838,1138L1753,1235L1925,1302Z" fill="#016654" stroke="#016654" stroke-width="1.51"/><path d="M1787,793L1790,992L1939,863Z" fill="#14797b" stroke="#14797b" stroke-width="1.51"/><path d="M1772,719L1787,793L1934,735Z" fill="#247f8d" stroke="#247f8d" stroke-width="1.51"/><path d="M1903,-43L1781,98L1904,94Z" fill="#7ca19e" stroke="#7ca19e" stroke-width="1.51"/><path d="M1836,-78L1781,98L1903,-43Z" fill="#80a4a1" stroke="#80a4a1" stroke-width="1.51"/><path d="M1648,708L1772,719L1792,511Z" fill="#338899" stroke="#338899" stroke-width="1.51"/><path d="M1781,98L1670,234L1793,276Z" fill="#719fa5" stroke="#719fa5" stroke-width="1.51"/><path d="M1591,-23L1781,98L1836,-78Z" fill="#82a8aa" stroke="#82a8aa" stroke-width="1.51"/><path d="M1797,-265L1630,-235L1836,-78Z" fill="#8cb0ad" stroke="#8cb0ad" stroke-width="1.51"/><path d="M1630,-235L1591,-23L1836,-78Z" fill="#8aaeb1" stroke="#8aaeb1" stroke-width="1.51"/><path d="M1790,992L1649,1152L1838,1138Z" fill="#047369" stroke="#047369" stroke-width="1.51"/><path d="M1649,1152L1753,1235L1838,1138Z" fill="#036e60" stroke="#036e60" stroke-width="1.51"/><path d="M1668,493L1648,708L1792,511Z" fill="#3d8e9e" stroke="#3d8e9e" stroke-width="1.51"/><path d="M1591,-23L1640,128L1781,98Z" fill="#7fa7af" stroke="#7fa7af" stroke-width="1.51"/><path d="M1640,128L1670,234L1781,98Z" fill="#78a2aa" stroke="#78a2aa" stroke-width="1.51"/><path d="M1612,804L1612,982L1787,793Z" fill="#16808d" stroke="#16808d" stroke-width="1.51"/><path d="M1612,982L1649,1152L1790,992Z" fill="#057874" stroke="#057874" stroke-width="1.51"/><path d="M1787,793L1612,982L1790,992Z" fill="#0c7c80" stroke="#0c7c80" stroke-width="1.51"/><path d="M1777,370L1668,493L1792,511Z" fill="#4f929e" stroke="#4f929e" stroke-width="1.51"/><path d="M1670,234L1777,370L1793,276Z" fill="#679aa2" stroke="#679aa2" stroke-width="1.51"/><path d="M1772,719L1648,708L1787,793Z" fill="#268396" stroke="#268396" stroke-width="1.51"/><path d="M1648,708L1612,804L1787,793Z" fill="#228397" stroke="#228397" stroke-width="1.51"/><path d="M1670,234L1606,381L1777,370Z" fill="#659ba7" stroke="#659ba7" stroke-width="1.51"/><path d="M1606,381L1668,493L1777,370Z" fill="#5796a4" stroke="#5796a4" stroke-width="1.51"/><path d="M1649,1152L1588,1280L1753,1235Z" fill="#046d63" stroke="#046d63" stroke-width="1.51"/><path d="M770,-177L878,-171L1013,-184Z" fill="#b9cde4" stroke="#b9cde4" stroke-width="1.51"/><path d="M1538,-76L1591,-23L1630,-235Z" fill="#8db2bb" stroke="#8db2bb" stroke-width="1.51"/><path d="M1591,-23L1520,55L1640,128Z" fill="#82abb7" stroke="#82abb7" stroke-width="1.51"/><path d="M1612,982L1464,1119L1649,1152Z" fill="#057a78" stroke="#057a78" stroke-width="1.51"/><path d="M1606,381L1508,407L1668,493Z" fill="#569aac" stroke="#569aac" stroke-width="1.51"/><path d="M1479,676L1648,708L1668,493Z" fill="#368fa6" stroke="#368fa6" stroke-width="1.51"/><path d="M1456,548L1479,676L1668,493Z" fill="#3e93ae" stroke="#3e93ae" stroke-width="1.51"/><path d="M1640,128L1462,230L1670,234Z" fill="#75a4b2" stroke="#75a4b2" stroke-width="1.51"/><path d="M1462,230L1606,381L1670,234Z" fill="#6ca1b1" stroke="#6ca1b1" stroke-width="1.51"/><path d="M1508,407L1456,548L1668,493Z" fill="#4d98af" stroke="#4d98af" stroke-width="1.51"/><path d="M1530,789L1462,976L1612,982Z" fill="#0f8390" stroke="#0f8390" stroke-width="1.51"/><path d="M1530,789L1612,982L1612,804Z" fill="#168494" stroke="#168494" stroke-width="1.51"/><path d="M1540,-259L1538,-76L1630,-235Z" fill="#91b6bd" stroke="#91b6bd" stroke-width="1.51"/><path d="M1530,789L1612,804L1648,708Z" fill="#22879f" stroke="#22879f" stroke-width="1.51"/><path d="M1464,1119L1588,1280L1649,1152Z" fill="#04746f" stroke="#04746f" stroke-width="1.51"/><path d="M1479,676L1530,789L1648,708Z" fill="#288aa6" stroke="#288aa6" stroke-width="1.51"/><path d="M1520,55L1462,230L1640,128Z" fill="#7ea9b8" stroke="#7ea9b8" stroke-width="1.51"/><path d="M423,-262L548,-213L770,-177Z" fill="#d5d9eb" stroke="#d5d9eb" stroke-width="1.51"/><path d="M1462,230L1508,407L1606,381Z" fill="#67a0b5" stroke="#67a0b5" stroke-width="1.51"/><path d="M1462,976L1464,1119L1612,982Z" fill="#0c7e85" stroke="#0c7e85" stroke-width="1.51"/><path d="M-148,-251L145,-229L423,-262Z" fill="#f0e8f3" stroke="#f0e8f3" stroke-width="1.51"/><path d="M1464,1119L1449,1317L1588,1280Z" fill="#0e706f" stroke="#0e706f" stroke-width="1.51"/><path d="M1538,-76L1520,55L1591,-23Z" fill="#88afbb" stroke="#88afbb" stroke-width="1.51"/><path d="M1326,143L1462,230L1520,55Z" fill="#82abc2" stroke="#82abc2" stroke-width="1.51"/><path d="M1300,872L1462,976L1530,789Z" fill="#1f879f" stroke="#1f879f" stroke-width="1.51"/><path d="M1370,-40L1520,55L1538,-76Z" fill="#8db1c2" stroke="#8db1c2" stroke-width="1.51"/><path d="M1367,-210L1370,-40L1538,-76Z" fill="#95b6c9" stroke="#95b6c9" stroke-width="1.51"/><path d="M1367,-210L1538,-76L1540,-259Z" fill="#95b8c6" stroke="#95b8c6" stroke-width="1.51"/><path d="M1330,287L1367,419L1462,230Z" fill="#72a4c2" stroke="#72a4c2" stroke-width="1.51"/><path d="M1462,230L1367,419L1508,407Z" fill="#69a1bc" stroke="#69a1bc" stroke-width="1.51"/><path d="M1376,709L1300,872L1530,789Z" fill="#2a8bad" stroke="#2a8bad" stroke-width="1.51"/><path d="M1479,676L1376,709L1530,789Z" fill="#2e8dae" stroke="#2e8dae" stroke-width="1.51"/><path d="M1367,419L1456,548L1508,407Z" fill="#589cb9" stroke="#589cb9" stroke-width="1.51"/><path d="M1370,-40L1326,143L1520,55Z" fill="#8bb0c8" stroke="#8bb0c8" stroke-width="1.51"/><path d="M1342,1312L1449,1317L1464,1119Z" fill="#167175" stroke="#167175" stroke-width="1.51"/><path d="M1329,1118L1342,1312L1464,1119Z" fill="#1b787f" stroke="#1b787f" stroke-width="1.51"/><path d="M1462,976L1330,1028L1464,1119Z" fill="#17808c" stroke="#17808c" stroke-width="1.51"/><path d="M1456,548L1353,568L1479,676Z" fill="#4195b6" stroke="#4195b6" stroke-width="1.51"/><path d="M1353,568L1376,709L1479,676Z" fill="#3c92b6" stroke="#3c92b6" stroke-width="1.51"/><path d="M1367,419L1353,568L1456,548Z" fill="#509abc" stroke="#509abc" stroke-width="1.51"/><path d="M1300,872L1330,1028L1462,976Z" fill="#1b869a" stroke="#1b869a" stroke-width="1.51"/><path d="M1330,1028L1329,1118L1464,1119Z" fill="#1c7e89" stroke="#1c7e89" stroke-width="1.51"/><path d="M1326,143L1330,287L1462,230Z" fill="#7da9c6" stroke="#7da9c6" stroke-width="1.51"/><path d="M1329,1118L1168,1164L1342,1312Z" fill="#227a86" stroke="#227a86" stroke-width="1.51"/><path d="M1168,1164L1173,1294L1342,1312Z" fill="#257683" stroke="#257683" stroke-width="1.51"/><path d="M1215,382L1171,574L1353,568Z" fill="#589ec9" stroke="#589ec9" stroke-width="1.51"/><path d="M1215,382L1353,568L1367,419Z" fill="#5e9fc5" stroke="#5e9fc5" stroke-width="1.51"/><path d="M1330,287L1215,382L1367,419Z" fill="#6fa4c8" stroke="#6fa4c8" stroke-width="1.51"/><path d="M1145,-209L1154,-64L1367,-210Z" fill="#a2bedb" stroke="#a2bedb" stroke-width="1.51"/><path d="M1210,70L1326,143L1370,-40Z" fill="#90b2d0" stroke="#90b2d0" stroke-width="1.51"/><path d="M1367,-210L1154,-64L1370,-40Z" fill="#9bb9d5" stroke="#9bb9d5" stroke-width="1.51"/><path d="M1353,568L1180,639L1376,709Z" fill="#4395c0" stroke="#4395c0" stroke-width="1.51"/><path d="M1180,639L1300,872L1376,709Z" fill="#3690bd" stroke="#3690bd" stroke-width="1.51"/><path d="M1154,-64L1210,70L1370,-40Z" fill="#98b6d7" stroke="#98b6d7" stroke-width="1.51"/><path d="M1180,639L1204,884L1300,872Z" fill="#3590ba" stroke="#3590ba" stroke-width="1.51"/><path d="M1300,872L1236,1030L1330,1028Z" fill="#22879f" stroke="#22879f" stroke-width="1.51"/><path d="M1326,143L1178,191L1330,287Z" fill="#83accf" stroke="#83accf" stroke-width="1.51"/><path d="M1171,574L1180,639L1353,568Z" fill="#4d9ac6" stroke="#4d9ac6" stroke-width="1.51"/><path d="M1204,884L1236,1030L1300,872Z" fill="#288aa8" stroke="#288aa8" stroke-width="1.51"/><path d="M1236,1030L1329,1118L1330,1028Z" fill="#228294" stroke="#228294" stroke-width="1.51"/><path d="M1178,191L1215,382L1330,287Z" fill="#7caacf" stroke="#7caacf" stroke-width="1.51"/><path d="M1236,1030L1168,1164L1329,1118Z" fill="#268293" stroke="#268293" stroke-width="1.51"/><path d="M1210,70L1178,191L1326,143Z" fill="#8eb1d4" stroke="#8eb1d4" stroke-width="1.51"/><path d="M1180,639L1069,813L1204,884Z" fill="#3e93be" stroke="#3e93be" stroke-width="1.51"/><path d="M897,1270L712,1311L1014,1296Z" fill="#448087" stroke="#448087" stroke-width="1.51"/><path d="M1053,704L1069,813L1180,639Z" fill="#4898c5" stroke="#4898c5" stroke-width="1.51"/><path d="M1001,495L1171,574L1215,382Z" fill="#65a4cd" stroke="#65a4cd" stroke-width="1.51"/><path d="M1033,373L1001,495L1215,382Z" fill="#73aad0" stroke="#73aad0" stroke-width="1.51"/><path d="M1178,191L1033,373L1215,382Z" fill="#7facd1" stroke="#7facd1" stroke-width="1.51"/><path d="M990,1107L1168,1164L1236,1030Z" fill="#318695" stroke="#318695" stroke-width="1.51"/><path d="M1014,945L990,1107L1236,1030Z" fill="#378ca0" stroke="#378ca0" stroke-width="1.51"/><path d="M1204,884L1014,945L1236,1030Z" fill="#308da7" stroke="#308da7" stroke-width="1.51"/><path d="M995,257L1033,373L1178,191Z" fill="#88b1d4" stroke="#88b1d4" stroke-width="1.51"/><path d="M986,39L1178,191L1210,70Z" fill="#97b7d7" stroke="#97b7d7" stroke-width="1.51"/><path d="M1154,-64L986,39L1210,70Z" fill="#9ebbd9" stroke="#9ebbd9" stroke-width="1.51"/><path d="M1047,-70L986,39L1154,-64Z" fill="#a4bfdc" stroke="#a4bfdc" stroke-width="1.51"/><path d="M1069,813L1014,945L1204,884Z" fill="#3b92b2" stroke="#3b92b2" stroke-width="1.51"/><path d="M1145,-209L1047,-70L1154,-64Z" fill="#a6c0dd" stroke="#a6c0dd" stroke-width="1.51"/><path d="M1168,1164L1014,1296L1173,1294Z" fill="#2f7b86" stroke="#2f7b86" stroke-width="1.51"/><path d="M986,39L995,257L1178,191Z" fill="#96b7d7" stroke="#96b7d7" stroke-width="1.51"/><path d="M1171,574L1053,704L1180,639Z" fill="#509bc7" stroke="#509bc7" stroke-width="1.51"/><path d="M1013,-184L1047,-70L1145,-209Z" fill="#abc4df" stroke="#abc4df" stroke-width="1.51"/><path d="M990,1107L1014,1296L1168,1164Z" fill="#36838d" stroke="#36838d" stroke-width="1.51"/><path d="M1001,495L1053,704L1171,574Z" fill="#59a1ca" stroke="#59a1ca" stroke-width="1.51"/><path d="M990,1107L897,1270L1014,1296Z" fill="#3c838c" stroke="#3c838c" stroke-width="1.51"/><path d="M1001,495L876,556L1053,704Z" fill="#62a5cd" stroke="#62a5cd" stroke-width="1.51"/><path d="M876,556L882,729L1053,704Z" fill="#5da2cb" stroke="#5da2cb" stroke-width="1.51"/><path d="M915,862L1014,945L1069,813Z" fill="#4496b5" stroke="#4496b5" stroke-width="1.51"/><path d="M1053,704L882,729L1069,813Z" fill="#4d9bc6" stroke="#4d9bc6" stroke-width="1.51"/><path d="M882,729L915,862L1069,813Z" fill="#4d9ac0" stroke="#4d9ac0" stroke-width="1.51"/><path d="M986,39L892,39L995,257Z" fill="#a0bddb" stroke="#a0bddb" stroke-width="1.51"/><path d="M908,948L990,1107L1014,945Z" fill="#4092a5" stroke="#4092a5" stroke-width="1.51"/><path d="M1013,-184L930,-41L1047,-70Z" fill="#adc5df" stroke="#adc5df" stroke-width="1.51"/><path d="M930,-41L986,39L1047,-70Z" fill="#a8c2de" stroke="#a8c2de" stroke-width="1.51"/><path d="M878,-171L930,-41L1013,-184Z" fill="#b2c8e2" stroke="#b2c8e2" stroke-width="1.51"/><path d="M995,257L840,286L1033,373Z" fill="#8cb5d6" stroke="#8cb5d6" stroke-width="1.51"/><path d="M840,286L876,445L1033,373Z" fill="#87b3d5" stroke="#87b3d5" stroke-width="1.51"/><path d="M876,445L1001,495L1033,373Z" fill="#78add1" stroke="#78add1" stroke-width="1.51"/><path d="M892,39L840,286L995,257Z" fill="#9dbbda" stroke="#9dbbda" stroke-width="1.51"/><path d="M915,862L908,948L1014,945Z" fill="#4697b1" stroke="#4697b1" stroke-width="1.51"/><path d="M831,1113L897,1270L990,1107Z" fill="#458c92" stroke="#458c92" stroke-width="1.51"/><path d="M908,948L831,1113L990,1107Z" fill="#4791a0" stroke="#4791a0" stroke-width="1.51"/><path d="M876,445L876,556L1001,495Z" fill="#73acd1" stroke="#73acd1" stroke-width="1.51"/><path d="M930,-41L892,39L986,39Z" fill="#aac2de" stroke="#aac2de" stroke-width="1.51"/><path d="M688,47L700,263L840,286Z" fill="#acc0dd" stroke="#acc0dd" stroke-width="1.51"/><path d="M876,556L761,704L882,729Z" fill="#69a5cd" stroke="#69a5cd" stroke-width="1.51"/><path d="M688,47L840,286L892,39Z" fill="#aec2de" stroke="#aec2de" stroke-width="1.51"/><path d="M717,-73L892,39L930,-41Z" fill="#b5c7e1" stroke="#b5c7e1" stroke-width="1.51"/><path d="M878,-171L717,-73L930,-41Z" fill="#b9cae3" stroke="#b9cae3" stroke-width="1.51"/><path d="M770,-177L717,-73L878,-171Z" fill="#c1cee5" stroke="#c1cee5" stroke-width="1.51"/><path d="M831,1113L750,1143L897,1270Z" fill="#4e8d93" stroke="#4e8d93" stroke-width="1.51"/><path d="M710,949L831,1113L908,948Z" fill="#5397a8" stroke="#5397a8" stroke-width="1.51"/><path d="M725,888L908,948L915,862Z" fill="#549ab5" stroke="#549ab5" stroke-width="1.51"/><path d="M882,729L725,888L915,862Z" fill="#5b9dbf" stroke="#5b9dbf" stroke-width="1.51"/><path d="M761,704L725,888L882,729Z" fill="#65a1c7" stroke="#65a1c7" stroke-width="1.51"/><path d="M725,888L710,949L908,948Z" fill="#5a9cb2" stroke="#5a9cb2" stroke-width="1.51"/><path d="M840,286L724,392L876,445Z" fill="#92b6d7" stroke="#92b6d7" stroke-width="1.51"/><path d="M749,495L876,556L876,445Z" fill="#7cafd2" stroke="#7cafd2" stroke-width="1.51"/><path d="M750,1143L712,1311L897,1270Z" fill="#50888e" stroke="#50888e" stroke-width="1.51"/><path d="M717,-73L688,47L892,39Z" fill="#bac8e2" stroke="#bac8e2" stroke-width="1.51"/><path d="M749,495L761,704L876,556Z" fill="#76abd1" stroke="#76abd1" stroke-width="1.51"/><path d="M724,392L749,495L876,445Z" fill="#8ab3d6" stroke="#8ab3d6" stroke-width="1.51"/><path d="M688,47L634,111L700,263Z" fill="#b8c6e0" stroke="#b8c6e0" stroke-width="1.51"/><path d="M710,949L750,1143L831,1113Z" fill="#5895a1" stroke="#5895a1" stroke-width="1.51"/><path d="M700,263L724,392L840,286Z" fill="#9fbbd9" stroke="#9fbbd9" stroke-width="1.51"/><path d="M575,1131L712,1311L750,1143Z" fill="#5d9094" stroke="#5d9094" stroke-width="1.51"/><path d="M710,949L575,1131L750,1143Z" fill="#6198a2" stroke="#6198a2" stroke-width="1.51"/><path d="M537,830L725,888L761,704Z" fill="#70a4c5" stroke="#70a4c5" stroke-width="1.51"/><path d="M554,665L537,830L761,704Z" fill="#7aa9cf" stroke="#7aa9cf" stroke-width="1.51"/><path d="M749,495L561,550L761,704Z" fill="#81afd3" stroke="#81afd3" stroke-width="1.51"/><path d="M561,550L554,665L761,704Z" fill="#82aed2" stroke="#82aed2" stroke-width="1.51"/><path d="M548,-213L717,-73L770,-177Z" fill="#cbd3e7" stroke="#cbd3e7" stroke-width="1.51"/><path d="M385,1299L287,1329L595,1338Z" fill="#6a8c8c" stroke="#6a8c8c" stroke-width="1.51"/><path d="M634,111L624,241L700,263Z" fill="#b4c3df" stroke="#b4c3df" stroke-width="1.51"/><path d="M550,979L575,1131L710,949Z" fill="#689daa" stroke="#689daa" stroke-width="1.51"/><path d="M724,392L561,550L749,495Z" fill="#90b6d7" stroke="#90b6d7" stroke-width="1.51"/><path d="M624,241L565,359L700,263Z" fill="#adc0dd" stroke="#adc0dd" stroke-width="1.51"/><path d="M575,1131L595,1338L712,1311Z" fill="#5f8b8e" stroke="#5f8b8e" stroke-width="1.51"/><path d="M530,-24L688,47L717,-73Z" fill="#c6cde5" stroke="#c6cde5" stroke-width="1.51"/><path d="M700,263L565,359L724,392Z" fill="#a5bddb" stroke="#a5bddb" stroke-width="1.51"/><path d="M565,359L561,550L724,392Z" fill="#9bb9d9" stroke="#9bb9d9" stroke-width="1.51"/><path d="M537,830L710,949L725,888Z" fill="#6ba1ba" stroke="#6ba1ba" stroke-width="1.51"/><path d="M537,830L550,979L710,949Z" fill="#6ea2b7" stroke="#6ea2b7" stroke-width="1.51"/><path d="M548,-213L530,-24L717,-73Z" fill="#cfd2e7" stroke="#cfd2e7" stroke-width="1.51"/><path d="M530,-24L634,111L688,47Z" fill="#c4cce4" stroke="#c4cce4" stroke-width="1.51"/><path d="M465,508L561,550L565,359Z" fill="#9cbbda" stroke="#9cbbda" stroke-width="1.51"/><path d="M575,1131L385,1299L595,1338Z" fill="#678f90" stroke="#678f90" stroke-width="1.51"/><path d="M530,-24L465,37L634,111Z" fill="#cacee5" stroke="#cacee5" stroke-width="1.51"/><path d="M441,269L624,241L634,111Z" fill="#bac6e0" stroke="#bac6e0" stroke-width="1.51"/><path d="M465,37L441,269L634,111Z" fill="#c5cbe3" stroke="#c5cbe3" stroke-width="1.51"/><path d="M455,1117L385,1299L575,1131Z" fill="#6d9999" stroke="#6d9999" stroke-width="1.51"/><path d="M441,269L565,359L624,241Z" fill="#b3c3de" stroke="#b3c3de" stroke-width="1.51"/><path d="M405,-96L530,-24L548,-213Z" fill="#d6d6e9" stroke="#d6d6e9" stroke-width="1.51"/><path d="M438,704L537,830L554,665Z" fill="#83acd1" stroke="#83acd1" stroke-width="1.51"/><path d="M550,979L455,1117L575,1131Z" fill="#6d9da4" stroke="#6d9da4" stroke-width="1.51"/><path d="M537,830L445,964L550,979Z" fill="#74a5b8" stroke="#74a5b8" stroke-width="1.51"/><path d="M465,508L554,665L561,550Z" fill="#90b5d7" stroke="#90b5d7" stroke-width="1.51"/><path d="M421,359L465,508L565,359Z" fill="#a9bfdc" stroke="#a9bfdc" stroke-width="1.51"/><path d="M410,878L445,964L537,830Z" fill="#7ba8bd" stroke="#7ba8bd" stroke-width="1.51"/><path d="M445,964L455,1117L550,979Z" fill="#72a1ac" stroke="#72a1ac" stroke-width="1.51"/><path d="M465,508L438,704L554,665Z" fill="#8eb4d5" stroke="#8eb4d5" stroke-width="1.51"/><path d="M441,269L421,359L565,359Z" fill="#b4c3df" stroke="#b4c3df" stroke-width="1.51"/><path d="M423,-262L405,-96L548,-213Z" fill="#dcdbec" stroke="#dcdbec" stroke-width="1.51"/><path d="M438,704L410,878L537,830Z" fill="#81abc9" stroke="#81abc9" stroke-width="1.51"/><path d="M405,-96L465,37L530,-24Z" fill="#d3d4e8" stroke="#d3d4e8" stroke-width="1.51"/><path d="M331,-185L405,-96L423,-262Z" fill="#e1dded" stroke="#e1dded" stroke-width="1.51"/><path d="M330,710L410,878L438,704Z" fill="#89afd0" stroke="#89afd0" stroke-width="1.51"/><path d="M295,533L330,710L438,704Z" fill="#96b6d7" stroke="#96b6d7" stroke-width="1.51"/><path d="M278,105L287,219L441,269Z" fill="#cacee4" stroke="#cacee4" stroke-width="1.51"/><path d="M445,964L256,1084L455,1117Z" fill="#78a2a9" stroke="#78a2a9" stroke-width="1.51"/><path d="M256,1084L385,1299L455,1117Z" fill="#759d9c" stroke="#759d9c" stroke-width="1.51"/><path d="M295,533L438,704L465,508Z" fill="#99b9d9" stroke="#99b9d9" stroke-width="1.51"/><path d="M421,359L295,533L465,508Z" fill="#a6bfdc" stroke="#a6bfdc" stroke-width="1.51"/><path d="M405,-96L295,-36L465,37Z" fill="#d9d6e9" stroke="#d9d6e9" stroke-width="1.51"/><path d="M295,-36L278,105L465,37Z" fill="#d7d5e8" stroke="#d7d5e8" stroke-width="1.51"/><path d="M278,105L441,269L465,37Z" fill="#cdcfe5" stroke="#cdcfe5" stroke-width="1.51"/><path d="M94,1286L-70,1344L287,1329Z" fill="#7a9591" stroke="#7a9591" stroke-width="1.51"/><path d="M243,990L256,1084L445,964Z" fill="#7da7b0" stroke="#7da7b0" stroke-width="1.51"/><path d="M243,404L295,533L421,359Z" fill="#b0c3de" stroke="#b0c3de" stroke-width="1.51"/><path d="M145,-229L331,-185L423,-262Z" fill="#e7e2f0" stroke="#e7e2f0" stroke-width="1.51"/><path d="M410,878L243,990L445,964Z" fill="#7ea9b8" stroke="#7ea9b8" stroke-width="1.51"/><path d="M287,219L421,359L441,269Z" fill="#bfc8e2" stroke="#bfc8e2" stroke-width="1.51"/><path d="M256,1084L287,1329L385,1299Z" fill="#759796" stroke="#759796" stroke-width="1.51"/><path d="M330,710L236,805L410,878Z" fill="#8bafcc" stroke="#8bafcc" stroke-width="1.51"/><path d="M287,219L243,404L421,359Z" fill="#bec8e1" stroke="#bec8e1" stroke-width="1.51"/><path d="M236,805L243,990L410,878Z" fill="#86adc0" stroke="#86adc0" stroke-width="1.51"/><path d="M331,-185L295,-36L405,-96Z" fill="#e0dbec" stroke="#e0dbec" stroke-width="1.51"/><path d="M256,1084L94,1286L287,1329Z" fill="#7a9a98" stroke="#7a9a98" stroke-width="1.51"/><path d="M108,531L106,719L295,533Z" fill="#a4bfdc" stroke="#a4bfdc" stroke-width="1.51"/><path d="M295,533L106,719L330,710Z" fill="#9bb9d9" stroke="#9bb9d9" stroke-width="1.51"/><path d="M106,719L236,805L330,710Z" fill="#94b4d6" stroke="#94b4d6" stroke-width="1.51"/><path d="M125,-74L295,-36L331,-185Z" fill="#e4ddee" stroke="#e4ddee" stroke-width="1.51"/><path d="M145,-229L125,-74L331,-185Z" fill="#e9e2ef" stroke="#e9e2ef" stroke-width="1.51"/><path d="M102,1093L94,1286L256,1084Z" fill="#80a4a0" stroke="#80a4a0" stroke-width="1.51"/><path d="M89,208L243,404L287,219Z" fill="#c8cee5" stroke="#c8cee5" stroke-width="1.51"/><path d="M278,105L150,70L287,219Z" fill="#d5d4e8" stroke="#d5d4e8" stroke-width="1.51"/><path d="M150,70L89,208L287,219Z" fill="#d5d4e8" stroke="#d5d4e8" stroke-width="1.51"/><path d="M150,70L278,105L295,-36Z" fill="#dbd8ea" stroke="#dbd8ea" stroke-width="1.51"/><path d="M125,-74L150,70L295,-36Z" fill="#e2dced" stroke="#e2dced" stroke-width="1.51"/><path d="M243,404L108,531L295,533Z" fill="#adc3df" stroke="#adc3df" stroke-width="1.51"/><path d="M236,805L143,996L243,990Z" fill="#87aebc" stroke="#87aebc" stroke-width="1.51"/><path d="M89,208L106,432L243,404Z" fill="#c3cce4" stroke="#c3cce4" stroke-width="1.51"/><path d="M106,432L108,531L243,404Z" fill="#b5c7e1" stroke="#b5c7e1" stroke-width="1.51"/><path d="M81,815L143,996L236,805Z" fill="#8eb2c5" stroke="#8eb2c5" stroke-width="1.51"/><path d="M243,990L143,996L256,1084Z" fill="#82a9b0" stroke="#82a9b0" stroke-width="1.51"/><path d="M143,996L102,1093L256,1084Z" fill="#83a9ac" stroke="#83a9ac" stroke-width="1.51"/><path d="M-148,-251L19,-190L145,-229Z" fill="#f4ebf5" stroke="#f4ebf5" stroke-width="1.51"/><path d="M106,719L81,815L236,805Z" fill="#95b5d2" stroke="#95b5d2" stroke-width="1.51"/><path d="M25,1114L94,1286L102,1093Z" fill="#83a5a1" stroke="#83a5a1" stroke-width="1.51"/><path d="M89,208L8,240L106,432Z" fill="#cdd1e6" stroke="#cdd1e6" stroke-width="1.51"/><path d="M8,240L-51,379L106,432Z" fill="#c8d0e6" stroke="#c8d0e6" stroke-width="1.51"/><path d="M-1,532L106,719L108,531Z" fill="#a9c1de" stroke="#a9c1de" stroke-width="1.51"/><path d="M-61,-76L-45,97L125,-74Z" fill="#e9e1ef" stroke="#e9e1ef" stroke-width="1.51"/><path d="M81,815L-48,985L143,996Z" fill="#8eb2be" stroke="#8eb2be" stroke-width="1.51"/><path d="M19,-190L125,-74L145,-229Z" fill="#eee5f2" stroke="#eee5f2" stroke-width="1.51"/><path d="M125,-74L-45,97L150,70Z" fill="#e4dded" stroke="#e4dded" stroke-width="1.51"/><path d="M-45,97L89,208L150,70Z" fill="#ded9eb" stroke="#ded9eb" stroke-width="1.51"/><path d="M-1,532L-33,711L106,719Z" fill="#a5bfdc" stroke="#a5bfdc" stroke-width="1.51"/><path d="M-48,985L102,1093L143,996Z" fill="#89aeb3" stroke="#89aeb3" stroke-width="1.51"/><path d="M-48,985L25,1114L102,1093Z" fill="#89acae" stroke="#89acae" stroke-width="1.51"/><path d="M106,432L-1,532L108,531Z" fill="#b3c7e1" stroke="#b3c7e1" stroke-width="1.51"/><path d="M19,-190L-61,-76L125,-74Z" fill="#eee4f1" stroke="#eee4f1" stroke-width="1.51"/><path d="M-22,784L-48,985L81,815Z" fill="#95b6c9" stroke="#95b6c9" stroke-width="1.51"/><path d="M-22,784L81,815L106,719Z" fill="#9ab7d4" stroke="#9ab7d4" stroke-width="1.51"/><path d="M-33,711L-22,784L106,719Z" fill="#9ebada" stroke="#9ebada" stroke-width="1.51"/><path d="M-45,97L8,240L89,208Z" fill="#dad8ea" stroke="#dad8ea" stroke-width="1.51"/><path d="M25,1114L-70,1344L94,1286Z" fill="#819e9a" stroke="#819e9a" stroke-width="1.51"/><path d="M-51,379L-1,532L106,432Z" fill="#bccbe3" stroke="#bccbe3" stroke-width="1.51"/><path d="M-117,1320L-70,1344L25,1114Z" fill="#82a099" stroke="#82a099" stroke-width="1.51"/><path d="M-154,843L-48,985L-22,784Z" fill="#97b8c9" stroke="#97b8c9" stroke-width="1.51"/><path d="M-51,379L-110,438L-1,532Z" fill="#bdcee4" stroke="#bdcee4" stroke-width="1.51"/><path d="M-152,636L-33,711L-1,532Z" fill="#aac3df" stroke="#aac3df" stroke-width="1.51"/><path d="M-165,1130L-117,1320L25,1114Z" fill="#87a8a1" stroke="#87a8a1" stroke-width="1.51"/><path d="M-118,1037L-165,1130L25,1114Z" fill="#8bafac" stroke="#8bafac" stroke-width="1.51"/><path d="M-48,985L-118,1037L25,1114Z" fill="#8cafb2" stroke="#8cafb2" stroke-width="1.51"/><path d="M-148,-251L-61,-76L19,-190Z" fill="#f5ebf5" stroke="#f5ebf5" stroke-width="1.51"/><path d="M-137,81L-218,247L-45,97Z" fill="#e2dfee" stroke="#e2dfee" stroke-width="1.51"/><path d="M-61,-76L-137,81L-45,97Z" fill="#e9e2f0" stroke="#e9e2f0" stroke-width="1.51"/><path d="M-45,97L-218,247L8,240Z" fill="#dcdbeb" stroke="#dcdbeb" stroke-width="1.51"/><path d="M-218,247L-51,379L8,240Z" fill="#d2d6e9" stroke="#d2d6e9" stroke-width="1.51"/><path d="M-110,438L-179,540L-1,532Z" fill="#b8cde4" stroke="#b8cde4" stroke-width="1.51"/><path d="M-179,540L-152,636L-1,532Z" fill="#b1c9e2" stroke="#b1c9e2" stroke-width="1.51"/><path d="M-33,711L-154,843L-22,784Z" fill="#9dbcd6" stroke="#9dbcd6" stroke-width="1.51"/><path d="M-148,-251L-202,-72L-61,-76Z" fill="#f4ebf5" stroke="#f4ebf5" stroke-width="1.51"/><path d="M-152,636L-154,843L-33,711Z" fill="#a3bfdc" stroke="#a3bfdc" stroke-width="1.51"/><path d="M-202,-72L-137,81L-61,-76Z" fill="#eee6f2" stroke="#eee6f2" stroke-width="1.51"/><path d="M-218,247L-110,438L-51,379Z" fill="#cdd5e9" stroke="#cdd5e9" stroke-width="1.51"/><path d="M-154,843L-118,1037L-48,985Z" fill="#91b7be" stroke="#91b7be" stroke-width="1.51"/><path d="M-218,247L-179,540L-110,438Z" fill="#c7d4e8" stroke="#c7d4e8" stroke-width="1.51"/><path d="M-154,843L-165,1130L-118,1037Z" fill="#90b5b9" stroke="#90b5b9" stroke-width="1.51"/><path d="M-202,-72L-218,247L-137,81Z" fill="#e9e3f0" stroke="#e9e3f0" stroke-width="1.51"/><path d="M-179,540L-154,843L-152,636Z" fill="#a9c4de" stroke="#a9c4de" stroke-width="1.51"/><path d="M-179,540L-165,1130L-154,843Z" fill="#9cbccf" stroke="#9cbccf" stroke-width="1.51"/><path d="M-179,540L-218,247L-165,1130Z" fill="#adc7e1" stroke="#adc7e1" stroke-width="1.51"/></svg>