<svg xmlns="http://www.w3.org/2000/svg" width="1920" height="1080"><path d="M287,1329L-70,1344L595,1338Z" fill="#a85974" stroke="#a85974" stroke-width="1.51"/><path d="M712,1311L595,1338L1014,1296Z" fill="#a793a0" stroke="#a793a0" stroke-width="1.51"/><path d="M1173,1294L1014,1296L1342,1312Z" fill="#949dca" stroke="#949dca" stroke-width="1.51"/><path d="M1014,1296L595,1338L1342,1312Z" fill="#a39eb4" stroke="#a39eb4" stroke-width="1.51"/><path d="M1342,1312L595,1338L1449,1317Z" fill="#9799c3" stroke="#9799c3" stroke-width="1.51"/><path d="M423,-262L1145,-209L1540,-259Z" fill="#dd9276" stroke="#dd9276" stroke-width="1.51"/><path d="M423,-262L1540,-259L1797,-265Z" fill="#cf8986" stroke="#cf8986" stroke-width="1.51"/><path d="M1588,1280L1449,1317L1925,1302Z" fill="#5d7fbb" stroke="#5d7fbb" stroke-width="1.51"/><path d="M1939,863L1951,1022L2039,835Z" fill="#7399c9" stroke="#7399c9" stroke-width="1.51"/><path d="M2052,91L1974,210L2070,266Z" fill="#ad7d86" stroke="#ad7d86" stroke-width="1.51"/><path d="M2039,835L1951,1022L2085,1037Z" fill="#688bc1" stroke="#688bc1" stroke-width="1.51"/><path d="M2081,726L2039,835L2085,1037Z" fill="#7791c5" stroke="#7791c5" stroke-width="1.51"/><path d="M1797,-265L1959,-191L2106,-246Z" fill="#944c69" stroke="#944c69" stroke-width="1.51"/><path d="M1959,-191L2048,-46L2106,-246Z" fill="#9a4566" stroke="#9a4566" stroke-width="1.51"/><path d="M2052,91L2070,266L2106,-246Z" fill="#a95a74" stroke="#a95a74" stroke-width="1.51"/><path d="M2048,-46L2052,91L2106,-246Z" fill="#a34c6b" stroke="#a34c6b" stroke-width="1.51"/><path d="M1449,1317L595,1338L2107,1342Z" fill="#7c8dc4" stroke="#7c8dc4" stroke-width="1.51"/><path d="M1925,1302L1449,1317L2107,1342Z" fill="#4a68ae" stroke="#4a68ae" stroke-width="1.51"/><path d="M2043,1124L1967,1173L2107,1342Z" fill="#4163ac" stroke="#4163ac" stroke-width="1.51"/><path d="M1967,1173L1925,1302L2107,1342Z" fill="#3f5ca8" stroke="#3f5ca8" stroke-width="1.51"/><path d="M2085,1037L2043,1124L2107,1342Z" fill="#4665ad" stroke="#4665ad" stroke-width="1.51"/><path d="M1966,544L2081,726L2114,558Z" fill="#9ea2be" stroke="#9ea2be" stroke-width="1.51"/><path d="M2040,418L1966,544L2114,558Z" fill="#a8a2b0" stroke="#a8a2b0" stroke-width="1.51"/><path d="M2070,266L2040,418L2114,558Z" fill="#a895a1" stroke="#a895a1" stroke-width="1.51"/><path d="M2106,-246L2070,266L2114,558Z" fill="#a97482" stroke="#a97482" stroke-width="1.51"/><path d="M2085,1037L2107,1342L2114,558Z" fill="#637fbb" stroke="#637fbb" stroke-width="1.51"/><path d="M2081,726L2085,1037L2114,558Z" fill="#8594c8" stroke="#8594c8" stroke-width="1.51"/><path d="M1969,387L2040,418L2070,266Z" fill="#aa969c" stroke="#aa969c" stroke-width="1.51"/><path d="M1966,544L1934,735L2081,726Z" fill="#99a9cc" stroke="#99a9cc" stroke-width="1.51"/><path d="M1934,735L2039,835L2081,726Z" fill="#8a9fcd" stroke="#8a9fcd" stroke-width="1.51"/><path d="M1951,1022L2043,1124L2085,1037Z" fill="#577eb9" stroke="#577eb9" stroke-width="1.51"/><path d="M2048,-46L1903,-43L2052,91Z" fill="#ab6175" stroke="#ab6175" stroke-width="1.51"/><path d="M1903,-43L1904,94L2052,91Z" fill="#b16e7c" stroke="#b16e7c" stroke-width="1.51"/><path d="M1974,210L1969,387L2070,266Z" fill="#ad9094" stroke="#ad9094" stroke-width="1.51"/><path d="M1969,387L1966,544L2040,418Z" fill="#aba4ab" stroke="#aba4ab" stroke-width="1.51"/><path d="M1959,-191L1903,-43L2048,-46Z" fill="#a7586d" stroke="#a7586d" stroke-width="1.51"/><path d="M1904,94L1974,210L2052,91Z" fill="#b07a83" stroke="#b07a83" stroke-width="1.51"/><path d="M1934,735L1939,863L2039,835Z" fill="#83a3ce" stroke="#83a3ce" stroke-width="1.51"/><path d="M1951,1022L1967,1173L2043,1124Z" fill="#527bb8" stroke="#527bb8" stroke-width="1.51"/><path d="M423,-262L770,-177L1013,-184Z" fill="#e2895a" stroke="#e2895a" stroke-width="1.51"/><path d="M423,-262L1013,-184L1145,-209Z" fill="#e39065" stroke="#e39065" stroke-width="1.51"/><path d="M1145,-209L1367,-210L1540,-259Z" fill="#cd8985" stroke="#cd8985" stroke-width="1.51"/><path d="M1753,1235L1588,1280L1925,1302Z" fill="#5379b7" stroke="#5379b7" stroke-width="1.51"/><path d="M1939,863L1790,992L1951,1022Z" fill="#6e9dca" stroke="#6e9dca" stroke-width="1.51"/><path d="M1836,-78L1903,-43L1959,-191Z" fill="#ab6070" stroke="#ab6070" stroke-width="1.51"/><path d="M1772,719L1934,735L1966,544Z" fill="#9fb7d2" stroke="#9fb7d2" stroke-width="1.51"/><path d="M1792,511L1772,719L1966,544Z" fill="#acbec8" stroke="#acbec8" stroke-width="1.51"/><path d="M1951,1022L1838,1138L1967,1173Z" fill="#5284bc" stroke="#5284bc" stroke-width="1.51"/><path d="M1838,1138L1925,1302L1967,1173Z" fill="#4675b4" stroke="#4675b4" stroke-width="1.51"/><path d="M1793,276L1777,370L1969,387Z" fill="#b5ada5" stroke="#b5ada5" stroke-width="1.51"/><path d="M1792,511L1966,544L1969,387Z" fill="#adb3b4" stroke="#adb3b4" stroke-width="1.51"/><path d="M1777,370L1792,511L1969,387Z" fill="#b4b6b0" stroke="#b4b6b0" stroke-width="1.51"/><path d="M1793,276L1969,387L1974,210Z" fill="#b19d9a" stroke="#b19d9a" stroke-width="1.51"/><path d="M1904,94L1793,276L1974,210Z" fill="#b5918e" stroke="#b5918e" stroke-width="1.51"/><path d="M1540,-259L1630,-235L1797,-265Z" fill="#ab6f78" stroke="#ab6f78" stroke-width="1.51"/><path d="M1934,735L1787,793L1939,863Z" fill="#8aafd4" stroke="#8aafd4" stroke-width="1.51"/><path d="M1797,-265L1836,-78L1959,-191Z" fill="#a45d6f" stroke="#a45d6f" stroke-width="1.51"/><path d="M1781,98L1793,276L1904,94Z" fill="#bb928d" stroke="#bb928d" stroke-width="1.51"/><path d="M1790,992L1838,1138L1951,1022Z" fill="#6195c5" stroke="#6195c5" stroke-width="1.51"/><path d="M1838,1138L1753,1235L1925,1302Z" fill="#4d79b7" stroke="#4d79b7" stroke-width="1.51"/><path d="M1787,793L1790,992L1939,863Z" fill="#80aed3" stroke="#80aed3" stroke-width="1.51"/><path d="M1772,719L1787,793L1934,735Z" fill="#97b9da" stroke="#97b9da" stroke-width="1.51"/><path d="M1903,-43L1781,98L1904,94Z" fill="#b87b81" stroke="#b87b81" stroke-width="1.51"/><path d="M1836,-78L1781,98L1903,-43Z" fill="#b7757d" stroke="#b7757d" stroke-width="1.51"/><path d="M1648,708L1772,719L1792,511Z" fill="#aecad7" stroke="#aecad7" stroke-width="1.51"/><path d="M1781,98L1670,234L1793,276Z" fill="#c2a497" stroke="#c2a497" stroke-width="1.51"/><path d="M1591,-23L1781,98L1836,-78Z" fill="#c08382" stroke="#c08382" stroke-width="1.51"/><path d="M1797,-265L1630,-235L1836,-78Z" fill="#ac6974" stroke="#ac6974" stroke-width="1.51"/><path d="M1630,-235L1591,-23L1836,-78Z" fill="#be7a7a" stroke="#be7a7a" stroke-width="1.51"/><path d="M1790,992L1649,1152L1838,1138Z" fill="#6599c7" stroke="#6599c7" stroke-width="1.51"/><path d="M1649,1152L1753,1235L1838,1138Z" fill="#5b8dc1" stroke="#5b8dc1" stroke-width="1.51"/><path d="M1668,493L1648,708L1792,511Z" fill="#bad1cd" stroke="#bad1cd" stroke-width="1.51"/><path d="M1591,-23L1640,128L1781,98Z" fill="#c9968d" stroke="#c9968d" stroke-width="1.51"/><path d="M1640,128L1670,234L1781,98Z" fill="#c7a294" stroke="#c7a294" stroke-width="1.51"/><path d="M1612,804L1612,982L1787,793Z" fill="#93c5de" stroke="#93c5de" stroke-width="1.51"/><path d="M1612,982L1649,1152L1790,992Z" fill="#72abd0" stroke="#72abd0" stroke-width="1.51"/><path d="M1787,793L1612,982L1790,992Z" fill="#83b6d6" stroke="#83b6d6" stroke-width="1.51"/><path d="M1777,370L1668,493L1792,511Z" fill="#bcc5ba" stroke="#bcc5ba" stroke-width="1.51"/><path d="M1670,234L1777,370L1793,276Z" fill="#bfb1a3" stroke="#bfb1a3" stroke-width="1.51"/><path d="M1772,719L1648,708L1787,793Z" fill="#a1c6df" stroke="#a1c6df" stroke-width="1.51"/><path d="M1648,708L1612,804L1787,793Z" fill="#a1cae2" stroke="#a1cae2" stroke-width="1.51"/><path d="M1670,234L1606,381L1777,370Z" fill="#c4bfab" stroke="#c4bfab" stroke-width="1.51"/><path d="M1606,381L1668,493L1777,370Z" fill="#c2c9b8" stroke="#c2c9b8" stroke-width="1.51"/><path d="M1649,1152L1588,1280L1753,1235Z" fill="#5f8dc2" stroke="#5f8dc2" stroke-width="1.51"/><path d="M770,-177L878,-171L1013,-184Z" fill="#ea9668" stroke="#ea9668" stroke-width="1.51"/><path d="M1538,-76L1591,-23L1630,-235Z" fill="#c8837e" stroke="#c8837e" stroke-width="1.51"/><path d="M1591,-23L1520,55L1640,128Z" fill="#d29b8f" stroke="#d29b8f" stroke-width="1.51"/><path d="M1612,982L1464,1119L1649,1152Z" fill="#7aaed2" stroke="#7aaed2" stroke-width="1.51"/><path d="M1606,381L1508,407L1668,493Z" fill="#cbd3be" stroke="#cbd3be" stroke-width="1.51"/><path d="M1479,676L1648,708L1668,493Z" fill="#bedadb" stroke="#bedadb" stroke-width="1.51"/><path d="M1456,548L1479,676L1668,493Z" fill="#cbe2d6" stroke="#cbe2d6" stroke-width="1.51"/><path d="M1640,128L1462,230L1670,234Z" fill="#d1b49e" stroke="#d1b49e" stroke-width="1.51"/><path d="M1462,230L1606,381L1670,234Z" fill="#d0c2a9" stroke="#d0c2a9" stroke-width="1.51"/><path d="M1508,407L1456,548L1668,493Z" fill="#cfddc8" stroke="#cfddc8" stroke-width="1.51"/><path d="M1530,789L1462,976L1612,982Z" fill="#99cae1" stroke="#99cae1" stroke-width="1.51"/><path d="M1530,789L1612,982L1612,804Z" fill="#9dcce3" stroke="#9dcce3" stroke-width="1.51"/><path d="M1540,-259L1538,-76L1630,-235Z" fill="#be7c7d" stroke="#be7c7d" stroke-width="1.51"/><path d="M1530,789L1612,804L1648,708Z" fill="#abd2e5" stroke="#abd2e5" stroke-width="1.51"/><path d="M1464,1119L1588,1280L1649,1152Z" fill="#6e9dca" stroke="#6e9dca" stroke-width="1.51"/><path d="M1479,676L1530,789L1648,708Z" fill="#b7daea" stroke="#b7daea" stroke-width="1.51"/><path d="M1520,55L1462,230L1640,128Z" fill="#d6ae9a" stroke="#d6ae9a" stroke-width="1.51"/><path d="M423,-262L548,-213L770,-177Z" fill="#de784b" stroke="#de784b" stroke-width="1.51"/><path d="M1462,230L1508,407L1606,381Z" fill="#d3cfb4" stroke="#d3cfb4" stroke-width="1.51"/><path d="M1462,976L1464,1119L1612,982Z" fill="#89bdda" stroke="#89bdda" stroke-width="1.51"/><path d="M-148,-251L145,-229L423,-262Z" fill="#cc382e" stroke="#cc382e" stroke-width="1.51"/><path d="M1464,1119L1449,1317L1588,1280Z" fill="#7398c8" stroke="#7398c8" stroke-width="1.51"/><path d="M1538,-76L1520,55L1591,-23Z" fill="#d1948a" stroke="#d1948a" stroke-width="1.51"/><path d="M1326,143L1462,230L1520,55Z" fill="#e0b89e" stroke="#e0b89e" stroke-width="1.51"/><path d="M1300,872L1462,976L1530,789Z" fill="#abd8e9" stroke="#abd8e9" stroke-width="1.51"/><path d="M1370,-40L1520,55L1538,-76Z" fill="#d8998c" stroke="#d8998c" stroke-width="1.51"/><path d="M1367,-210L1370,-40L1538,-76Z" fill="#d79185" stroke="#d79185" stroke-width="1.51"/><path d="M1367,-210L1538,-76L1540,-259Z" fill="#c78581" stroke="#c78581" stroke-width="1.51"/><path d="M1330,287L1367,419L1462,230Z" fill="#e2d6b6" stroke="#e2d6b6" stroke-width="1.51"/><path d="M1462,230L1367,419L1508,407Z" fill="#dbd8b9" stroke="#dbd8b9" stroke-width="1.51"/><path d="M1376,709L1300,872L1530,789Z" fill="#bde1ee" stroke="#bde1ee" stroke-width="1.51"/><path d="M1479,676L1376,709L1530,789Z" fill="#c0e2ef" stroke="#c0e2ef" stroke-width="1.51"/><path d="M1367,419L1456,548L1508,407Z" fill="#d9e4c9" stroke="#d9e4c9" stroke-width="1.51"/><path d="M1370,-40L1326,143L1520,55Z" fill="#e4a996" stroke="#e4a996" stroke-width="1.51"/><path d="M1342,1312L1449,1317L1464,1119Z" fill="#7c9ccb" stroke="#7c9ccb" stroke-width="1.51"/><path d="M1329,1118L1342,1312L1464,1119Z" fill="#84acd2" stroke="#84acd2" stroke-width="1.51"/><path d="M1462,976L1330,1028L1464,1119Z" fill="#92c3dd" stroke="#92c3dd" stroke-width="1.51"/><path d="M1456,548L1353,568L1479,676Z" fill="#d4eadf" stroke="#d4eadf" stroke-width="1.51"/><path d="M1353,568L1376,709L1479,676Z" fill="#d0eae9" stroke="#d0eae9" stroke-width="1.51"/><path d="M1367,419L1353,568L1456,548Z" fill="#deecd2" stroke="#deecd2" stroke-width="1.51"/><path d="M1300,872L1330,1028L1462,976Z" fill="#a5d1e5" stroke="#a5d1e5" stroke-width="1.51"/><path d="M1330,1028L1329,1118L1464,1119Z" fill="#91bcdb" stroke="#91bcdb" stroke-width="1.51"/><path d="M1326,143L1330,287L1462,230Z" fill="#e5c9a9" stroke="#e5c9a9" stroke-width="1.51"/><path d="M1329,1118L1168,1164L1342,1312Z" fill="#8eaed4" stroke="#8eaed4" stroke-width="1.51"/><path d="M1168,1164L1173,1294L1342,1312Z" fill="#91a4d0" stroke="#91a4d0" stroke-width="1.51"/><path d="M1215,382L1171,574L1353,568Z" fill="#edf3d6" stroke="#edf3d6" stroke-width="1.51"/><path d="M1215,382L1353,568L1367,419Z" fill="#e7ebcd" stroke="#e7ebcd" stroke-width="1.51"/><path d="M1330,287L1215,382L1367,419Z" fill="#e9e2bf" stroke="#e9e2bf" stroke-width="1.51"/><path d="M1145,-209L1154,-64L1367,-210Z" fill="#e29589" stroke="#e29589" stroke-width="1.51"/><path d="M1210,70L1326,143L1370,-40Z" fill="#edaf99" stroke="#edaf99" stroke-width="1.51"/><path d="M1367,-210L1154,-64L1370,-40Z" fill="#e49789" stroke="#e49789" stroke-width="1.51"/><path d="M1353,568L1180,639L1376,709Z" fill="#ddf0ea" stroke="#ddf0ea" stroke-width="1.51"/><path d="M1180,639L1300,872L1376,709Z" fill="#d1ecf4" stroke="#d1ecf4" stroke-width="1.51"/><path d="M1154,-64L1210,70L1370,-40Z" fill="#eea794" stroke="#eea794" stroke-width="1.51"/><path d="M1180,639L1204,884L1300,872Z" fill="#ceeaf3" stroke="#ceeaf3" stroke-width="1.51"/><path d="M1300,872L1236,1030L1330,1028Z" fill="#abd2e5" stroke="#abd2e5" stroke-width="1.51"/><path d="M1326,143L1178,191L1330,287Z" fill="#efcca9" stroke="#efcca9" stroke-width="1.51"/><path d="M1171,574L1180,639L1353,568Z" fill="#e8f5e4" stroke="#e8f5e4" stroke-width="1.51"/><path d="M1204,884L1236,1030L1300,872Z" fill="#b7dbea" stroke="#b7dbea" stroke-width="1.51"/><path d="M1236,1030L1329,1118L1330,1028Z" fill="#9ec6df" stroke="#9ec6df" stroke-width="1.51"/><path d="M1178,191L1215,382L1330,287Z" fill="#f1dab6" stroke="#f1dab6" stroke-width="1.51"/><path d="M1236,1030L1168,1164L1329,1118Z" fill="#9ec0dd" stroke="#9ec0dd" stroke-width="1.51"/><path d="M1210,70L1178,191L1326,143Z" fill="#f3c0a3" stroke="#f3c0a3" stroke-width="1.51"/><path d="M1180,639L1069,813L1204,884Z" fill="#d8eeef" stroke="#d8eeef" stroke-width="1.51"/><path d="M897,1270L712,1311L1014,1296Z" fill="#a79eac" stroke="#a79eac" stroke-width="1.51"/><path d="M1053,704L1069,813L1180,639Z" fill="#e5f4ec" stroke="#e5f4ec" stroke-width="1.51"/><path d="M1001,495L1171,574L1215,382Z" fill="#f6f5cb" stroke="#f6f5cb" stroke-width="1.51"/><path d="M1033,373L1001,495L1215,382Z" fill="#f9f0bd" stroke="#f9f0bd" stroke-width="1.51"/><path d="M1178,191L1033,373L1215,382Z" fill="#f8e2b4" stroke="#f8e2b4" stroke-width="1.51"/><path d="M990,1107L1168,1164L1236,1030Z" fill="#a9c5d7" stroke="#a9c5d7" stroke-width="1.51"/><path d="M1014,945L990,1107L1236,1030Z" fill="#b7d3d8" stroke="#b7d3d8" stroke-width="1.51"/><path d="M1204,884L1014,945L1236,1030Z" fill="#bddce5" stroke="#bddce5" stroke-width="1.51"/><path d="M995,257L1033,373L1178,191Z" fill="#fbdda6" stroke="#fbdda6" stroke-width="1.51"/><path d="M986,39L1178,191L1210,70Z" fill="#fabe98" stroke="#fabe98" stroke-width="1.51"/><path d="M1154,-64L986,39L1210,70Z" fill="#f8b08e" stroke="#f8b08e" stroke-width="1.51"/><path d="M1047,-70L986,39L1154,-64Z" fill="#f7aa84" stroke="#f7aa84" stroke-width="1.51"/><path d="M1069,813L1014,945L1204,884Z" fill="#cde7e4" stroke="#cde7e4" stroke-width="1.51"/><path d="M1145,-209L1047,-70L1154,-64Z" fill="#ef9d81" stroke="#ef9d81" stroke-width="1.51"/><path d="M1168,1164L1014,1296L1173,1294Z" fill="#9ca8c8" stroke="#9ca8c8" stroke-width="1.51"/><path d="M986,39L995,257L1178,191Z" fill="#fdcb96" stroke="#fdcb96" stroke-width="1.51"/><path d="M1171,574L1053,704L1180,639Z" fill="#ecf7e5" stroke="#ecf7e5" stroke-width="1.51"/><path d="M1013,-184L1047,-70L1145,-209Z" fill="#eb997b" stroke="#eb997b" stroke-width="1.51"/><path d="M990,1107L1014,1296L1168,1164Z" fill="#a5b7c7" stroke="#a5b7c7" stroke-width="1.51"/><path d="M1001,495L1053,704L1171,574Z" fill="#f5fad6" stroke="#f5fad6" stroke-width="1.51"/><path d="M990,1107L897,1270L1014,1296Z" fill="#a9b2ba" stroke="#a9b2ba" stroke-width="1.51"/><path d="M1001,495L876,556L1053,704Z" fill="#fbfdc9" stroke="#fbfdc9" stroke-width="1.51"/><path d="M876,556L882,729L1053,704Z" fill="#f5f9d2" stroke="#f5f9d2" stroke-width="1.51"/><path d="M915,862L1014,945L1069,813Z" fill="#d5eada" stroke="#d5eada" stroke-width="1.51"/><path d="M1053,704L882,729L1069,813Z" fill="#e7f4df" stroke="#e7f4df" stroke-width="1.51"/><path d="M882,729L915,862L1069,813Z" fill="#e2f1d7" stroke="#e2f1d7" stroke-width="1.51"/><path d="M986,39L892,39L995,257Z" fill="#ffc486" stroke="#ffc486" stroke-width="1.51"/><path d="M908,948L990,1107L1014,945Z" fill="#c4d9cd" stroke="#c4d9cd" stroke-width="1.51"/><path d="M1013,-184L930,-41L1047,-70Z" fill="#f5a276" stroke="#f5a276" stroke-width="1.51"/><path d="M930,-41L986,39L1047,-70Z" fill="#faae7c" stroke="#faae7c" stroke-width="1.51"/><path d="M878,-171L930,-41L1013,-184Z" fill="#f29d6d" stroke="#f29d6d" stroke-width="1.51"/><path d="M995,257L840,286L1033,373Z" fill="#ffe49d" stroke="#ffe49d" stroke-width="1.51"/><path d="M840,286L876,445L1033,373Z" fill="#ffeba2" stroke="#ffeba2" stroke-width="1.51"/><path d="M876,445L1001,495L1033,373Z" fill="#fff5b1" stroke="#fff5b1" stroke-width="1.51"/><path d="M892,39L840,286L995,257Z" fill="#ffd089" stroke="#ffd089" stroke-width="1.51"/><path d="M915,862L908,948L1014,945Z" fill="#d1e4d0" stroke="#d1e4d0" stroke-width="1.51"/><path d="M831,1113L897,1270L990,1107Z" fill="#b0bab9" stroke="#b0bab9" stroke-width="1.51"/><path d="M908,948L831,1113L990,1107Z" fill="#bdcec2" stroke="#bdcec2" stroke-width="1.51"/><path d="M876,445L876,556L1001,495Z" fill="#fff8b5" stroke="#fff8b5" stroke-width="1.51"/><path d="M930,-41L892,39L986,39Z" fill="#fdb279" stroke="#fdb279" stroke-width="1.51"/><path d="M688,47L700,263L840,286Z" fill="#ffc779" stroke="#ffc779" stroke-width="1.51"/><path d="M876,556L761,704L882,729Z" fill="#f6f2c9" stroke="#f6f2c9" stroke-width="1.51"/><path d="M688,47L840,286L892,39Z" fill="#ffbd78" stroke="#ffbd78" stroke-width="1.51"/><path d="M717,-73L892,39L930,-41Z" fill="#faa76e" stroke="#faa76e" stroke-width="1.51"/><path d="M878,-171L717,-73L930,-41Z" fill="#f59c66" stroke="#f59c66" stroke-width="1.51"/><path d="M770,-177L717,-73L878,-171Z" fill="#ef935f" stroke="#ef935f" stroke-width="1.51"/><path d="M831,1113L750,1143L897,1270Z" fill="#b0b3b1" stroke="#b0b3b1" stroke-width="1.51"/><path d="M710,949L831,1113L908,948Z" fill="#c6d0be" stroke="#c6d0be" stroke-width="1.51"/><path d="M725,888L908,948L915,862Z" fill="#d5e1c8" stroke="#d5e1c8" stroke-width="1.51"/><path d="M882,729L725,888L915,862Z" fill="#e0e8cb" stroke="#e0e8cb" stroke-width="1.51"/><path d="M761,704L725,888L882,729Z" fill="#e8e8c8" stroke="#e8e8c8" stroke-width="1.51"/><path d="M725,888L710,949L908,948Z" fill="#d2d8c0" stroke="#d2d8c0" stroke-width="1.51"/><path d="M840,286L724,392L876,445Z" fill="#ffe699" stroke="#ffe699" stroke-width="1.51"/><path d="M749,495L876,556L876,445Z" fill="#fff3ac" stroke="#fff3ac" stroke-width="1.51"/><path d="M750,1143L712,1311L897,1270Z" fill="#aca4a8" stroke="#aca4a8" stroke-width="1.51"/><path d="M717,-73L688,47L892,39Z" fill="#fba669" stroke="#fba669" stroke-width="1.51"/><path d="M749,495L761,704L876,556Z" fill="#fcf3b7" stroke="#fcf3b7" stroke-width="1.51"/><path d="M724,392L749,495L876,445Z" fill="#ffeaa0" stroke="#ffeaa0" stroke-width="1.51"/><path d="M688,47L634,111L700,263Z" fill="#fdb56d" stroke="#fdb56d" stroke-width="1.51"/><path d="M710,949L750,1143L831,1113Z" fill="#bec3b4" stroke="#bec3b4" stroke-width="1.51"/><path d="M700,263L724,392L840,286Z" fill="#ffd98a" stroke="#ffd98a" stroke-width="1.51"/><path d="M575,1131L712,1311L750,1143Z" fill="#b0a5a2" stroke="#b0a5a2" stroke-width="1.51"/><path d="M710,949L575,1131L750,1143Z" fill="#bfbaab" stroke="#bfbaab" stroke-width="1.51"/><path d="M537,830L725,888L761,704Z" fill="#e5ddbc" stroke="#e5ddbc" stroke-width="1.51"/><path d="M554,665L537,830L761,704Z" fill="#f1ddb9" stroke="#f1ddb9" stroke-width="1.51"/><path d="M749,495L561,550L761,704Z" fill="#fcebac" stroke="#fcebac" stroke-width="1.51"/><path d="M561,550L554,665L761,704Z" fill="#fae2af" stroke="#fae2af" stroke-width="1.51"/><path d="M548,-213L717,-73L770,-177Z" fill="#ea8855" stroke="#ea8855" stroke-width="1.51"/><path d="M385,1299L287,1329L595,1338Z" fill="#a96f80" stroke="#a96f80" stroke-width="1.51"/><path d="M634,111L624,241L700,263Z" fill="#ffbf71" stroke="#ffbf71" stroke-width="1.51"/><path d="M550,979L575,1131L710,949Z" fill="#c7bda9" stroke="#c7bda9" stroke-width="1.51"/><path d="M724,392L561,550L749,495Z" fill="#ffe59b" stroke="#ffe59b" stroke-width="1.51"/><path d="M624,241L565,359L700,263Z" fill="#ffca7a" stroke="#ffca7a" stroke-width="1.51"/><path d="M575,1131L595,1338L712,1311Z" fill="#ad9297" stroke="#ad9297" stroke-width="1.51"/><path d="M530,-24L688,47L717,-73Z" fill="#f7975b" stroke="#f7975b" stroke-width="1.51"/><path d="M700,263L565,359L724,392Z" fill="#fed585" stroke="#fed585" stroke-width="1.51"/><path d="M565,359L561,550L724,392Z" fill="#ffdb8e" stroke="#ffdb8e" stroke-width="1.51"/><path d="M537,830L710,949L725,888Z" fill="#d9d3b6" stroke="#d9d3b6" stroke-width="1.51"/><path d="M537,830L550,979L710,949Z" fill="#d6caae" stroke="#d6caae" stroke-width="1.51"/><path d="M548,-213L530,-24L717,-73Z" fill="#ef864f" stroke="#ef864f" stroke-width="1.51"/><path d="M530,-24L634,111L688,47Z" fill="#fc9e5f" stroke="#fc9e5f" stroke-width="1.51"/><path d="M465,508L561,550L565,359Z" fill="#ffd68b" stroke="#ffd68b" stroke-width="1.51"/><path d="M575,1131L385,1299L595,1338Z" fill="#af898d" stroke="#af898d" stroke-width="1.51"/><path d="M530,-24L465,37L634,111Z" fill="#fa9557" stroke="#fa9557" stroke-width="1.51"/><path d="M441,269L624,241L634,111Z" fill="#feb769" stroke="#feb769" stroke-width="1.51"/><path d="M465,37L441,269L634,111Z" fill="#fca45d" stroke="#fca45d" stroke-width="1.51"/><path d="M455,1117L385,1299L575,1131Z" fill="#b5938f" stroke="#b5938f" stroke-width="1.51"/><path d="M441,269L565,359L624,241Z" fill="#fec172" stroke="#fec172" stroke-width="1.51"/><path d="M405,-96L530,-24L548,-213Z" fill="#ed7945" stroke="#ed7945" stroke-width="1.51"/><path d="M438,704L537,830L554,665Z" fill="#f2d1ae" stroke="#f2d1ae" stroke-width="1.51"/><path d="M550,979L455,1117L575,1131Z" fill="#c2ab9c" stroke="#c2ab9c" stroke-width="1.51"/><path d="M537,830L445,964L550,979Z" fill="#d7bfa5" stroke="#d7bfa5" stroke-width="1.51"/><path d="M465,508L554,665L561,550Z" fill="#ffda9a" stroke="#ffda9a" stroke-width="1.51"/><path d="M421,359L465,508L565,359Z" fill="#ffcb7e" stroke="#ffcb7e" stroke-width="1.51"/><path d="M410,878L445,964L537,830Z" fill="#dcbfa3" stroke="#dcbfa3" stroke-width="1.51"/><path d="M445,964L455,1117L550,979Z" fill="#c9b09c" stroke="#c9b09c" stroke-width="1.51"/><path d="M465,508L438,704L554,665Z" fill="#fbd49f" stroke="#fbd49f" stroke-width="1.51"/><path d="M441,269L421,359L565,359Z" fill="#fec071" stroke="#fec071" stroke-width="1.51"/><path d="M423,-262L405,-96L548,-213Z" fill="#e06c41" stroke="#e06c41" stroke-width="1.51"/><path d="M438,704L410,878L537,830Z" fill="#e9c6a7" stroke="#e9c6a7" stroke-width="1.51"/><path d="M405,-96L465,37L530,-24Z" fill="#f3824a" stroke="#f3824a" stroke-width="1.51"/><path d="M331,-185L405,-96L423,-262Z" fill="#e0633d" stroke="#e0633d" stroke-width="1.51"/><path d="M330,710L410,878L438,704Z" fill="#efc1a4" stroke="#efc1a4" stroke-width="1.51"/><path d="M295,533L330,710L438,704Z" fill="#fac39a" stroke="#fac39a" stroke-width="1.51"/><path d="M278,105L287,219L441,269Z" fill="#fb9957" stroke="#fb9957" stroke-width="1.51"/><path d="M445,964L256,1084L455,1117Z" fill="#c59f92" stroke="#c59f92" stroke-width="1.51"/><path d="M256,1084L385,1299L455,1117Z" fill="#b78888" stroke="#b78888" stroke-width="1.51"/><path d="M295,533L438,704L465,508Z" fill="#ffcb91" stroke="#ffcb91" stroke-width="1.51"/><path d="M421,359L295,533L465,508Z" fill="#ffc57f" stroke="#ffc57f" stroke-width="1.51"/><path d="M405,-96L295,-36L465,37Z" fill="#f17645" stroke="#f17645" stroke-width="1.51"/><path d="M295,-36L278,105L465,37Z" fill="#f67b48" stroke="#f67b48" stroke-width="1.51"/><path d="M278,105L441,269L465,37Z" fill="#fb9554" stroke="#fb9554" stroke-width="1.51"/><path d="M94,1286L-70,1344L287,1329Z" fill="#a24a6b" stroke="#a24a6b" stroke-width="1.51"/><path d="M243,990L256,1084L445,964Z" fill="#cc9d90" stroke="#cc9d90" stroke-width="1.51"/><path d="M243,404L295,533L421,359Z" fill="#ffb976" stroke="#ffb976" stroke-width="1.51"/><path d="M145,-229L331,-185L423,-262Z" fill="#d75138" stroke="#d75138" stroke-width="1.51"/><path d="M410,878L243,990L445,964Z" fill="#d6ac98" stroke="#d6ac98" stroke-width="1.51"/><path d="M287,219L421,359L441,269Z" fill="#fdad65" stroke="#fdad65" stroke-width="1.51"/><path d="M256,1084L287,1329L385,1299Z" fill="#b0747f" stroke="#b0747f" stroke-width="1.51"/><path d="M330,710L236,805L410,878Z" fill="#eab69d" stroke="#eab69d" stroke-width="1.51"/><path d="M287,219L243,404L421,359Z" fill="#fdab66" stroke="#fdab66" stroke-width="1.51"/><path d="M236,805L243,990L410,878Z" fill="#ddaa97" stroke="#ddaa97" stroke-width="1.51"/><path d="M331,-185L295,-36L405,-96Z" fill="#ea643c" stroke="#ea643c" stroke-width="1.51"/><path d="M256,1084L94,1286L287,1329Z" fill="#af6979" stroke="#af6979" stroke-width="1.51"/><path d="M108,531L106,719L295,533Z" fill="#faaf84" stroke="#faaf84" stroke-width="1.51"/><path d="M295,533L106,719L330,710Z" fill="#fab493" stroke="#fab493" stroke-width="1.51"/><path d="M106,719L236,805L330,710Z" fill="#f0ad98" stroke="#f0ad98" stroke-width="1.51"/><path d="M125,-74L295,-36L331,-185Z" fill="#e85737" stroke="#e85737" stroke-width="1.51"/><path d="M145,-229L125,-74L331,-185Z" fill="#dd4832" stroke="#dd4832" stroke-width="1.51"/><path d="M102,1093L94,1286L256,1084Z" fill="#b4737b" stroke="#b4737b" stroke-width="1.51"/><path d="M89,208L243,404L287,219Z" fill="#f99559" stroke="#f99559" stroke-width="1.51"/><path d="M278,105L150,70L287,219Z" fill="#f77f4a" stroke="#f77f4a" stroke-width="1.51"/><path d="M150,70L89,208L287,219Z" fill="#f47f4a" stroke="#f47f4a" stroke-width="1.51"/><path d="M150,70L278,105L295,-36Z" fill="#f46e43" stroke="#f46e43" stroke-width="1.51"/><path d="M125,-74L150,70L295,-36Z" fill="#ec5e3b" stroke="#ec5e3b" stroke-width="1.51"/><path d="M243,404L108,531L295,533Z" fill="#feb076" stroke="#feb076" stroke-width="1.51"/><path d="M236,805L143,996L243,990Z" fill="#d69b8e" stroke="#d69b8e" stroke-width="1.51"/><path d="M89,208L106,432L243,404Z" fill="#f79b5f" stroke="#f79b5f" stroke-width="1.51"/><path d="M106,432L108,531L243,404Z" fill="#faa76d" stroke="#faa76d" stroke-width="1.51"/><path d="M81,815L143,996L236,805Z" fill="#dc9d8f" stroke="#dc9d8f" stroke-width="1.51"/><path d="M243,990L143,996L256,1084Z" fill="#c98f89" stroke="#c98f89" stroke-width="1.51"/><path d="M143,996L102,1093L256,1084Z" fill="#c28583" stroke="#c28583" stroke-width="1.51"/><path d="M-148,-251L19,-190L145,-229Z" fill="#c72528" stroke="#c72528" stroke-width="1.51"/><path d="M106,719L81,815L236,805Z" fill="#e8a291" stroke="#e8a291" stroke-width="1.51"/><path d="M25,1114L94,1286L102,1093Z" fill="#b06975" stroke="#b06975" stroke-width="1.51"/><path d="M89,208L8,240L106,432Z" fill="#f28a52" stroke="#f28a52" stroke-width="1.51"/><path d="M8,240L-51,379L106,432Z" fill="#f18f57" stroke="#f18f57" stroke-width="1.51"/><path d="M-1,532L106,719L108,531Z" fill="#f5a57d" stroke="#f5a57d" stroke-width="1.51"/><path d="M-61,-76L-45,97L125,-74Z" fill="#e14630" stroke="#e14630" stroke-width="1.51"/><path d="M81,815L-48,985L143,996Z" fill="#cf8c84" stroke="#cf8c84" stroke-width="1.51"/><path d="M19,-190L125,-74L145,-229Z" fill="#d63a2c" stroke="#d63a2c" stroke-width="1.51"/><path d="M125,-74L-45,97L150,70Z" fill="#e95838" stroke="#e95838" stroke-width="1.51"/><path d="M-45,97L89,208L150,70Z" fill="#ed6b3f" stroke="#ed6b3f" stroke-width="1.51"/><path d="M-1,532L-33,711L106,719Z" fill="#f09e84" stroke="#f09e84" stroke-width="1.51"/><path d="M-48,985L102,1093L143,996Z" fill="#c2817f" stroke="#c2817f" stroke-width="1.51"/><path d="M-48,985L25,1114L102,1093Z" fill="#bb7679" stroke="#bb7679" stroke-width="1.51"/><path d="M106,432L-1,532L108,531Z" fill="#f7a36e" stroke="#f7a36e" stroke-width="1.51"/><path d="M19,-190L-61,-76L125,-74Z" fill="#d93629" stroke="#d93629" stroke-width="1.51"/><path d="M-22,784L-48,985L81,815Z" fill="#d78f84" stroke="#d78f84" stroke-width="1.51"/><path d="M-22,784L81,815L106,719Z" fill="#e59a8b" stroke="#e59a8b" stroke-width="1.51"/><path d="M-33,711L-22,784L106,719Z" fill="#e8998a" stroke="#e8998a" stroke-width="1.51"/><path d="M-45,97L8,240L89,208Z" fill="#ec7141" stroke="#ec7141" stroke-width="1.51"/><path d="M25,1114L-70,1344L94,1286Z" fill="#a4536b" stroke="#a4536b" stroke-width="1.51"/><path d="M-51,379L-1,532L106,432Z" fill="#f39964" stroke="#f39964" stroke-width="1.51"/><path d="M-117,1320L-70,1344L25,1114Z" fill="#9d4b68" stroke="#9d4b68" stroke-width="1.51"/><path d="M-154,843L-48,985L-22,784Z" fill="#cd8983" stroke="#cd8983" stroke-width="1.51"/><path d="M-51,379L-110,438L-1,532Z" fill="#ed9462" stroke="#ed9462" stroke-width="1.51"/><path d="M-152,636L-33,711L-1,532Z" fill="#e9997d" stroke="#e9997d" stroke-width="1.51"/><path d="M-165,1130L-117,1320L25,1114Z" fill="#a0586d" stroke="#a0586d" stroke-width="1.51"/><path d="M-118,1037L-165,1130L25,1114Z" fill="#ad6974" stroke="#ad6974" stroke-width="1.51"/><path d="M-48,985L-118,1037L25,1114Z" fill="#b77478" stroke="#b77478" stroke-width="1.51"/><path d="M-148,-251L-61,-76L19,-190Z" fill="#c82527" stroke="#c82527" stroke-width="1.51"/><path d="M-137,81L-218,247L-45,97Z" fill="#db5f3d" stroke="#db5f3d" stroke-width="1.51"/><path d="M-61,-76L-137,81L-45,97Z" fill="#dc4a34" stroke="#dc4a34" stroke-width="1.51"/><path d="M-45,97L-218,247L8,240Z" fill="#e26d41" stroke="#e26d41" stroke-width="1.51"/><path d="M-218,247L-51,379L8,240Z" fill="#e57d4d" stroke="#e57d4d" stroke-width="1.51"/><path d="M-110,438L-179,540L-1,532Z" fill="#e99669" stroke="#e99669" stroke-width="1.51"/><path d="M-179,540L-152,636L-1,532Z" fill="#e79773" stroke="#e79773" stroke-width="1.51"/><path d="M-33,711L-154,843L-22,784Z" fill="#da9086" stroke="#da9086" stroke-width="1.51"/><path d="M-148,-251L-202,-72L-61,-76Z" fill="#c62427" stroke="#c62427" stroke-width="1.51"/><path d="M-152,636L-154,843L-33,711Z" fill="#db9088" stroke="#db9088" stroke-width="1.51"/><path d="M-202,-72L-137,81L-61,-76Z" fill="#d13c2f" stroke="#d13c2f" stroke-width="1.51"/><path d="M-218,247L-110,438L-51,379Z" fill="#e28555" stroke="#e28555" stroke-width="1.51"/><path d="M-154,843L-118,1037L-48,985Z" fill="#be7c7d" stroke="#be7c7d" stroke-width="1.51"/><path d="M-218,247L-179,540L-110,438Z" fill="#df885c" stroke="#df885c" stroke-width="1.51"/><path d="M-154,843L-165,1130L-118,1037Z" fill="#b2747a" stroke="#b2747a" stroke-width="1.51"/><path d="M-202,-72L-218,247L-137,81Z" fill="#d44f37" stroke="#d44f37" stroke-width="1.51"/><path d="M-179,540L-154,843L-152,636Z" fill="#db9083" stroke="#db9083" stroke-width="1.51"/><path d="M-179,540L-165,1130L-154,843Z" fill="#c78683" stroke="#c78683" stroke-width="1.51"/><path d="M-179,540L-218,247L-165,1130Z" fill="#db907d" stroke="#db907d" stroke-width="1.51"/></svg>