<svg xmlns="http://www.w3.org/2000/svg" width="1920" height="1080"><path d="M287,1329L-70,1344L595,1338Z" fill="#797f8b" stroke="#797f8b" stroke-width="1.51"/><path d="M712,1311L595,1338L1014,1296Z" fill="#466f92" stroke="#466f92" stroke-width="1.51"/><path d="M1173,1294L1014,1296L1342,1312Z" fill="#265d95" stroke="#265d95" stroke-width="1.51"/><path d="M1014,1296L595,1338L1342,1312Z" fill="#306794" stroke="#306794" stroke-width="1.51"/><path d="M1342,1312L595,1338L1449,1317Z" fill="#275f92" stroke="#275f92" stroke-width="1.51"/><path d="M423,-262L1145,-209L1540,-259Z" fill="#a9d4cb" stroke="#a9d4cb" stroke-width="1.51"/><path d="M423,-262L1540,-259L1797,-265Z" fill="#a3c6cc" stroke="#a3c6cc" stroke-width="1.51"/><path d="M1588,1280L1449,1317L1925,1302Z" fill="#1c3a85" stroke="#1c3a85" stroke-width="1.51"/><path d="M1939,863L1951,1022L2039,835Z" fill="#214a94" stroke="#214a94" stroke-width="1.51"/><path d="M2052,91L1974,210L2070,266Z" fill="#6e7e95" stroke="#6e7e95" stroke-width="1.51"/><path d="M2039,835L1951,1022L2085,1037Z" fill="#1d418c" stroke="#1d418c" stroke-width="1.51"/><path d="M2081,726L2039,835L2085,1037Z" fill="#1e4a8d" stroke="#1e4a8d" stroke-width="1.51"/><path d="M1797,-265L1959,-191L2106,-246Z" fill="#968eaa" stroke="#968eaa" stroke-width="1.51"/><path d="M1959,-191L2048,-46L2106,-246Z" fill="#8d889a" stroke="#8d889a" stroke-width="1.51"/><path d="M2052,91L2070,266L2106,-246Z" fill="#7e828f" stroke="#7e828f" stroke-width="1.51"/><path d="M2048,-46L2052,91L2106,-246Z" fill="#888590" stroke="#888590" stroke-width="1.51"/><path d="M1449,1317L595,1338L2107,1342Z" fill="#1c4d8a" stroke="#1c4d8a" stroke-width="1.51"/><path d="M1925,1302L1449,1317L2107,1342Z" fill="#1a2d7d" stroke="#1a2d7d" stroke-width="1.51"/><path d="M2043,1124L1967,1173L2107,1342Z" fill="#192a7a" stroke="#192a7a" stroke-width="1.51"/><path d="M1967,1173L1925,1302L2107,1342Z" fill="#172874" stroke="#172874" stroke-width="1.51"/><path d="M2085,1037L2043,1124L2107,1342Z" fill="#1a2b7c" stroke="#1a2b7c" stroke-width="1.51"/><path d="M1966,544L2081,726L2114,558Z" fill="#2e6497" stroke="#2e6497" stroke-width="1.51"/><path d="M2040,418L1966,544L2114,558Z" fill="#3a6d99" stroke="#3a6d99" stroke-width="1.51"/><path d="M2070,266L2040,418L2114,558Z" fill="#466f93" stroke="#466f93" stroke-width="1.51"/><path d="M2106,-246L2070,266L2114,558Z" fill="#697a8e" stroke="#697a8e" stroke-width="1.51"/><path d="M2085,1037L2107,1342L2114,558Z" fill="#1a3c83" stroke="#1a3c83" stroke-width="1.51"/><path d="M2081,726L2085,1037L2114,558Z" fill="#1e5490" stroke="#1e5490" stroke-width="1.51"/><path d="M1969,387L2040,418L2070,266Z" fill="#517497" stroke="#517497" stroke-width="1.51"/><path d="M1966,544L1934,735L2081,726Z" fill="#2c639d" stroke="#2c639d" stroke-width="1.51"/><path d="M1934,735L2039,835L2081,726Z" fill="#235998" stroke="#235998" stroke-width="1.51"/><path d="M1951,1022L2043,1124L2085,1037Z" fill="#1e3787" stroke="#1e3787" stroke-width="1.51"/><path d="M2048,-46L1903,-43L2052,91Z" fill="#868797" stroke="#868797" stroke-width="1.51"/><path d="M1903,-43L1904,94L2052,91Z" fill="#85889d" stroke="#85889d" stroke-width="1.51"/><path d="M1974,210L1969,387L2070,266Z" fill="#5e7999" stroke="#5e7999" stroke-width="1.51"/><path d="M1969,387L1966,544L2040,418Z" fill="#46729d" stroke="#46729d" stroke-width="1.51"/><path d="M1959,-191L1903,-43L2048,-46Z" fill="#908a9b" stroke="#908a9b" stroke-width="1.51"/><path d="M1904,94L1974,210L2052,91Z" fill="#7b849a" stroke="#7b849a" stroke-width="1.51"/><path d="M1934,735L1939,863L2039,835Z" fill="#24559a" stroke="#24559a" stroke-width="1.51"/><path d="M1951,1022L1967,1173L2043,1124Z" fill="#203489" stroke="#203489" stroke-width="1.51"/><path d="M423,-262L770,-177L1013,-184Z" fill="#b9e1c4" stroke="#b9e1c4" stroke-width="1.51"/><path d="M423,-262L1013,-184L1145,-209Z" fill="#b1ddc7" stroke="#b1ddc7" stroke-width="1.51"/><path d="M1145,-209L1367,-210L1540,-259Z" fill="#a0bdc5" stroke="#a0bdc5" stroke-width="1.51"/><path d="M1753,1235L1588,1280L1925,1302Z" fill="#1e3586" stroke="#1e3586" stroke-width="1.51"/><path d="M1939,863L1790,992L1951,1022Z" fill="#24479a" stroke="#24479a" stroke-width="1.51"/><path d="M1836,-78L1903,-43L1959,-191Z" fill="#958ea4" stroke="#958ea4" stroke-width="1.51"/><path d="M1772,719L1934,735L1966,544Z" fill="#3268a8" stroke="#3268a8" stroke-width="1.51"/><path d="M1792,511L1772,719L1966,544Z" fill="#3a70ac" stroke="#3a70ac" stroke-width="1.51"/><path d="M1951,1022L1838,1138L1967,1173Z" fill="#233690" stroke="#233690" stroke-width="1.51"/><path d="M1838,1138L1925,1302L1967,1173Z" fill="#203088" stroke="#203088" stroke-width="1.51"/><path d="M1793,276L1777,370L1969,387Z" fill="#5c7ea9" stroke="#5c7ea9" stroke-width="1.51"/><path d="M1792,511L1966,544L1969,387Z" fill="#4674a7" stroke="#4674a7" stroke-width="1.51"/><path d="M1777,370L1792,511L1969,387Z" fill="#517aab" stroke="#517aab" stroke-width="1.51"/><path d="M1793,276L1969,387L1974,210Z" fill="#637ea3" stroke="#637ea3" stroke-width="1.51"/><path d="M1904,94L1793,276L1974,210Z" fill="#7685a4" stroke="#7685a4" stroke-width="1.51"/><path d="M1540,-259L1630,-235L1797,-265Z" fill="#9da2bc" stroke="#9da2bc" stroke-width="1.51"/><path d="M1934,735L1787,793L1939,863Z" fill="#295ba4" stroke="#295ba4" stroke-width="1.51"/><path d="M1797,-265L1836,-78L1959,-191Z" fill="#9a91ae" stroke="#9a91ae" stroke-width="1.51"/><path d="M1781,98L1793,276L1904,94Z" fill="#7f8ba8" stroke="#7f8ba8" stroke-width="1.51"/><path d="M1790,992L1838,1138L1951,1022Z" fill="#263f99" stroke="#263f99" stroke-width="1.51"/><path d="M1838,1138L1753,1235L1925,1302Z" fill="#20318a" stroke="#20318a" stroke-width="1.51"/><path d="M1787,793L1790,992L1939,863Z" fill="#2853a3" stroke="#2853a3" stroke-width="1.51"/><path d="M1772,719L1787,793L1934,735Z" fill="#2b64ab" stroke="#2b64ab" stroke-width="1.51"/><path d="M1903,-43L1781,98L1904,94Z" fill="#8b8ca6" stroke="#8b8ca6" stroke-width="1.51"/><path d="M1836,-78L1781,98L1903,-43Z" fill="#908fa7" stroke="#908fa7" stroke-width="1.51"/><path d="M1648,708L1772,719L1792,511Z" fill="#3373af" stroke="#3373af" stroke-width="1.51"/><path d="M1781,98L1670,234L1793,276Z" fill="#778eab" stroke="#778eab" stroke-width="1.51"/><path d="M1591,-23L1781,98L1836,-78Z" fill="#9097aa" stroke="#9097aa" stroke-width="1.51"/><path d="M1797,-265L1630,-235L1836,-78Z" fill="#9b9ab3" stroke="#9b9ab3" stroke-width="1.51"/><path d="M1630,-235L1591,-23L1836,-78Z" fill="#999eae" stroke="#999eae" stroke-width="1.51"/><path d="M1790,992L1649,1152L1838,1138Z" fill="#26419a" stroke="#26419a" stroke-width="1.51"/><path d="M1649,1152L1753,1235L1838,1138Z" fill="#253b95" stroke="#253b95" stroke-width="1.51"/><path d="M1668,493L1648,708L1792,511Z" fill="#397cb1" stroke="#397cb1" stroke-width="1.51"/><path d="M1591,-23L1640,128L1781,98Z" fill="#8a9aad" stroke="#8a9aad" stroke-width="1.51"/><path d="M1640,128L1670,234L1781,98Z" fill="#7f94ac" stroke="#7f94ac" stroke-width="1.51"/><path d="M1612,804L1612,982L1787,793Z" fill="#2662aa" stroke="#2662aa" stroke-width="1.51"/><path d="M1612,982L1649,1152L1790,992Z" fill="#264c9f" stroke="#264c9f" stroke-width="1.51"/><path d="M1787,793L1612,982L1790,992Z" fill="#2656a5" stroke="#2656a5" stroke-width="1.51"/><path d="M1777,370L1668,493L1792,511Z" fill="#4b80af" stroke="#4b80af" stroke-width="1.51"/><path d="M1670,234L1777,370L1793,276Z" fill="#6588ac" stroke="#6588ac" stroke-width="1.51"/><path d="M1772,719L1648,708L1787,793Z" fill="#2a6cae" stroke="#2a6cae" stroke-width="1.51"/><path d="M1648,708L1612,804L1787,793Z" fill="#286caf" stroke="#286caf" stroke-width="1.51"/><path d="M1670,234L1606,381L1777,370Z" fill="#5d8baf" stroke="#5d8baf" stroke-width="1.51"/><path d="M1606,381L1668,493L1777,370Z" fill="#5187b0" stroke="#5187b0" stroke-width="1.51"/><path d="M1649,1152L1588,1280L1753,1235Z" fill="#213e91" stroke="#213e91" stroke-width="1.51"/><path d="M770,-177L878,-171L1013,-184Z" fill="#aedbc4" stroke="#aedbc4" stroke-width="1.51"/><path d="M1538,-76L1591,-23L1630,-235Z" fill="#99a5b1" stroke="#99a5b1" stroke-width="1.51"/><path d="M1591,-23L1520,55L1640,128Z" fill="#8ba1af" stroke="#8ba1af" stroke-width="1.51"/><path d="M1612,982L1464,1119L1649,1152Z" fill="#2550a1" stroke="#2550a1" stroke-width="1.51"/><path d="M1606,381L1508,407L1668,493Z" fill="#4d8cb3" stroke="#4d8cb3" stroke-width="1.51"/><path d="M1479,676L1648,708L1668,493Z" fill="#317fb4" stroke="#317fb4" stroke-width="1.51"/><path d="M1456,548L1479,676L1668,493Z" fill="#3588b7" stroke="#3588b7" stroke-width="1.51"/><path d="M1640,128L1462,230L1670,234Z" fill="#779ab0" stroke="#779ab0" stroke-width="1.51"/><path d="M1462,230L1606,381L1670,234Z" fill="#6795b1" stroke="#6795b1" stroke-width="1.51"/><path d="M1508,407L1456,548L1668,493Z" fill="#438db6" stroke="#438db6" stroke-width="1.51"/><path d="M1530,789L1462,976L1612,982Z" fill="#2364ab" stroke="#2364ab" stroke-width="1.51"/><path d="M1530,789L1612,982L1612,804Z" fill="#2468ad" stroke="#2468ad" stroke-width="1.51"/><path d="M1540,-259L1538,-76L1630,-235Z" fill="#9ca8b9" stroke="#9ca8b9" stroke-width="1.51"/><path d="M1530,789L1612,804L1648,708Z" fill="#2472b2" stroke="#2472b2" stroke-width="1.51"/><path d="M1464,1119L1588,1280L1649,1152Z" fill="#24479a" stroke="#24479a" stroke-width="1.51"/><path d="M1479,676L1530,789L1648,708Z" fill="#267ab5" stroke="#267ab5" stroke-width="1.51"/><path d="M1520,55L1462,230L1640,128Z" fill="#82a1b1" stroke="#82a1b1" stroke-width="1.51"/><path d="M423,-262L548,-213L770,-177Z" fill="#c8e9c3" stroke="#c8e9c3" stroke-width="1.51"/><path d="M1462,230L1508,407L1606,381Z" fill="#5a96b4" stroke="#5a96b4" stroke-width="1.51"/><path d="M1462,976L1464,1119L1612,982Z" fill="#255aa7" stroke="#255aa7" stroke-width="1.51"/><path d="M-148,-251L145,-229L423,-262Z" fill="#f0f9c2" stroke="#f0f9c2" stroke-width="1.51"/><path d="M1464,1119L1449,1317L1588,1280Z" fill="#214994" stroke="#214994" stroke-width="1.51"/><path d="M1538,-76L1520,55L1591,-23Z" fill="#92a6b0" stroke="#92a6b0" stroke-width="1.51"/><path d="M1326,143L1462,230L1520,55Z" fill="#82abb5" stroke="#82abb5" stroke-width="1.51"/><path d="M1300,872L1462,976L1530,789Z" fill="#2372b2" stroke="#2372b2" stroke-width="1.51"/><path d="M1370,-40L1520,55L1538,-76Z" fill="#94adb3" stroke="#94adb3" stroke-width="1.51"/><path d="M1367,-210L1370,-40L1538,-76Z" fill="#9cb4b7" stroke="#9cb4b7" stroke-width="1.51"/><path d="M1367,-210L1538,-76L1540,-259Z" fill="#9db0bb" stroke="#9db0bb" stroke-width="1.51"/><path d="M1330,287L1367,419L1462,230Z" fill="#61a4b9" stroke="#61a4b9" stroke-width="1.51"/><path d="M1462,230L1367,419L1508,407Z" fill="#589db7" stroke="#589db7" stroke-width="1.51"/><path d="M1376,709L1300,872L1530,789Z" fill="#227fb8" stroke="#227fb8" stroke-width="1.51"/><path d="M1479,676L1376,709L1530,789Z" fill="#2581b8" stroke="#2581b8" stroke-width="1.51"/><path d="M1367,419L1456,548L1508,407Z" fill="#4798b9" stroke="#4798b9" stroke-width="1.51"/><path d="M1370,-40L1326,143L1520,55Z" fill="#8db1b5" stroke="#8db1b5" stroke-width="1.51"/><path d="M1342,1312L1449,1317L1464,1119Z" fill="#224f96" stroke="#224f96" stroke-width="1.51"/><path d="M1329,1118L1342,1312L1464,1119Z" fill="#2957a2" stroke="#2957a2" stroke-width="1.51"/><path d="M1462,976L1330,1028L1464,1119Z" fill="#2761a9" stroke="#2761a9" stroke-width="1.51"/><path d="M1456,548L1353,568L1479,676Z" fill="#3190bb" stroke="#3190bb" stroke-width="1.51"/><path d="M1353,568L1376,709L1479,676Z" fill="#2c8dbc" stroke="#2c8dbc" stroke-width="1.51"/><path d="M1367,419L1353,568L1456,548Z" fill="#3c99bc" stroke="#3c99bc" stroke-width="1.51"/><path d="M1300,872L1330,1028L1462,976Z" fill="#236eb0" stroke="#236eb0" stroke-width="1.51"/><path d="M1330,1028L1329,1118L1464,1119Z" fill="#2860a9" stroke="#2860a9" stroke-width="1.51"/><path d="M1326,143L1330,287L1462,230Z" fill="#74abb8" stroke="#74abb8" stroke-width="1.51"/><path d="M1329,1118L1168,1164L1342,1312Z" fill="#295ea3" stroke="#295ea3" stroke-width="1.51"/><path d="M1168,1164L1173,1294L1342,1312Z" fill="#265e9b" stroke="#265e9b" stroke-width="1.51"/><path d="M1215,382L1171,574L1353,568Z" fill="#3ca6c2" stroke="#3ca6c2" stroke-width="1.51"/><path d="M1215,382L1353,568L1367,419Z" fill="#46a3be" stroke="#46a3be" stroke-width="1.51"/><path d="M1330,287L1215,382L1367,419Z" fill="#56a9bc" stroke="#56a9bc" stroke-width="1.51"/><path d="M1145,-209L1154,-64L1367,-210Z" fill="#a1c7c2" stroke="#a1c7c2" stroke-width="1.51"/><path d="M1210,70L1326,143L1370,-40Z" fill="#8ebaba" stroke="#8ebaba" stroke-width="1.51"/><path d="M1367,-210L1154,-64L1370,-40Z" fill="#9dc0bb" stroke="#9dc0bb" stroke-width="1.51"/><path d="M1353,568L1180,639L1376,709Z" fill="#2b97c0" stroke="#2b97c0" stroke-width="1.51"/><path d="M1180,639L1300,872L1376,709Z" fill="#1f8fbf" stroke="#1f8fbf" stroke-width="1.51"/><path d="M1154,-64L1210,70L1370,-40Z" fill="#96c1bb" stroke="#96c1bb" stroke-width="1.51"/><path d="M1180,639L1204,884L1300,872Z" fill="#228cbd" stroke="#228cbd" stroke-width="1.51"/><path d="M1300,872L1236,1030L1330,1028Z" fill="#2472b2" stroke="#2472b2" stroke-width="1.51"/><path d="M1326,143L1178,191L1330,287Z" fill="#77b5bc" stroke="#77b5bc" stroke-width="1.51"/><path d="M1171,574L1180,639L1353,568Z" fill="#30a0c2" stroke="#30a0c2" stroke-width="1.51"/><path d="M1204,884L1236,1030L1300,872Z" fill="#247bb6" stroke="#247bb6" stroke-width="1.51"/><path d="M1236,1030L1329,1118L1330,1028Z" fill="#2869ae" stroke="#2869ae" stroke-width="1.51"/><path d="M1178,191L1215,382L1330,287Z" fill="#66b2be" stroke="#66b2be" stroke-width="1.51"/><path d="M1236,1030L1168,1164L1329,1118Z" fill="#2c69ad" stroke="#2c69ad" stroke-width="1.51"/><path d="M1210,70L1178,191L1326,143Z" fill="#86bdbb" stroke="#86bdbb" stroke-width="1.51"/><path d="M1180,639L1069,813L1204,884Z" fill="#2893bf" stroke="#2893bf" stroke-width="1.51"/><path d="M897,1270L712,1311L1014,1296Z" fill="#3e6d97" stroke="#3e6d97" stroke-width="1.51"/><path d="M1053,704L1069,813L1180,639Z" fill="#2d9dc2" stroke="#2d9dc2" stroke-width="1.51"/><path d="M1001,495L1171,574L1215,382Z" fill="#45aec2" stroke="#45aec2" stroke-width="1.51"/><path d="M1033,373L1001,495L1215,382Z" fill="#54b5c1" stroke="#54b5c1" stroke-width="1.51"/><path d="M1178,191L1033,373L1215,382Z" fill="#63b7be" stroke="#63b7be" stroke-width="1.51"/><path d="M990,1107L1168,1164L1236,1030Z" fill="#3370ae" stroke="#3370ae" stroke-width="1.51"/><path d="M1014,945L990,1107L1236,1030Z" fill="#347ab2" stroke="#347ab2" stroke-width="1.51"/><path d="M1204,884L1014,945L1236,1030Z" fill="#2c7eb5" stroke="#2c7eb5" stroke-width="1.51"/><path d="M995,257L1033,373L1178,191Z" fill="#6fbebe" stroke="#6fbebe" stroke-width="1.51"/><path d="M986,39L1178,191L1210,70Z" fill="#8ec5bc" stroke="#8ec5bc" stroke-width="1.51"/><path d="M1154,-64L986,39L1210,70Z" fill="#97c9bb" stroke="#97c9bb" stroke-width="1.51"/><path d="M1047,-70L986,39L1154,-64Z" fill="#9ecebc" stroke="#9ecebc" stroke-width="1.51"/><path d="M1069,813L1014,945L1204,884Z" fill="#2e8ab9" stroke="#2e8ab9" stroke-width="1.51"/><path d="M1145,-209L1047,-70L1154,-64Z" fill="#a2cdbe" stroke="#a2cdbe" stroke-width="1.51"/><path d="M1168,1164L1014,1296L1173,1294Z" fill="#2e649d" stroke="#2e649d" stroke-width="1.51"/><path d="M986,39L995,257L1178,191Z" fill="#87c6bd" stroke="#87c6bd" stroke-width="1.51"/><path d="M1171,574L1053,704L1180,639Z" fill="#32a2c2" stroke="#32a2c2" stroke-width="1.51"/><path d="M1013,-184L1047,-70L1145,-209Z" fill="#a5d1c3" stroke="#a5d1c3" stroke-width="1.51"/><path d="M990,1107L1014,1296L1168,1164Z" fill="#376ca7" stroke="#376ca7" stroke-width="1.51"/><path d="M1001,495L1053,704L1171,574Z" fill="#38aac3" stroke="#38aac3" stroke-width="1.51"/><path d="M990,1107L897,1270L1014,1296Z" fill="#396ea2" stroke="#396ea2" stroke-width="1.51"/><path d="M1001,495L876,556L1053,704Z" fill="#3eb1c4" stroke="#3eb1c4" stroke-width="1.51"/><path d="M876,556L882,729L1053,704Z" fill="#3dacc3" stroke="#3dacc3" stroke-width="1.51"/><path d="M915,862L1014,945L1069,813Z" fill="#3490bb" stroke="#3490bb" stroke-width="1.51"/><path d="M1053,704L882,729L1069,813Z" fill="#30a0c2" stroke="#30a0c2" stroke-width="1.51"/><path d="M882,729L915,862L1069,813Z" fill="#359cbf" stroke="#359cbf" stroke-width="1.51"/><path d="M986,39L892,39L995,257Z" fill="#92d0bd" stroke="#92d0bd" stroke-width="1.51"/><path d="M908,948L990,1107L1014,945Z" fill="#3983b4" stroke="#3983b4" stroke-width="1.51"/><path d="M1013,-184L930,-41L1047,-70Z" fill="#a5d4be" stroke="#a5d4be" stroke-width="1.51"/><path d="M930,-41L986,39L1047,-70Z" fill="#9fd3bc" stroke="#9fd3bc" stroke-width="1.51"/><path d="M878,-171L930,-41L1013,-184Z" fill="#a9d8c0" stroke="#a9d8c0" stroke-width="1.51"/><path d="M995,257L840,286L1033,373Z" fill="#6bc3bf" stroke="#6bc3bf" stroke-width="1.51"/><path d="M840,286L876,445L1033,373Z" fill="#64c1c0" stroke="#64c1c0" stroke-width="1.51"/><path d="M876,445L1001,495L1033,373Z" fill="#54bbc2" stroke="#54bbc2" stroke-width="1.51"/><path d="M892,39L840,286L995,257Z" fill="#87cdbd" stroke="#87cdbd" stroke-width="1.51"/><path d="M915,862L908,948L1014,945Z" fill="#398eb8" stroke="#398eb8" stroke-width="1.51"/><path d="M831,1113L897,1270L990,1107Z" fill="#4575ab" stroke="#4575ab" stroke-width="1.51"/><path d="M908,948L831,1113L990,1107Z" fill="#4380b1" stroke="#4380b1" stroke-width="1.51"/><path d="M876,445L876,556L1001,495Z" fill="#4fbac3" stroke="#4fbac3" stroke-width="1.51"/><path d="M930,-41L892,39L986,39Z" fill="#9ed4bb" stroke="#9ed4bb" stroke-width="1.51"/><path d="M688,47L700,263L840,286Z" fill="#93d3bb" stroke="#93d3bb" stroke-width="1.51"/><path d="M876,556L761,704L882,729Z" fill="#4aafc2" stroke="#4aafc2" stroke-width="1.51"/><path d="M688,47L840,286L892,39Z" fill="#9bd5ba" stroke="#9bd5ba" stroke-width="1.51"/><path d="M717,-73L892,39L930,-41Z" fill="#a8d9ba" stroke="#a8d9ba" stroke-width="1.51"/><path d="M878,-171L717,-73L930,-41Z" fill="#aedcbb" stroke="#aedcbb" stroke-width="1.51"/><path d="M770,-177L717,-73L878,-171Z" fill="#b4debf" stroke="#b4debf" stroke-width="1.51"/><path d="M831,1113L750,1143L897,1270Z" fill="#4c77a8" stroke="#4c77a8" stroke-width="1.51"/><path d="M710,949L831,1113L908,948Z" fill="#4c89b2" stroke="#4c89b2" stroke-width="1.51"/><path d="M725,888L908,948L915,862Z" fill="#4694b8" stroke="#4694b8" stroke-width="1.51"/><path d="M882,729L725,888L915,862Z" fill="#469dbc" stroke="#469dbc" stroke-width="1.51"/><path d="M761,704L725,888L882,729Z" fill="#4ca6be" stroke="#4ca6be" stroke-width="1.51"/><path d="M725,888L710,949L908,948Z" fill="#4e93b6" stroke="#4e93b6" stroke-width="1.51"/><path d="M840,286L724,392L876,445Z" fill="#6dc4bf" stroke="#6dc4bf" stroke-width="1.51"/><path d="M749,495L876,556L876,445Z" fill="#59bdc1" stroke="#59bdc1" stroke-width="1.51"/><path d="M750,1143L712,1311L897,1270Z" fill="#4b749d" stroke="#4b749d" stroke-width="1.51"/><path d="M717,-73L688,47L892,39Z" fill="#abdbb9" stroke="#abdbb9" stroke-width="1.51"/><path d="M749,495L761,704L876,556Z" fill="#54b8c1" stroke="#54b8c1" stroke-width="1.51"/><path d="M724,392L749,495L876,445Z" fill="#66c2c0" stroke="#66c2c0" stroke-width="1.51"/><path d="M688,47L634,111L700,263Z" fill="#a2d9b8" stroke="#a2d9b8" stroke-width="1.51"/><path d="M710,949L750,1143L831,1113Z" fill="#5384ae" stroke="#5384ae" stroke-width="1.51"/><path d="M700,263L724,392L840,286Z" fill="#7bcbbc" stroke="#7bcbbc" stroke-width="1.51"/><path d="M575,1131L712,1311L750,1143Z" fill="#597ba4" stroke="#597ba4" stroke-width="1.51"/><path d="M710,949L575,1131L750,1143Z" fill="#5b86ad" stroke="#5b86ad" stroke-width="1.51"/><path d="M537,830L725,888L761,704Z" fill="#5aa6bb" stroke="#5aa6bb" stroke-width="1.51"/><path d="M554,665L537,830L761,704Z" fill="#62b1be" stroke="#62b1be" stroke-width="1.51"/><path d="M749,495L561,550L761,704Z" fill="#60bcc0" stroke="#60bcc0" stroke-width="1.51"/><path d="M561,550L554,665L761,704Z" fill="#65babe" stroke="#65babe" stroke-width="1.51"/><path d="M548,-213L717,-73L770,-177Z" fill="#bce3be" stroke="#bce3be" stroke-width="1.51"/><path d="M385,1299L287,1329L595,1338Z" fill="#6d7c8e" stroke="#6d7c8e" stroke-width="1.51"/><path d="M634,111L624,241L700,263Z" fill="#98d6b9" stroke="#98d6b9" stroke-width="1.51"/><path d="M550,979L575,1131L710,949Z" fill="#638eaf" stroke="#638eaf" stroke-width="1.51"/><path d="M724,392L561,550L749,495Z" fill="#6bc4bf" stroke="#6bc4bf" stroke-width="1.51"/><path d="M624,241L565,359L700,263Z" fill="#8cd2ba" stroke="#8cd2ba" stroke-width="1.51"/><path d="M575,1131L595,1338L712,1311Z" fill="#5a7899" stroke="#5a7899" stroke-width="1.51"/><path d="M530,-24L688,47L717,-73Z" fill="#b5e0b7" stroke="#b5e0b7" stroke-width="1.51"/><path d="M700,263L565,359L724,392Z" fill="#7fcdbb" stroke="#7fcdbb" stroke-width="1.51"/><path d="M565,359L561,550L724,392Z" fill="#79c9bd" stroke="#79c9bd" stroke-width="1.51"/><path d="M537,830L710,949L725,888Z" fill="#5b9cb6" stroke="#5b9cb6" stroke-width="1.51"/><path d="M537,830L550,979L710,949Z" fill="#649bb4" stroke="#649bb4" stroke-width="1.51"/><path d="M548,-213L530,-24L717,-73Z" fill="#c1e6b8" stroke="#c1e6b8" stroke-width="1.51"/><path d="M530,-24L634,111L688,47Z" fill="#b2e0b7" stroke="#b2e0b7" stroke-width="1.51"/><path d="M465,508L561,550L565,359Z" fill="#81cbbd" stroke="#81cbbd" stroke-width="1.51"/><path d="M575,1131L385,1299L595,1338Z" fill="#687c99" stroke="#687c99" stroke-width="1.51"/><path d="M530,-24L465,37L634,111Z" fill="#bbe3b6" stroke="#bbe3b6" stroke-width="1.51"/><path d="M441,269L624,241L634,111Z" fill="#a2dab8" stroke="#a2dab8" stroke-width="1.51"/><path d="M465,37L441,269L634,111Z" fill="#b4e1b6" stroke="#b4e1b6" stroke-width="1.51"/><path d="M455,1117L385,1299L575,1131Z" fill="#7484a4" stroke="#7484a4" stroke-width="1.51"/><path d="M441,269L565,359L624,241Z" fill="#97d5b9" stroke="#97d5b9" stroke-width="1.51"/><path d="M405,-96L530,-24L548,-213Z" fill="#cdeab7" stroke="#cdeab7" stroke-width="1.51"/><path d="M438,704L537,830L554,665Z" fill="#73b6bd" stroke="#73b6bd" stroke-width="1.51"/><path d="M550,979L455,1117L575,1131Z" fill="#6f8cac" stroke="#6f8cac" stroke-width="1.51"/><path d="M537,830L445,964L550,979Z" fill="#719eb3" stroke="#719eb3" stroke-width="1.51"/><path d="M465,508L554,665L561,550Z" fill="#78c4be" stroke="#78c4be" stroke-width="1.51"/><path d="M421,359L465,508L565,359Z" fill="#8ed1bb" stroke="#8ed1bb" stroke-width="1.51"/><path d="M410,878L445,964L537,830Z" fill="#77a4b4" stroke="#77a4b4" stroke-width="1.51"/><path d="M445,964L455,1117L550,979Z" fill="#7493ae" stroke="#7493ae" stroke-width="1.51"/><path d="M465,508L438,704L554,665Z" fill="#7bc1bd" stroke="#7bc1bd" stroke-width="1.51"/><path d="M441,269L421,359L565,359Z" fill="#98d6b9" stroke="#98d6b9" stroke-width="1.51"/><path d="M423,-262L405,-96L548,-213Z" fill="#d4eebe" stroke="#d4eebe" stroke-width="1.51"/><path d="M438,704L410,878L537,830Z" fill="#78afb9" stroke="#78afb9" stroke-width="1.51"/><path d="M405,-96L465,37L530,-24Z" fill="#cae9b5" stroke="#cae9b5" stroke-width="1.51"/><path d="M331,-185L405,-96L423,-262Z" fill="#dcf1bd" stroke="#dcf1bd" stroke-width="1.51"/><path d="M330,710L410,878L438,704Z" fill="#82b8bb" stroke="#82b8bb" stroke-width="1.51"/><path d="M295,533L330,710L438,704Z" fill="#8cc5bc" stroke="#8cc5bc" stroke-width="1.51"/><path d="M278,105L287,219L441,269Z" fill="#bde4b6" stroke="#bde4b6" stroke-width="1.51"/><path d="M445,964L256,1084L455,1117Z" fill="#8094ac" stroke="#8094ac" stroke-width="1.51"/><path d="M256,1084L385,1299L455,1117Z" fill="#8289a6" stroke="#8289a6" stroke-width="1.51"/><path d="M295,533L438,704L465,508Z" fill="#89c9bd" stroke="#89c9bd" stroke-width="1.51"/><path d="M421,359L295,533L465,508Z" fill="#94d2bb" stroke="#94d2bb" stroke-width="1.51"/><path d="M405,-96L295,-36L465,37Z" fill="#d3edb4" stroke="#d3edb4" stroke-width="1.51"/><path d="M295,-36L278,105L465,37Z" fill="#d1edb4" stroke="#d1edb4" stroke-width="1.51"/><path d="M278,105L441,269L465,37Z" fill="#c2e7b5" stroke="#c2e7b5" stroke-width="1.51"/><path d="M94,1286L-70,1344L287,1329Z" fill="#85848d" stroke="#85848d" stroke-width="1.51"/><path d="M243,990L256,1084L445,964Z" fill="#879bad" stroke="#879bad" stroke-width="1.51"/><path d="M243,404L295,533L421,359Z" fill="#9ed6ba" stroke="#9ed6ba" stroke-width="1.51"/><path d="M145,-229L331,-185L423,-262Z" fill="#e5f5c0" stroke="#e5f5c0" stroke-width="1.51"/><path d="M410,878L243,990L445,964Z" fill="#83a1b1" stroke="#83a1b1" stroke-width="1.51"/><path d="M287,219L421,359L441,269Z" fill="#abddb7" stroke="#abddb7" stroke-width="1.51"/><path d="M256,1084L287,1329L385,1299Z" fill="#7f859a" stroke="#7f859a" stroke-width="1.51"/><path d="M330,710L236,805L410,878Z" fill="#89b6b9" stroke="#89b6b9" stroke-width="1.51"/><path d="M287,219L243,404L421,359Z" fill="#aadcb8" stroke="#aadcb8" stroke-width="1.51"/><path d="M236,805L243,990L410,878Z" fill="#89aab3" stroke="#89aab3" stroke-width="1.51"/><path d="M331,-185L295,-36L405,-96Z" fill="#dcf2b5" stroke="#dcf2b5" stroke-width="1.51"/><path d="M256,1084L94,1286L287,1329Z" fill="#86889b" stroke="#86889b" stroke-width="1.51"/><path d="M108,531L106,719L295,533Z" fill="#9bcfbc" stroke="#9bcfbc" stroke-width="1.51"/><path d="M295,533L106,719L330,710Z" fill="#94c7bc" stroke="#94c7bc" stroke-width="1.51"/><path d="M106,719L236,805L330,710Z" fill="#91bfbb" stroke="#91bfbb" stroke-width="1.51"/><path d="M125,-74L295,-36L331,-185Z" fill="#e2f4b4" stroke="#e2f4b4" stroke-width="1.51"/><path d="M145,-229L125,-74L331,-185Z" fill="#e8f6b9" stroke="#e8f6b9" stroke-width="1.51"/><path d="M102,1093L94,1286L256,1084Z" fill="#918ea6" stroke="#918ea6" stroke-width="1.51"/><path d="M89,208L243,404L287,219Z" fill="#b9e3b6" stroke="#b9e3b6" stroke-width="1.51"/><path d="M278,105L150,70L287,219Z" fill="#cfebb4" stroke="#cfebb4" stroke-width="1.51"/><path d="M150,70L89,208L287,219Z" fill="#cdebb4" stroke="#cdebb4" stroke-width="1.51"/><path d="M150,70L278,105L295,-36Z" fill="#d6efb3" stroke="#d6efb3" stroke-width="1.51"/><path d="M125,-74L150,70L295,-36Z" fill="#dff2b2" stroke="#dff2b2" stroke-width="1.51"/><path d="M243,404L108,531L295,533Z" fill="#a0d6bb" stroke="#a0d6bb" stroke-width="1.51"/><path d="M236,805L143,996L243,990Z" fill="#8fa6b1" stroke="#8fa6b1" stroke-width="1.51"/><path d="M89,208L106,432L243,404Z" fill="#b3dfb7" stroke="#b3dfb7" stroke-width="1.51"/><path d="M106,432L108,531L243,404Z" fill="#a8d9ba" stroke="#a8d9ba" stroke-width="1.51"/><path d="M81,815L143,996L236,805Z" fill="#93b0b4" stroke="#93b0b4" stroke-width="1.51"/><path d="M243,990L143,996L256,1084Z" fill="#8e9cad" stroke="#8e9cad" stroke-width="1.51"/><path d="M143,996L102,1093L256,1084Z" fill="#9199ab" stroke="#9199ab" stroke-width="1.51"/><path d="M-148,-251L19,-190L145,-229Z" fill="#f5fbc3" stroke="#f5fbc3" stroke-width="1.51"/><path d="M106,719L81,815L236,805Z" fill="#96bdb9" stroke="#96bdb9" stroke-width="1.51"/><path d="M25,1114L94,1286L102,1093Z" fill="#958fa5" stroke="#958fa5" stroke-width="1.51"/><path d="M89,208L8,240L106,432Z" fill="#c0e5b6" stroke="#c0e5b6" stroke-width="1.51"/><path d="M8,240L-51,379L106,432Z" fill="#b9e2b9" stroke="#b9e2b9" stroke-width="1.51"/><path d="M-1,532L106,719L108,531Z" fill="#a3d1bb" stroke="#a3d1bb" stroke-width="1.51"/><path d="M-61,-76L-45,97L125,-74Z" fill="#e9f7b5" stroke="#e9f7b5" stroke-width="1.51"/><path d="M81,815L-48,985L143,996Z" fill="#99aab0" stroke="#99aab0" stroke-width="1.51"/><path d="M19,-190L125,-74L145,-229Z" fill="#eff9b9" stroke="#eff9b9" stroke-width="1.51"/><path d="M125,-74L-45,97L150,70Z" fill="#e2f3b2" stroke="#e2f3b2" stroke-width="1.51"/><path d="M-45,97L89,208L150,70Z" fill="#daf0b3" stroke="#daf0b3" stroke-width="1.51"/><path d="M-1,532L-33,711L106,719Z" fill="#a2ccbd" stroke="#a2ccbd" stroke-width="1.51"/><path d="M-48,985L102,1093L143,996Z" fill="#979fac" stroke="#979fac" stroke-width="1.51"/><path d="M-48,985L25,1114L102,1093Z" fill="#989bac" stroke="#989bac" stroke-width="1.51"/><path d="M106,432L-1,532L108,531Z" fill="#a9d9ba" stroke="#a9d9ba" stroke-width="1.51"/><path d="M19,-190L-61,-76L125,-74Z" fill="#f0f9b7" stroke="#f0f9b7" stroke-width="1.51"/><path d="M-22,784L-48,985L81,815Z" fill="#9bb4b8" stroke="#9bb4b8" stroke-width="1.51"/><path d="M-22,784L81,815L106,719Z" fill="#9cbfba" stroke="#9cbfba" stroke-width="1.51"/><path d="M-33,711L-22,784L106,719Z" fill="#9ec4bd" stroke="#9ec4bd" stroke-width="1.51"/><path d="M-45,97L8,240L89,208Z" fill="#d4eeb7" stroke="#d4eeb7" stroke-width="1.51"/><path d="M25,1114L-70,1344L94,1286Z" fill="#8f8a9b" stroke="#8f8a9b" stroke-width="1.51"/><path d="M-51,379L-1,532L106,432Z" fill="#b0dcbc" stroke="#b0dcbc" stroke-width="1.51"/><path d="M-117,1320L-70,1344L25,1114Z" fill="#8f8a9d" stroke="#8f8a9d" stroke-width="1.51"/><path d="M-154,843L-48,985L-22,784Z" fill="#9db3bc" stroke="#9db3bc" stroke-width="1.51"/><path d="M-51,379L-110,438L-1,532Z" fill="#b2ddc1" stroke="#b2ddc1" stroke-width="1.51"/><path d="M-152,636L-33,711L-1,532Z" fill="#a4d0c3" stroke="#a4d0c3" stroke-width="1.51"/><path d="M-165,1130L-117,1320L25,1114Z" fill="#978faa" stroke="#978faa" stroke-width="1.51"/><path d="M-118,1037L-165,1130L25,1114Z" fill="#9b98b2" stroke="#9b98b2" stroke-width="1.51"/><path d="M-48,985L-118,1037L25,1114Z" fill="#9a9eb2" stroke="#9a9eb2" stroke-width="1.51"/><path d="M-148,-251L-61,-76L19,-190Z" fill="#f5fbc2" stroke="#f5fbc2" stroke-width="1.51"/><path d="M-137,81L-218,247L-45,97Z" fill="#def2c0" stroke="#def2c0" stroke-width="1.51"/><path d="M-61,-76L-137,81L-45,97Z" fill="#e7f6bb" stroke="#e7f6bb" stroke-width="1.51"/><path d="M-45,97L-218,247L8,240Z" fill="#d4eebd" stroke="#d4eebd" stroke-width="1.51"/><path d="M-218,247L-51,379L8,240Z" fill="#c5e7c0" stroke="#c5e7c0" stroke-width="1.51"/><path d="M-110,438L-179,540L-1,532Z" fill="#addbc5" stroke="#addbc5" stroke-width="1.51"/><path d="M-179,540L-152,636L-1,532Z" fill="#a8d6c6" stroke="#a8d6c6" stroke-width="1.51"/><path d="M-33,711L-154,843L-22,784Z" fill="#9fc0c1" stroke="#9fc0c1" stroke-width="1.51"/><path d="M-148,-251L-202,-72L-61,-76Z" fill="#f6fcc4" stroke="#f6fcc4" stroke-width="1.51"/><path d="M-152,636L-154,843L-33,711Z" fill="#a2c6c5" stroke="#a2c6c5" stroke-width="1.51"/><path d="M-202,-72L-137,81L-61,-76Z" fill="#eef9be" stroke="#eef9be" stroke-width="1.51"/><path d="M-218,247L-110,438L-51,379Z" fill="#bde4c3" stroke="#bde4c3" stroke-width="1.51"/><path d="M-154,843L-118,1037L-48,985Z" fill="#9ca8ba" stroke="#9ca8ba" stroke-width="1.51"/><path d="M-218,247L-179,540L-110,438Z" fill="#b9e1c7" stroke="#b9e1c7" stroke-width="1.51"/><path d="M-154,843L-165,1130L-118,1037Z" fill="#9ca4ba" stroke="#9ca4ba" stroke-width="1.51"/><path d="M-202,-72L-218,247L-137,81Z" fill="#e6f5c2" stroke="#e6f5c2" stroke-width="1.51"/><path d="M-179,540L-154,843L-152,636Z" fill="#a5ccc9" stroke="#a5ccc9" stroke-width="1.51"/><path d="M-179,540L-165,1130L-154,843Z" fill="#a0b9c3" stroke="#a0b9c3" stroke-width="1.51"/><path d="M-179,540L-218,247L-165,1130Z" fill="#a7d0cb" stroke="#a7d0cb" stroke-width="1.51"/></svg>