<svg xmlns="http://www.w3.org/2000/svg" width="1920" height="1080"><path d="M302,1261L-127,1255L598,1271Z" fill="#7687a3" stroke="#7687a3" stroke-width="1.51"/><path d="M89,-174L300,-169L1053,-191Z" fill="#dedeee" stroke="#dedeee" stroke-width="1.51"/><path d="M621,-145L930,-167L1053,-191Z" fill="#c1d0e6" stroke="#c1d0e6" stroke-width="1.51"/><path d="M300,-169L621,-145L1053,-191Z" fill="#d1d8ea" stroke="#d1d8ea" stroke-width="1.51"/><path d="M671,1265L598,1271L1338,1270Z" fill="#487396" stroke="#487396" stroke-width="1.51"/><path d="M1596,1215L1338,1270L1665,1216Z" fill="#07598b" stroke="#07598b" stroke-width="1.51"/><path d="M1223,-148L1496,-127L1693,-169Z" fill="#9ab3d6" stroke="#9ab3d6" stroke-width="1.51"/><path d="M1053,-191L1223,-148L1693,-169Z" fill="#a1bddb" stroke="#a1bddb" stroke-width="1.51"/><path d="M1665,1216L1338,1270L1846,1249Z" fill="#035586" stroke="#035586" stroke-width="1.51"/><path d="M1693,-169L1841,-132L1997,-114Z" fill="#8fa3c2" stroke="#8fa3c2" stroke-width="1.51"/><path d="M1917,1204L1846,1249L2073,1208Z" fill="#034973" stroke="#034973" stroke-width="1.51"/><path d="M1693,-169L1997,-114L2088,-104Z" fill="#8b9cba" stroke="#8b9cba" stroke-width="1.51"/><path d="M1966,312L2072,495L2102,322Z" fill="#5a7ca0" stroke="#5a7ca0" stroke-width="1.51"/><path d="M2044,870L2076,980L2116,763Z" fill="#0c5b8b" stroke="#0c5b8b" stroke-width="1.51"/><path d="M2076,980L2101,1094L2116,763Z" fill="#035485" stroke="#035485" stroke-width="1.51"/><path d="M1948,700L2116,763L2123,596Z" fill="#286994" stroke="#286994" stroke-width="1.51"/><path d="M1947,643L1948,700L2123,596Z" fill="#31709a" stroke="#31709a" stroke-width="1.51"/><path d="M2102,322L2072,495L2123,596Z" fill="#4a7498" stroke="#4a7498" stroke-width="1.51"/><path d="M2088,-104L2092,-28L2128,256Z" fill="#7989a4" stroke="#7989a4" stroke-width="1.51"/><path d="M1954,261L2102,322L2128,256Z" fill="#6580a1" stroke="#6580a1" stroke-width="1.51"/><path d="M2058,101L1954,261L2128,256Z" fill="#6e85a5" stroke="#6e85a5" stroke-width="1.51"/><path d="M2092,-28L2058,101L2128,256Z" fill="#7586a3" stroke="#7586a3" stroke-width="1.51"/><path d="M2102,322L2123,596L2128,256Z" fill="#557799" stroke="#557799" stroke-width="1.51"/><path d="M2072,495L1947,643L2123,596Z" fill="#3c7299" stroke="#3c7299" stroke-width="1.51"/><path d="M1980,13L2058,101L2092,-28Z" fill="#7d8eaa" stroke="#7d8eaa" stroke-width="1.51"/><path d="M1954,261L1966,312L2102,322Z" fill="#6583a6" stroke="#6583a6" stroke-width="1.51"/><path d="M1955,826L2044,870L2116,763Z" fill="#146191" stroke="#146191" stroke-width="1.51"/><path d="M1948,700L1955,826L2116,763Z" fill="#1b6896" stroke="#1b6896" stroke-width="1.51"/><path d="M1966,312L1925,506L2072,495Z" fill="#537da4" stroke="#537da4" stroke-width="1.51"/><path d="M2088,-104L1997,-114L2092,-28Z" fill="#8392ac" stroke="#8392ac" stroke-width="1.51"/><path d="M1932,1135L2073,1208L2101,1094Z" fill="#034b76" stroke="#034b76" stroke-width="1.51"/><path d="M2076,980L1928,997L2101,1094Z" fill="#045484" stroke="#045484" stroke-width="1.51"/><path d="M1928,997L1932,1135L2101,1094Z" fill="#035383" stroke="#035383" stroke-width="1.51"/><path d="M1925,506L1947,643L2072,495Z" fill="#4278a0" stroke="#4278a0" stroke-width="1.51"/><path d="M1997,-114L1980,13L2092,-28Z" fill="#8393af" stroke="#8393af" stroke-width="1.51"/><path d="M1916,104L1954,261L2058,101Z" fill="#768bad" stroke="#768bad" stroke-width="1.51"/><path d="M1932,1135L1917,1204L2073,1208Z" fill="#034b76" stroke="#034b76" stroke-width="1.51"/><path d="M2044,870L1928,997L2076,980Z" fill="#04598c" stroke="#04598c" stroke-width="1.51"/><path d="M1980,13L1916,104L2058,101Z" fill="#7c8faf" stroke="#7c8faf" stroke-width="1.51"/><path d="M1955,826L1928,997L2044,870Z" fill="#085f93" stroke="#085f93" stroke-width="1.51"/><path d="M931,1215L671,1265L1338,1270Z" fill="#3f7197" stroke="#3f7197" stroke-width="1.51"/><path d="M1827,936L1928,997L1955,826Z" fill="#056199" stroke="#056199" stroke-width="1.51"/><path d="M1832,333L1925,506L1966,312Z" fill="#5d85ad" stroke="#5d85ad" stroke-width="1.51"/><path d="M1841,-132L1980,13L1997,-114Z" fill="#889ab8" stroke="#889ab8" stroke-width="1.51"/><path d="M1832,333L1814,481L1925,506Z" fill="#5785b0" stroke="#5785b0" stroke-width="1.51"/><path d="M1916,104L1839,254L1954,261Z" fill="#748eb3" stroke="#748eb3" stroke-width="1.51"/><path d="M1800,18L1916,104L1980,13Z" fill="#8296b8" stroke="#8296b8" stroke-width="1.51"/><path d="M1841,-132L1800,18L1980,13Z" fill="#899cbd" stroke="#899cbd" stroke-width="1.51"/><path d="M1928,997L1810,1106L1932,1135Z" fill="#04598b" stroke="#04598b" stroke-width="1.51"/><path d="M1925,506L1802,643L1947,643Z" fill="#3d7aa7" stroke="#3d7aa7" stroke-width="1.51"/><path d="M1798,845L1827,936L1955,826Z" fill="#0e689f" stroke="#0e689f" stroke-width="1.51"/><path d="M1948,700L1807,728L1955,826Z" fill="#1e6fa0" stroke="#1e6fa0" stroke-width="1.51"/><path d="M1954,261L1832,333L1966,312Z" fill="#6888af" stroke="#6888af" stroke-width="1.51"/><path d="M1803,132L1839,254L1916,104Z" fill="#7b93b9" stroke="#7b93b9" stroke-width="1.51"/><path d="M1839,254L1832,333L1954,261Z" fill="#6c8bb3" stroke="#6c8bb3" stroke-width="1.51"/><path d="M1807,728L1798,845L1955,826Z" fill="#196fa3" stroke="#196fa3" stroke-width="1.51"/><path d="M1947,643L1802,643L1948,700Z" fill="#3076a4" stroke="#3076a4" stroke-width="1.51"/><path d="M1802,643L1807,728L1948,700Z" fill="#2b77a8" stroke="#2b77a8" stroke-width="1.51"/><path d="M1814,481L1802,643L1925,506Z" fill="#4780ae" stroke="#4780ae" stroke-width="1.51"/><path d="M1827,936L1810,1106L1928,997Z" fill="#045e95" stroke="#045e95" stroke-width="1.51"/><path d="M1810,1106L1917,1204L1932,1135Z" fill="#035383" stroke="#035383" stroke-width="1.51"/><path d="M1800,18L1803,132L1916,104Z" fill="#8198bc" stroke="#8198bc" stroke-width="1.51"/><path d="M1810,1106L1846,1249L1917,1204Z" fill="#035180" stroke="#035180" stroke-width="1.51"/><path d="M1729,514L1802,643L1814,481Z" fill="#4782b2" stroke="#4782b2" stroke-width="1.51"/><path d="M1711,990L1810,1106L1827,936Z" fill="#046299" stroke="#046299" stroke-width="1.51"/><path d="M1692,370L1814,481L1832,333Z" fill="#5f8ab6" stroke="#5f8ab6" stroke-width="1.51"/><path d="M1803,132L1724,209L1839,254Z" fill="#7894bc" stroke="#7894bc" stroke-width="1.51"/><path d="M1695,-7L1800,18L1841,-132Z" fill="#8ca1c3" stroke="#8ca1c3" stroke-width="1.51"/><path d="M1693,-169L1695,-7L1841,-132Z" fill="#90a5c8" stroke="#90a5c8" stroke-width="1.51"/><path d="M1810,1106L1736,1125L1846,1249Z" fill="#035687" stroke="#035687" stroke-width="1.51"/><path d="M1736,1125L1665,1216L1846,1249Z" fill="#045585" stroke="#045585" stroke-width="1.51"/><path d="M1724,209L1832,333L1839,254Z" fill="#7090b9" stroke="#7090b9" stroke-width="1.51"/><path d="M1724,209L1692,370L1832,333Z" fill="#6c90bb" stroke="#6c90bb" stroke-width="1.51"/><path d="M1711,990L1736,1125L1810,1106Z" fill="#045f95" stroke="#045f95" stroke-width="1.51"/><path d="M1798,845L1693,882L1827,936Z" fill="#0b6aa4" stroke="#0b6aa4" stroke-width="1.51"/><path d="M1729,514L1711,644L1802,643Z" fill="#3f81b1" stroke="#3f81b1" stroke-width="1.51"/><path d="M1800,18L1689,70L1803,132Z" fill="#849bc1" stroke="#849bc1" stroke-width="1.51"/><path d="M1692,370L1729,514L1814,481Z" fill="#5789b6" stroke="#5789b6" stroke-width="1.51"/><path d="M1693,882L1711,990L1827,936Z" fill="#0467a2" stroke="#0467a2" stroke-width="1.51"/><path d="M1683,702L1693,882L1798,845Z" fill="#1972aa" stroke="#1972aa" stroke-width="1.51"/><path d="M1683,702L1798,845L1807,728Z" fill="#1f75aa" stroke="#1f75aa" stroke-width="1.51"/><path d="M1802,643L1711,644L1807,728Z" fill="#307bad" stroke="#307bad" stroke-width="1.51"/><path d="M1711,644L1683,702L1807,728Z" fill="#2c7caf" stroke="#2c7caf" stroke-width="1.51"/><path d="M1689,70L1724,209L1803,132Z" fill="#7f99c1" stroke="#7f99c1" stroke-width="1.51"/><path d="M1695,-7L1689,70L1800,18Z" fill="#889fc5" stroke="#889fc5" stroke-width="1.51"/><path d="M1683,702L1617,811L1693,882Z" fill="#1b76ae" stroke="#1b76ae" stroke-width="1.51"/><path d="M1617,756L1617,811L1683,702Z" fill="#207ab2" stroke="#207ab2" stroke-width="1.51"/><path d="M1693,-169L1612,-53L1695,-7Z" fill="#90a7cc" stroke="#90a7cc" stroke-width="1.51"/><path d="M1693,882L1628,945L1711,990Z" fill="#056aa6" stroke="#056aa6" stroke-width="1.51"/><path d="M1689,70L1590,184L1724,209Z" fill="#809bc4" stroke="#809bc4" stroke-width="1.51"/><path d="M1626,316L1692,370L1724,209Z" fill="#6e93bf" stroke="#6e93bf" stroke-width="1.51"/><path d="M1624,508L1711,644L1729,514Z" fill="#4886b7" stroke="#4886b7" stroke-width="1.51"/><path d="M1692,370L1624,508L1729,514Z" fill="#578aba" stroke="#578aba" stroke-width="1.51"/><path d="M1711,990L1604,1071L1736,1125Z" fill="#04629a" stroke="#04629a" stroke-width="1.51"/><path d="M1604,1071L1665,1216L1736,1125Z" fill="#055d92" stroke="#055d92" stroke-width="1.51"/><path d="M1590,184L1626,316L1724,209Z" fill="#7797c3" stroke="#7797c3" stroke-width="1.51"/><path d="M1567,132L1590,184L1689,70Z" fill="#839ec8" stroke="#839ec8" stroke-width="1.51"/><path d="M1496,-127L1541,-110L1693,-169Z" fill="#96add2" stroke="#96add2" stroke-width="1.51"/><path d="M1547,561L1683,702L1711,644Z" fill="#3982b6" stroke="#3982b6" stroke-width="1.51"/><path d="M1624,508L1547,561L1711,644Z" fill="#4587ba" stroke="#4587ba" stroke-width="1.51"/><path d="M1628,945L1604,1071L1711,990Z" fill="#0567a2" stroke="#0567a2" stroke-width="1.51"/><path d="M1223,-148L1360,-106L1496,-127Z" fill="#9db9d9" stroke="#9db9d9" stroke-width="1.51"/><path d="M1604,1071L1596,1215L1665,1216Z" fill="#045c91" stroke="#045c91" stroke-width="1.51"/><path d="M1626,316L1624,508L1692,370Z" fill="#618fbe" stroke="#618fbe" stroke-width="1.51"/><path d="M1541,-110L1612,-53L1693,-169Z" fill="#94aacf" stroke="#94aacf" stroke-width="1.51"/><path d="M1612,-53L1689,70L1695,-7Z" fill="#8ca4c9" stroke="#8ca4c9" stroke-width="1.51"/><path d="M1547,561L1617,756L1683,702Z" fill="#3281b6" stroke="#3281b6" stroke-width="1.51"/><path d="M1612,-53L1567,132L1689,70Z" fill="#89a2ca" stroke="#89a2ca" stroke-width="1.51"/><path d="M1617,811L1628,945L1693,882Z" fill="#0e6fac" stroke="#0e6fac" stroke-width="1.51"/><path d="M1504,476L1624,508L1626,316Z" fill="#5d90c1" stroke="#5d90c1" stroke-width="1.51"/><path d="M1486,-8L1567,132L1612,-53Z" fill="#8da7d0" stroke="#8da7d0" stroke-width="1.51"/><path d="M1420,1188L1338,1270L1596,1215Z" fill="#105f8f" stroke="#105f8f" stroke-width="1.51"/><path d="M1547,561L1422,724L1617,756Z" fill="#3284bb" stroke="#3284bb" stroke-width="1.51"/><path d="M1420,372L1504,476L1626,316Z" fill="#6696c6" stroke="#6696c6" stroke-width="1.51"/><path d="M1590,184L1479,214L1626,316Z" fill="#799bc9" stroke="#799bc9" stroke-width="1.51"/><path d="M1470,950L1604,1071L1628,945Z" fill="#056ba8" stroke="#056ba8" stroke-width="1.51"/><path d="M1617,811L1462,858L1628,945Z" fill="#1073b1" stroke="#1073b1" stroke-width="1.51"/><path d="M1462,858L1470,950L1628,945Z" fill="#0b72b0" stroke="#0b72b0" stroke-width="1.51"/><path d="M1443,1063L1596,1215L1604,1071Z" fill="#05649c" stroke="#05649c" stroke-width="1.51"/><path d="M1479,214L1420,372L1626,316Z" fill="#739bc8" stroke="#739bc8" stroke-width="1.51"/><path d="M1443,1063L1420,1188L1596,1215Z" fill="#0d6399" stroke="#0d6399" stroke-width="1.51"/><path d="M1504,476L1547,561L1624,508Z" fill="#508dc0" stroke="#508dc0" stroke-width="1.51"/><path d="M1470,950L1443,1063L1604,1071Z" fill="#0c6ca7" stroke="#0c6ca7" stroke-width="1.51"/><path d="M1422,724L1462,858L1617,756Z" fill="#227eb8" stroke="#227eb8" stroke-width="1.51"/><path d="M1617,756L1462,858L1617,811Z" fill="#1a78b4" stroke="#1a78b4" stroke-width="1.51"/><path d="M1541,-110L1486,-8L1612,-53Z" fill="#92abd2" stroke="#92abd2" stroke-width="1.51"/><path d="M1246,1228L931,1215L1338,1270Z" fill="#2a6a94" stroke="#2a6a94" stroke-width="1.51"/><path d="M1419,571L1422,724L1547,561Z" fill="#428cbf" stroke="#428cbf" stroke-width="1.51"/><path d="M1486,-8L1465,138L1567,132Z" fill="#8aa6cf" stroke="#8aa6cf" stroke-width="1.51"/><path d="M1567,132L1479,214L1590,184Z" fill="#809fcb" stroke="#809fcb" stroke-width="1.51"/><path d="M1465,138L1479,214L1567,132Z" fill="#84a2cd" stroke="#84a2cd" stroke-width="1.51"/><path d="M1496,-127L1486,-8L1541,-110Z" fill="#95aed4" stroke="#95aed4" stroke-width="1.51"/><path d="M1504,476L1419,571L1547,561Z" fill="#5090c1" stroke="#5090c1" stroke-width="1.51"/><path d="M1376,263L1420,372L1479,214Z" fill="#78a0cb" stroke="#78a0cb" stroke-width="1.51"/><path d="M1361,-1L1465,138L1486,-8Z" fill="#90acd2" stroke="#90acd2" stroke-width="1.51"/><path d="M1360,-106L1486,-8L1496,-127Z" fill="#98b2d6" stroke="#98b2d6" stroke-width="1.51"/><path d="M1420,372L1377,483L1504,476Z" fill="#6197c6" stroke="#6197c6" stroke-width="1.51"/><path d="M1377,483L1419,571L1504,476Z" fill="#5794c4" stroke="#5794c4" stroke-width="1.51"/><path d="M1360,-106L1361,-1L1486,-8Z" fill="#97b2d6" stroke="#97b2d6" stroke-width="1.51"/><path d="M1419,571L1350,601L1422,724Z" fill="#438fc0" stroke="#438fc0" stroke-width="1.51"/><path d="M1422,724L1339,830L1462,858Z" fill="#2681b9" stroke="#2681b9" stroke-width="1.51"/><path d="M1361,-1L1298,114L1465,138Z" fill="#8fadd3" stroke="#8fadd3" stroke-width="1.51"/><path d="M1462,858L1351,948L1470,950Z" fill="#1676b3" stroke="#1676b3" stroke-width="1.51"/><path d="M1351,948L1443,1063L1470,950Z" fill="#1672ac" stroke="#1672ac" stroke-width="1.51"/><path d="M1465,138L1376,263L1479,214Z" fill="#81a3cd" stroke="#81a3cd" stroke-width="1.51"/><path d="M1368,1065L1420,1188L1443,1063Z" fill="#166ca2" stroke="#166ca2" stroke-width="1.51"/><path d="M1351,948L1368,1065L1443,1063Z" fill="#1972aa" stroke="#1972aa" stroke-width="1.51"/><path d="M1298,114L1376,263L1465,138Z" fill="#88a9d0" stroke="#88a9d0" stroke-width="1.51"/><path d="M1339,830L1351,948L1462,858Z" fill="#1f7cb6" stroke="#1f7cb6" stroke-width="1.51"/><path d="M1376,263L1336,356L1420,372Z" fill="#74a0cb" stroke="#74a0cb" stroke-width="1.51"/><path d="M1317,747L1339,830L1422,724Z" fill="#2d87bb" stroke="#2d87bb" stroke-width="1.51"/><path d="M62,1241L-127,1255L302,1261Z" fill="#7e8ea7" stroke="#7e8ea7" stroke-width="1.51"/><path d="M1112,1186L931,1215L1246,1228Z" fill="#34709a" stroke="#34709a" stroke-width="1.51"/><path d="M1377,483L1350,601L1419,571Z" fill="#5294c4" stroke="#5294c4" stroke-width="1.51"/><path d="M1368,1065L1246,1228L1420,1188Z" fill="#1a6a9b" stroke="#1a6a9b" stroke-width="1.51"/><path d="M1336,356L1377,483L1420,372Z" fill="#699dc9" stroke="#699dc9" stroke-width="1.51"/><path d="M1350,601L1317,747L1422,724Z" fill="#398cbf" stroke="#398cbf" stroke-width="1.51"/><path d="M1246,1228L1338,1270L1420,1188Z" fill="#196491" stroke="#196491" stroke-width="1.51"/><path d="M1233,1063L1246,1228L1368,1065Z" fill="#1f71a3" stroke="#1f71a3" stroke-width="1.51"/><path d="M1351,948L1233,1063L1368,1065Z" fill="#1e76ac" stroke="#1e76ac" stroke-width="1.51"/><path d="M1298,114L1243,139L1376,263Z" fill="#8aadd2" stroke="#8aadd2" stroke-width="1.51"/><path d="M1243,139L1211,198L1376,263Z" fill="#88add2" stroke="#88add2" stroke-width="1.51"/><path d="M1336,356L1212,515L1377,483Z" fill="#659ec9" stroke="#659ec9" stroke-width="1.51"/><path d="M1235,571L1350,601L1377,483Z" fill="#5498c6" stroke="#5498c6" stroke-width="1.51"/><path d="M1212,515L1235,571L1377,483Z" fill="#5b9cc8" stroke="#5b9cc8" stroke-width="1.51"/><path d="M1360,-106L1208,6L1361,-1Z" fill="#9ab8d8" stroke="#9ab8d8" stroke-width="1.51"/><path d="M1211,198L1336,356L1376,263Z" fill="#7ea8cf" stroke="#7ea8cf" stroke-width="1.51"/><path d="M1179,392L1212,515L1336,356Z" fill="#6da3cc" stroke="#6da3cc" stroke-width="1.51"/><path d="M1217,721L1317,747L1350,601Z" fill="#3c90c1" stroke="#3c90c1" stroke-width="1.51"/><path d="M1223,-148L1208,6L1360,-106Z" fill="#9ebcdb" stroke="#9ebcdb" stroke-width="1.51"/><path d="M1208,6L1298,114L1361,-1Z" fill="#96b5d6" stroke="#96b5d6" stroke-width="1.51"/><path d="M1235,571L1217,721L1350,601Z" fill="#4996c3" stroke="#4996c3" stroke-width="1.51"/><path d="M1339,830L1182,892L1351,948Z" fill="#2580b8" stroke="#2580b8" stroke-width="1.51"/><path d="M1174,1012L1233,1063L1351,948Z" fill="#247aaf" stroke="#247aaf" stroke-width="1.51"/><path d="M1182,892L1174,1012L1351,948Z" fill="#287fb5" stroke="#287fb5" stroke-width="1.51"/><path d="M1211,198L1179,392L1336,356Z" fill="#7ba9cf" stroke="#7ba9cf" stroke-width="1.51"/><path d="M1317,747L1217,721L1339,830Z" fill="#318abe" stroke="#318abe" stroke-width="1.51"/><path d="M1217,721L1182,892L1339,830Z" fill="#3089bd" stroke="#3089bd" stroke-width="1.51"/><path d="M1208,6L1243,139L1298,114Z" fill="#94b5d6" stroke="#94b5d6" stroke-width="1.51"/><path d="M1084,254L1179,392L1211,198Z" fill="#87aed2" stroke="#87aed2" stroke-width="1.51"/><path d="M1120,890L1182,892L1217,721Z" fill="#398abe" stroke="#398abe" stroke-width="1.51"/><path d="M1046,-4L1208,6L1223,-148Z" fill="#a5c0dc" stroke="#a5c0dc" stroke-width="1.51"/><path d="M1103,1070L1112,1186L1233,1063Z" fill="#3278a8" stroke="#3278a8" stroke-width="1.51"/><path d="M1069,645L1217,721L1235,571Z" fill="#5099c5" stroke="#5099c5" stroke-width="1.51"/><path d="M1208,6L1094,92L1243,139Z" fill="#9ab8d8" stroke="#9ab8d8" stroke-width="1.51"/><path d="M1233,1063L1112,1186L1246,1228Z" fill="#29719f" stroke="#29719f" stroke-width="1.51"/><path d="M1069,717L1120,890L1217,721Z" fill="#4291c1" stroke="#4291c1" stroke-width="1.51"/><path d="M1094,92L1211,198L1243,139Z" fill="#94b5d6" stroke="#94b5d6" stroke-width="1.51"/><path d="M1179,392L1108,458L1212,515Z" fill="#6fa5cd" stroke="#6fa5cd" stroke-width="1.51"/><path d="M1053,-191L1046,-4L1223,-148Z" fill="#acc5df" stroke="#acc5df" stroke-width="1.51"/><path d="M1212,515L1069,645L1235,571Z" fill="#5b9dc8" stroke="#5b9dc8" stroke-width="1.51"/><path d="M1174,1012L1103,1070L1233,1063Z" fill="#307bad" stroke="#307bad" stroke-width="1.51"/><path d="M1109,933L1174,1012L1182,892Z" fill="#3482b7" stroke="#3482b7" stroke-width="1.51"/><path d="M1069,645L1069,717L1217,721Z" fill="#4e98c5" stroke="#4e98c5" stroke-width="1.51"/><path d="M1084,254L1054,327L1179,392Z" fill="#85aed3" stroke="#85aed3" stroke-width="1.51"/><path d="M1108,458L1069,645L1212,515Z" fill="#65a2ca" stroke="#65a2ca" stroke-width="1.51"/><path d="M1094,92L1084,254L1211,198Z" fill="#95b5d6" stroke="#95b5d6" stroke-width="1.51"/><path d="M621,-145L722,-129L930,-167Z" fill="#c9d4e8" stroke="#c9d4e8" stroke-width="1.51"/><path d="M1046,-4L1094,92L1208,6Z" fill="#a2bedb" stroke="#a2bedb" stroke-width="1.51"/><path d="M1120,890L1109,933L1182,892Z" fill="#3886bc" stroke="#3886bc" stroke-width="1.51"/><path d="M1054,327L1108,458L1179,392Z" fill="#7caad0" stroke="#7caad0" stroke-width="1.51"/><path d="M1109,933L1103,1070L1174,1012Z" fill="#367fb2" stroke="#367fb2" stroke-width="1.51"/><path d="M722,-129L826,-132L930,-167Z" fill="#c3d1e6" stroke="#c3d1e6" stroke-width="1.51"/><path d="M999,-30L1046,-4L1053,-191Z" fill="#afc6e0" stroke="#afc6e0" stroke-width="1.51"/><path d="M931,124L1084,254L1094,92Z" fill="#9fbad9" stroke="#9fbad9" stroke-width="1.51"/><path d="M943,951L942,1072L1103,1070Z" fill="#4583b3" stroke="#4583b3" stroke-width="1.51"/><path d="M1054,327L985,394L1108,458Z" fill="#81add2" stroke="#81add2" stroke-width="1.51"/><path d="M983,520L1069,645L1108,458Z" fill="#6ca5cc" stroke="#6ca5cc" stroke-width="1.51"/><path d="M943,951L1103,1070L1109,933Z" fill="#4184b6" stroke="#4184b6" stroke-width="1.51"/><path d="M1103,1070L942,1072L1112,1186Z" fill="#3d7caa" stroke="#3d7caa" stroke-width="1.51"/><path d="M1069,717L941,824L1120,890Z" fill="#4a92c2" stroke="#4a92c2" stroke-width="1.51"/><path d="M943,951L1109,933L1120,890Z" fill="#4188bc" stroke="#4188bc" stroke-width="1.51"/><path d="M941,824L943,951L1120,890Z" fill="#4a8cc0" stroke="#4a8cc0" stroke-width="1.51"/><path d="M931,124L959,266L1084,254Z" fill="#9cb9d8" stroke="#9cb9d8" stroke-width="1.51"/><path d="M942,1072L931,1215L1112,1186Z" fill="#417aa4" stroke="#417aa4" stroke-width="1.51"/><path d="M985,394L983,520L1108,458Z" fill="#7aaad0" stroke="#7aaad0" stroke-width="1.51"/><path d="M983,520L964,620L1069,645Z" fill="#68a3cc" stroke="#68a3cc" stroke-width="1.51"/><path d="M1046,-4L931,124L1094,92Z" fill="#a7c0dc" stroke="#a7c0dc" stroke-width="1.51"/><path d="M420,1249L302,1261L598,1271Z" fill="#6c819f" stroke="#6c819f" stroke-width="1.51"/><path d="M930,-167L999,-30L1053,-191Z" fill="#b5cae2" stroke="#b5cae2" stroke-width="1.51"/><path d="M959,266L1054,327L1084,254Z" fill="#91b3d5" stroke="#91b3d5" stroke-width="1.51"/><path d="M999,-30L931,124L1046,-4Z" fill="#acc3de" stroke="#acc3de" stroke-width="1.51"/><path d="M964,620L918,735L1069,717Z" fill="#5c9ec8" stroke="#5c9ec8" stroke-width="1.51"/><path d="M918,735L941,824L1069,717Z" fill="#5599c6" stroke="#5599c6" stroke-width="1.51"/><path d="M964,620L1069,717L1069,645Z" fill="#5c9ec8" stroke="#5c9ec8" stroke-width="1.51"/><path d="M959,266L985,394L1054,327Z" fill="#8db2d5" stroke="#8db2d5" stroke-width="1.51"/><path d="M851,-4L843,61L931,124Z" fill="#b3c6df" stroke="#b3c6df" stroke-width="1.51"/><path d="M871,1190L671,1265L931,1215Z" fill="#4f799d" stroke="#4f799d" stroke-width="1.51"/><path d="M959,266L860,366L985,394Z" fill="#91b4d6" stroke="#91b4d6" stroke-width="1.51"/><path d="M827,461L983,520L985,394Z" fill="#82aed2" stroke="#82aed2" stroke-width="1.51"/><path d="M851,-4L931,124L999,-30Z" fill="#b1c6e0" stroke="#b1c6e0" stroke-width="1.51"/><path d="M930,-167L851,-4L999,-30Z" fill="#b8cbe2" stroke="#b8cbe2" stroke-width="1.51"/><path d="M826,-132L851,-4L930,-167Z" fill="#bdcee5" stroke="#bdcee5" stroke-width="1.51"/><path d="M871,1190L931,1215L942,1072Z" fill="#497ca6" stroke="#497ca6" stroke-width="1.51"/><path d="M941,824L850,889L943,951Z" fill="#5490c2" stroke="#5490c2" stroke-width="1.51"/><path d="M794,574L964,620L983,520Z" fill="#74a8ce" stroke="#74a8ce" stroke-width="1.51"/><path d="M860,366L827,461L985,394Z" fill="#8cb2d5" stroke="#8cb2d5" stroke-width="1.51"/><path d="M827,461L794,574L983,520Z" fill="#7fadd1" stroke="#7fadd1" stroke-width="1.51"/><path d="M300,-169L433,-132L621,-145Z" fill="#dfdeed" stroke="#dfdeed" stroke-width="1.51"/><path d="M859,973L942,1072L943,951Z" fill="#4f88b8" stroke="#4f88b8" stroke-width="1.51"/><path d="M931,124L813,257L959,266Z" fill="#a3bcda" stroke="#a3bcda" stroke-width="1.51"/><path d="M817,724L918,735L964,620Z" fill="#64a1ca" stroke="#64a1ca" stroke-width="1.51"/><path d="M794,574L817,724L964,620Z" fill="#70a6cd" stroke="#70a6cd" stroke-width="1.51"/><path d="M813,257L860,366L959,266Z" fill="#9cb9d8" stroke="#9cb9d8" stroke-width="1.51"/><path d="M918,735L817,724L941,824Z" fill="#5d9cc8" stroke="#5d9cc8" stroke-width="1.51"/><path d="M817,724L850,889L941,824Z" fill="#5d98c6" stroke="#5d98c6" stroke-width="1.51"/><path d="M793,1139L871,1190L942,1072Z" fill="#4f80ab" stroke="#4f80ab" stroke-width="1.51"/><path d="M850,889L859,973L943,951Z" fill="#548dbf" stroke="#548dbf" stroke-width="1.51"/><path d="M859,973L793,1139L942,1072Z" fill="#5286b4" stroke="#5286b4" stroke-width="1.51"/><path d="M843,61L813,257L931,124Z" fill="#adc1dd" stroke="#adc1dd" stroke-width="1.51"/><path d="M708,63L724,259L813,257Z" fill="#b1c2de" stroke="#b1c2de" stroke-width="1.51"/><path d="M708,63L813,257L843,61Z" fill="#b5c5df" stroke="#b5c5df" stroke-width="1.51"/><path d="M817,724L730,761L850,889Z" fill="#659cc9" stroke="#659cc9" stroke-width="1.51"/><path d="M687,1019L793,1139L859,973Z" fill="#5b8ab7" stroke="#5b8ab7" stroke-width="1.51"/><path d="M793,1139L671,1265L871,1190Z" fill="#547ca2" stroke="#547ca2" stroke-width="1.51"/><path d="M730,761L681,854L850,889Z" fill="#669ac7" stroke="#669ac7" stroke-width="1.51"/><path d="M826,-132L706,-24L851,-4Z" fill="#c1cfe5" stroke="#c1cfe5" stroke-width="1.51"/><path d="M850,889L687,1019L859,973Z" fill="#5c8fbe" stroke="#5c8fbe" stroke-width="1.51"/><path d="M705,314L827,461L860,366Z" fill="#98b7d8" stroke="#98b7d8" stroke-width="1.51"/><path d="M813,257L705,314L860,366Z" fill="#a0bada" stroke="#a0bada" stroke-width="1.51"/><path d="M681,854L687,1019L850,889Z" fill="#6392c4" stroke="#6392c4" stroke-width="1.51"/><path d="M722,-129L706,-24L826,-132Z" fill="#c6d2e6" stroke="#c6d2e6" stroke-width="1.51"/><path d="M708,63L843,61L851,-4Z" fill="#bacae2" stroke="#bacae2" stroke-width="1.51"/><path d="M706,-24L708,63L851,-4Z" fill="#c0cde4" stroke="#c0cde4" stroke-width="1.51"/><path d="M687,1019L676,1068L793,1139Z" fill="#6089b5" stroke="#6089b5" stroke-width="1.51"/><path d="M794,574L705,572L817,724Z" fill="#7aaacf" stroke="#7aaacf" stroke-width="1.51"/><path d="M724,259L705,314L813,257Z" fill="#a8bedc" stroke="#a8bedc" stroke-width="1.51"/><path d="M705,572L730,761L817,724Z" fill="#73a6cd" stroke="#73a6cd" stroke-width="1.51"/><path d="M687,512L794,574L827,461Z" fill="#88b1d4" stroke="#88b1d4" stroke-width="1.51"/><path d="M705,314L687,512L827,461Z" fill="#96b6d7" stroke="#96b6d7" stroke-width="1.51"/><path d="M623,449L687,512L705,314Z" fill="#9cb8d8" stroke="#9cb8d8" stroke-width="1.51"/><path d="M687,512L705,572L794,574Z" fill="#87b0d3" stroke="#87b0d3" stroke-width="1.51"/><path d="M676,1068L671,1265L793,1139Z" fill="#5c83aa" stroke="#5c83aa" stroke-width="1.51"/><path d="M598,1271L671,1265L676,1068Z" fill="#5f80a5" stroke="#5f80a5" stroke-width="1.51"/><path d="M547,1084L598,1271L676,1068Z" fill="#6688af" stroke="#6688af" stroke-width="1.51"/><path d="M681,854L555,989L687,1019Z" fill="#6b93c2" stroke="#6b93c2" stroke-width="1.51"/><path d="M594,567L591,752L705,572Z" fill="#85aed2" stroke="#85aed2" stroke-width="1.51"/><path d="M621,-145L587,-55L706,-24Z" fill="#ced5e8" stroke="#ced5e8" stroke-width="1.51"/><path d="M584,70L546,213L708,63Z" fill="#c2cbe3" stroke="#c2cbe3" stroke-width="1.51"/><path d="M621,-145L706,-24L722,-129Z" fill="#ccd5e8" stroke="#ccd5e8" stroke-width="1.51"/><path d="M708,63L546,213L724,259Z" fill="#bac6e0" stroke="#bac6e0" stroke-width="1.51"/><path d="M705,572L591,752L730,761Z" fill="#79a8cf" stroke="#79a8cf" stroke-width="1.51"/><path d="M591,752L681,854L730,761Z" fill="#71a1cb" stroke="#71a1cb" stroke-width="1.51"/><path d="M569,314L705,314L724,259Z" fill="#adc0dd" stroke="#adc0dd" stroke-width="1.51"/><path d="M546,213L569,314L724,259Z" fill="#b4c3df" stroke="#b4c3df" stroke-width="1.51"/><path d="M569,314L623,449L705,314Z" fill="#a7bddc" stroke="#a7bddc" stroke-width="1.51"/><path d="M591,752L582,826L681,854Z" fill="#75a0cb" stroke="#75a0cb" stroke-width="1.51"/><path d="M587,-55L584,70L706,-24Z" fill="#cad2e6" stroke="#cad2e6" stroke-width="1.51"/><path d="M706,-24L584,70L708,63Z" fill="#c5cee5" stroke="#c5cee5" stroke-width="1.51"/><path d="M687,512L594,567L705,572Z" fill="#8db2d4" stroke="#8db2d4" stroke-width="1.51"/><path d="M582,826L555,989L681,854Z" fill="#7099c8" stroke="#7099c8" stroke-width="1.51"/><path d="M555,989L676,1068L687,1019Z" fill="#688fbb" stroke="#688fbb" stroke-width="1.51"/><path d="M623,449L594,567L687,512Z" fill="#94b5d7" stroke="#94b5d7" stroke-width="1.51"/><path d="M555,989L547,1084L676,1068Z" fill="#6b8fba" stroke="#6b8fba" stroke-width="1.51"/><path d="M492,887L555,989L582,826Z" fill="#759ac8" stroke="#759ac8" stroke-width="1.51"/><path d="M487,131L546,213L584,70Z" fill="#c6cce4" stroke="#c6cce4" stroke-width="1.51"/><path d="M453,731L591,752L594,567Z" fill="#85add2" stroke="#85add2" stroke-width="1.51"/><path d="M469,559L453,731L594,567Z" fill="#90b3d5" stroke="#90b3d5" stroke-width="1.51"/><path d="M547,1084L477,1105L598,1271Z" fill="#6b89ae" stroke="#6b89ae" stroke-width="1.51"/><path d="M569,314L431,348L623,449Z" fill="#adc0dd" stroke="#adc0dd" stroke-width="1.51"/><path d="M431,348L416,455L623,449Z" fill="#aabfdc" stroke="#aabfdc" stroke-width="1.51"/><path d="M469,559L594,567L623,449Z" fill="#98b7d8" stroke="#98b7d8" stroke-width="1.51"/><path d="M416,455L469,559L623,449Z" fill="#a1bbda" stroke="#a1bbda" stroke-width="1.51"/><path d="M477,1105L420,1249L598,1271Z" fill="#6b84a6" stroke="#6b84a6" stroke-width="1.51"/><path d="M433,-132L587,-55L621,-145Z" fill="#d6d9ea" stroke="#d6d9ea" stroke-width="1.51"/><path d="M546,213L496,250L569,314Z" fill="#bac6e0" stroke="#bac6e0" stroke-width="1.51"/><path d="M466,16L584,70L587,-55Z" fill="#cfd4e7" stroke="#cfd4e7" stroke-width="1.51"/><path d="M453,731L582,826L591,752Z" fill="#7da7ce" stroke="#7da7ce" stroke-width="1.51"/><path d="M433,-132L466,16L587,-55Z" fill="#d7d9ea" stroke="#d7d9ea" stroke-width="1.51"/><path d="M453,731L492,887L582,826Z" fill="#7da3cd" stroke="#7da3cd" stroke-width="1.51"/><path d="M466,16L487,131L584,70Z" fill="#cdd1e7" stroke="#cdd1e7" stroke-width="1.51"/><path d="M496,250L431,348L569,314Z" fill="#b8c5e0" stroke="#b8c5e0" stroke-width="1.51"/><path d="M492,887L430,959L555,989Z" fill="#7799c5" stroke="#7799c5" stroke-width="1.51"/><path d="M477,1105L547,1084L555,989Z" fill="#7091ba" stroke="#7091ba" stroke-width="1.51"/><path d="M430,959L477,1105L555,989Z" fill="#7595bf" stroke="#7595bf" stroke-width="1.51"/><path d="M487,131L496,250L546,213Z" fill="#c3cae3" stroke="#c3cae3" stroke-width="1.51"/><path d="M353,627L453,731L469,559Z" fill="#94b4d6" stroke="#94b4d6" stroke-width="1.51"/><path d="M334,1141L420,1249L477,1105Z" fill="#748bae" stroke="#748bae" stroke-width="1.51"/><path d="M466,16L358,84L487,131Z" fill="#d2d3e7" stroke="#d2d3e7" stroke-width="1.51"/><path d="M453,731L366,835L492,887Z" fill="#82a5ce" stroke="#82a5ce" stroke-width="1.51"/><path d="M487,131L368,248L496,250Z" fill="#c5cbe3" stroke="#c5cbe3" stroke-width="1.51"/><path d="M368,248L431,348L496,250Z" fill="#bfc8e2" stroke="#bfc8e2" stroke-width="1.51"/><path d="M430,959L322,981L477,1105Z" fill="#7b97c0" stroke="#7b97c0" stroke-width="1.51"/><path d="M358,84L368,248L487,131Z" fill="#cfd0e6" stroke="#cfd0e6" stroke-width="1.51"/><path d="M366,835L430,959L492,887Z" fill="#7e9fcb" stroke="#7e9fcb" stroke-width="1.51"/><path d="M322,981L334,1141L477,1105Z" fill="#7b94bb" stroke="#7b94bb" stroke-width="1.51"/><path d="M353,767L366,835L453,731Z" fill="#88aad1" stroke="#88aad1" stroke-width="1.51"/><path d="M433,-132L308,20L466,16Z" fill="#dcdbec" stroke="#dcdbec" stroke-width="1.51"/><path d="M416,455L346,495L469,559Z" fill="#a6bddb" stroke="#a6bddb" stroke-width="1.51"/><path d="M346,495L353,627L469,559Z" fill="#a0bad9" stroke="#a0bad9" stroke-width="1.51"/><path d="M308,20L358,84L466,16Z" fill="#d9d8ea" stroke="#d9d8ea" stroke-width="1.51"/><path d="M353,627L353,767L453,731Z" fill="#8eb1d4" stroke="#8eb1d4" stroke-width="1.51"/><path d="M366,835L322,981L430,959Z" fill="#819eca" stroke="#819eca" stroke-width="1.51"/><path d="M296,353L416,455L431,348Z" fill="#b6c4df" stroke="#b6c4df" stroke-width="1.51"/><path d="M368,248L296,353L431,348Z" fill="#bfc9e2" stroke="#bfc9e2" stroke-width="1.51"/><path d="M300,-169L308,20L433,-132Z" fill="#e2dfee" stroke="#e2dfee" stroke-width="1.51"/><path d="M334,1141L302,1261L420,1249Z" fill="#7488a8" stroke="#7488a8" stroke-width="1.51"/><path d="M296,353L346,495L416,455Z" fill="#b2c3df" stroke="#b2c3df" stroke-width="1.51"/><path d="M300,-169L198,-104L308,20Z" fill="#e5e2ef" stroke="#e5e2ef" stroke-width="1.51"/><path d="M322,981L187,1020L334,1141Z" fill="#8199c0" stroke="#8199c0" stroke-width="1.51"/><path d="M346,495L249,570L353,627Z" fill="#a4bddb" stroke="#a4bddb" stroke-width="1.51"/><path d="M353,627L184,756L353,767Z" fill="#92b3d5" stroke="#92b3d5" stroke-width="1.51"/><path d="M353,767L208,860L366,835Z" fill="#8aa9d0" stroke="#8aa9d0" stroke-width="1.51"/><path d="M208,860L322,981L366,835Z" fill="#86a3ce" stroke="#86a3ce" stroke-width="1.51"/><path d="M199,238L296,353L368,248Z" fill="#c7cee4" stroke="#c7cee4" stroke-width="1.51"/><path d="M358,84L223,87L368,248Z" fill="#d5d4e8" stroke="#d5d4e8" stroke-width="1.51"/><path d="M223,87L199,238L368,248Z" fill="#d2d3e7" stroke="#d2d3e7" stroke-width="1.51"/><path d="M187,1020L195,1143L334,1141Z" fill="#8197bb" stroke="#8197bb" stroke-width="1.51"/><path d="M238,1208L302,1261L334,1141Z" fill="#788bab" stroke="#788bab" stroke-width="1.51"/><path d="M296,353L203,504L346,495Z" fill="#b3c5df" stroke="#b3c5df" stroke-width="1.51"/><path d="M249,570L184,756L353,627Z" fill="#9cb9d8" stroke="#9cb9d8" stroke-width="1.51"/><path d="M308,20L223,87L358,84Z" fill="#dbd9eb" stroke="#dbd9eb" stroke-width="1.51"/><path d="M184,756L208,860L353,767Z" fill="#8faed3" stroke="#8faed3" stroke-width="1.51"/><path d="M213,357L203,504L296,353Z" fill="#bbc8e2" stroke="#bbc8e2" stroke-width="1.51"/><path d="M203,504L249,570L346,495Z" fill="#abc1dd" stroke="#abc1dd" stroke-width="1.51"/><path d="M195,1143L238,1208L334,1141Z" fill="#7c91b1" stroke="#7c91b1" stroke-width="1.51"/><path d="M199,238L213,357L296,353Z" fill="#c5cee4" stroke="#c5cee4" stroke-width="1.51"/><path d="M238,1208L62,1241L302,1261Z" fill="#7a8ba8" stroke="#7a8ba8" stroke-width="1.51"/><path d="M198,-104L171,-63L308,20Z" fill="#e6e2f0" stroke="#e6e2f0" stroke-width="1.51"/><path d="M208,860L187,1020L322,981Z" fill="#87a0ca" stroke="#87a0ca" stroke-width="1.51"/><path d="M89,-174L198,-104L300,-169Z" fill="#ece8f2" stroke="#ece8f2" stroke-width="1.51"/><path d="M171,-63L223,87L308,20Z" fill="#e1dfed" stroke="#e1dfed" stroke-width="1.51"/><path d="M114,618L184,756L249,570Z" fill="#a0bdda" stroke="#a0bdda" stroke-width="1.51"/><path d="M121,490L203,504L213,357Z" fill="#b8c9e2" stroke="#b8c9e2" stroke-width="1.51"/><path d="M171,-63L121,66L223,87Z" fill="#e3e0ef" stroke="#e3e0ef" stroke-width="1.51"/><path d="M128,241L199,238L223,87Z" fill="#d6d6e9" stroke="#d6d6e9" stroke-width="1.51"/><path d="M121,66L128,241L223,87Z" fill="#dddaeb" stroke="#dddaeb" stroke-width="1.51"/><path d="M203,504L114,618L249,570Z" fill="#aac2dd" stroke="#aac2dd" stroke-width="1.51"/><path d="M114,618L112,739L184,756Z" fill="#9cbad9" stroke="#9cbad9" stroke-width="1.51"/><path d="M187,1020L119,1100L195,1143Z" fill="#859bbe" stroke="#859bbe" stroke-width="1.51"/><path d="M48,979L187,1020L208,860Z" fill="#8ca4cc" stroke="#8ca4cc" stroke-width="1.51"/><path d="M199,238L128,241L213,357Z" fill="#cdd2e6" stroke="#cdd2e6" stroke-width="1.51"/><path d="M195,1143L62,1241L238,1208Z" fill="#7e90ae" stroke="#7e90ae" stroke-width="1.51"/><path d="M121,490L114,618L203,504Z" fill="#afc5df" stroke="#afc5df" stroke-width="1.51"/><path d="M107,823L48,979L208,860Z" fill="#90aad1" stroke="#90aad1" stroke-width="1.51"/><path d="M184,756L107,823L208,860Z" fill="#92afd4" stroke="#92afd4" stroke-width="1.51"/><path d="M44,377L121,490L213,357Z" fill="#c0cde4" stroke="#c0cde4" stroke-width="1.51"/><path d="M128,241L44,377L213,357Z" fill="#c9d1e7" stroke="#c9d1e7" stroke-width="1.51"/><path d="M119,1100L62,1241L195,1143Z" fill="#8395b5" stroke="#8395b5" stroke-width="1.51"/><path d="M89,-174L171,-63L198,-104Z" fill="#ece8f3" stroke="#ece8f3" stroke-width="1.51"/><path d="M42,-37L121,66L171,-63Z" fill="#e9e5f1" stroke="#e9e5f1" stroke-width="1.51"/><path d="M112,739L107,823L184,756Z" fill="#96b4d6" stroke="#96b4d6" stroke-width="1.51"/><path d="M48,979L119,1100L187,1020Z" fill="#89a0c5" stroke="#89a0c5" stroke-width="1.51"/><path d="M89,-174L42,-37L171,-63Z" fill="#eee9f3" stroke="#eee9f3" stroke-width="1.51"/><path d="M-2,-115L42,-37L89,-174Z" fill="#f1ebf5" stroke="#f1ebf5" stroke-width="1.51"/><path d="M-14,727L112,739L114,618Z" fill="#a0bddb" stroke="#a0bddb" stroke-width="1.51"/><path d="M-2,1200L62,1241L119,1100Z" fill="#8496b2" stroke="#8496b2" stroke-width="1.51"/><path d="M-29,1137L-2,1200L119,1100Z" fill="#879ab8" stroke="#879ab8" stroke-width="1.51"/><path d="M-52,521L114,618L121,490Z" fill="#b3c8e1" stroke="#b3c8e1" stroke-width="1.51"/><path d="M-54,250L44,377L128,241Z" fill="#d1d6e9" stroke="#d1d6e9" stroke-width="1.51"/><path d="M121,66L-43,120L128,241Z" fill="#dfddec" stroke="#dfddec" stroke-width="1.51"/><path d="M-43,120L-54,250L128,241Z" fill="#dcdbec" stroke="#dcdbec" stroke-width="1.51"/><path d="M-161,-162L-2,-115L89,-174Z" fill="#f5eff7" stroke="#f5eff7" stroke-width="1.51"/><path d="M-27,973L48,979L107,823Z" fill="#91a9d1" stroke="#91a9d1" stroke-width="1.51"/><path d="M-14,727L107,823L112,739Z" fill="#9ab7d8" stroke="#9ab7d8" stroke-width="1.51"/><path d="M-52,521L-60,615L114,618Z" fill="#afc6e0" stroke="#afc6e0" stroke-width="1.51"/><path d="M48,979L-29,1137L119,1100Z" fill="#8ba0c2" stroke="#8ba0c2" stroke-width="1.51"/><path d="M42,-37L-43,120L121,66Z" fill="#e7e3f0" stroke="#e7e3f0" stroke-width="1.51"/><path d="M44,377L-52,521L121,490Z" fill="#bdcde4" stroke="#bdcde4" stroke-width="1.51"/><path d="M-72,810L-27,973L107,823Z" fill="#95b0d4" stroke="#95b0d4" stroke-width="1.51"/><path d="M-54,250L-8,372L44,377Z" fill="#ced5e8" stroke="#ced5e8" stroke-width="1.51"/><path d="M-60,615L-14,727L114,618Z" fill="#a7c1dd" stroke="#a7c1dd" stroke-width="1.51"/><path d="M-14,727L-72,810L107,823Z" fill="#9ab7d8" stroke="#9ab7d8" stroke-width="1.51"/><path d="M-77,14L-43,120L42,-37Z" fill="#ebe6f1" stroke="#ebe6f1" stroke-width="1.51"/><path d="M-8,372L-52,521L44,377Z" fill="#c3d0e5" stroke="#c3d0e5" stroke-width="1.51"/><path d="M-27,973L-29,1137L48,979Z" fill="#8ea4c7" stroke="#8ea4c7" stroke-width="1.51"/><path d="M-2,1200L-127,1255L62,1241Z" fill="#8392ac" stroke="#8392ac" stroke-width="1.51"/><path d="M-2,-115L-77,14L42,-37Z" fill="#f0eaf4" stroke="#f0eaf4" stroke-width="1.51"/><path d="M-72,810L-178,878L-27,973Z" fill="#97b0d5" stroke="#97b0d5" stroke-width="1.51"/><path d="M-130,1020L-29,1137L-27,973Z" fill="#8fa4c7" stroke="#8fa4c7" stroke-width="1.51"/><path d="M-60,615L-123,711L-14,727Z" fill="#a5c1dc" stroke="#a5c1dc" stroke-width="1.51"/><path d="M-54,250L-129,323L-8,372Z" fill="#d2d7e9" stroke="#d2d7e9" stroke-width="1.51"/><path d="M-140,468L-52,521L-8,372Z" fill="#c2d0e6" stroke="#c2d0e6" stroke-width="1.51"/><path d="M-29,1137L-127,1255L-2,1200Z" fill="#8796b2" stroke="#8796b2" stroke-width="1.51"/><path d="M-175,-26L-77,14L-2,-115Z" fill="#f2ecf5" stroke="#f2ecf5" stroke-width="1.51"/><path d="M-161,-162L-175,-26L-2,-115Z" fill="#f6eff7" stroke="#f6eff7" stroke-width="1.51"/><path d="M-129,323L-140,468L-8,372Z" fill="#cad4e8" stroke="#cad4e8" stroke-width="1.51"/><path d="M-123,711L-72,810L-14,727Z" fill="#9fbcda" stroke="#9fbcda" stroke-width="1.51"/><path d="M-130,634L-123,711L-60,615Z" fill="#aac4df" stroke="#aac4df" stroke-width="1.51"/><path d="M-199,203L-54,250L-43,120Z" fill="#e0dfed" stroke="#e0dfed" stroke-width="1.51"/><path d="M-77,14L-149,75L-43,120Z" fill="#eae6f1" stroke="#eae6f1" stroke-width="1.51"/><path d="M-199,1093L-127,1255L-29,1137Z" fill="#8b9cb9" stroke="#8b9cb9" stroke-width="1.51"/><path d="M-130,1020L-199,1093L-29,1137Z" fill="#90a3c4" stroke="#90a3c4" stroke-width="1.51"/><path d="M-178,878L-130,1020L-27,973Z" fill="#95abcf" stroke="#95abcf" stroke-width="1.51"/><path d="M-130,634L-60,615L-52,521Z" fill="#b2c8e1" stroke="#b2c8e1" stroke-width="1.51"/><path d="M-149,75L-199,203L-43,120Z" fill="#e7e3f0" stroke="#e7e3f0" stroke-width="1.51"/><path d="M-140,468L-130,634L-52,521Z" fill="#b8cce3" stroke="#b8cce3" stroke-width="1.51"/><path d="M-199,203L-129,323L-54,250Z" fill="#dadced" stroke="#dadced" stroke-width="1.51"/><path d="M-123,711L-178,878L-72,810Z" fill="#9eb9d9" stroke="#9eb9d9" stroke-width="1.51"/><path d="M-175,-26L-149,75L-77,14Z" fill="#efeaf3" stroke="#efeaf3" stroke-width="1.51"/><path d="M-199,203L-140,468L-129,323Z" fill="#d3d9ea" stroke="#d3d9ea" stroke-width="1.51"/><path d="M-130,634L-178,878L-123,711Z" fill="#a2bfdc" stroke="#a2bfdc" stroke-width="1.51"/><path d="M-178,878L-199,1093L-130,1020Z" fill="#95aacd" stroke="#95aacd" stroke-width="1.51"/><path d="M-140,468L-178,878L-130,634Z" fill="#abc5df" stroke="#abc5df" stroke-width="1.51"/><path d="M-199,203L-178,878L-140,468Z" fill="#bdcfe5" stroke="#bdcfe5" stroke-width="1.51"/><path d="M-175,-26L-199,203L-149,75Z" fill="#ece7f2" stroke="#ece7f2" stroke-width="1.51"/><path d="M-199,203L-199,1093L-178,878Z" fill="#a5c1dd" stroke="#a5c1dd" stroke-width="1.51"/></svg>