<svg xmlns="http://www.w3.org/2000/svg" width="1920" height="1080"><path d="M287,1329L-70,1344L595,1338Z" fill="#8e7b68" stroke="#8e7b68" stroke-width="1.51"/><path d="M712,1311L595,1338L1014,1296Z" fill="#99ab84" stroke="#99ab84" stroke-width="1.51"/><path d="M1173,1294L1014,1296L1342,1312Z" fill="#90b476" stroke="#90b476" stroke-width="1.51"/><path d="M1014,1296L595,1338L1342,1312Z" fill="#95b384" stroke="#95b384" stroke-width="1.51"/><path d="M1342,1312L595,1338L1449,1317Z" fill="#8eb179" stroke="#8eb179" stroke-width="1.51"/><path d="M423,-262L1145,-209L1540,-259Z" fill="#cd8ca1" stroke="#cd8ca1" stroke-width="1.51"/><path d="M423,-262L1540,-259L1797,-265Z" fill="#bf898b" stroke="#bf898b" stroke-width="1.51"/><path d="M1588,1280L1449,1317L1925,1302Z" fill="#5d9a32" stroke="#5d9a32" stroke-width="1.51"/><path d="M1939,863L1951,1022L2039,835Z" fill="#78af4b" stroke="#78af4b" stroke-width="1.51"/><path d="M2052,91L1974,210L2070,266Z" fill="#9a9879" stroke="#9a9879" stroke-width="1.51"/><path d="M2039,835L1951,1022L2085,1037Z" fill="#6aa43e" stroke="#6aa43e" stroke-width="1.51"/><path d="M2081,726L2039,835L2085,1037Z" fill="#77aa51" stroke="#77aa51" stroke-width="1.51"/><path d="M1797,-265L1959,-191L2106,-246Z" fill="#806046" stroke="#806046" stroke-width="1.51"/><path d="M1959,-191L2048,-46L2106,-246Z" fill="#855e4c" stroke="#855e4c" stroke-width="1.51"/><path d="M2052,91L2070,266L2106,-246Z" fill="#907a66" stroke="#907a66" stroke-width="1.51"/><path d="M2048,-46L2052,91L2106,-246Z" fill="#8c6857" stroke="#8c6857" stroke-width="1.51"/><path d="M1449,1317L595,1338L2107,1342Z" fill="#79a858" stroke="#79a858" stroke-width="1.51"/><path d="M1925,1302L1449,1317L2107,1342Z" fill="#488924" stroke="#488924" stroke-width="1.51"/><path d="M2043,1124L1967,1173L2107,1342Z" fill="#42841f" stroke="#42841f" stroke-width="1.51"/><path d="M1967,1173L1925,1302L2107,1342Z" fill="#3e7f1e" stroke="#3e7f1e" stroke-width="1.51"/><path d="M2085,1037L2043,1124L2107,1342Z" fill="#458621" stroke="#458621" stroke-width="1.51"/><path d="M1966,544L2081,726L2114,558Z" fill="#95b680" stroke="#95b680" stroke-width="1.51"/><path d="M2040,418L1966,544L2114,558Z" fill="#9bb687" stroke="#9bb687" stroke-width="1.51"/><path d="M2070,266L2040,418L2114,558Z" fill="#9aac84" stroke="#9aac84" stroke-width="1.51"/><path d="M2106,-246L2070,266L2114,558Z" fill="#949277" stroke="#949277" stroke-width="1.51"/><path d="M2085,1037L2107,1342L2114,558Z" fill="#619a39" stroke="#619a39" stroke-width="1.51"/><path d="M2081,726L2085,1037L2114,558Z" fill="#82ad65" stroke="#82ad65" stroke-width="1.51"/><path d="M1969,387L2040,418L2070,266Z" fill="#9fad84" stroke="#9fad84" stroke-width="1.51"/><path d="M1966,544L1934,735L2081,726Z" fill="#97bc7b" stroke="#97bc7b" stroke-width="1.51"/><path d="M1934,735L2039,835L2081,726Z" fill="#8ab569" stroke="#8ab569" stroke-width="1.51"/><path d="M1951,1022L2043,1124L2085,1037Z" fill="#59992d" stroke="#59992d" stroke-width="1.51"/><path d="M2048,-46L1903,-43L2052,91Z" fill="#957a63" stroke="#957a63" stroke-width="1.51"/><path d="M1903,-43L1904,94L2052,91Z" fill="#9b876b" stroke="#9b876b" stroke-width="1.51"/><path d="M1974,210L1969,387L2070,266Z" fill="#9fa781" stroke="#9fa781" stroke-width="1.51"/><path d="M1969,387L1966,544L2040,418Z" fill="#a1b788" stroke="#a1b788" stroke-width="1.51"/><path d="M1959,-191L1903,-43L2048,-46Z" fill="#936c57" stroke="#936c57" stroke-width="1.51"/><path d="M1904,94L1974,210L2052,91Z" fill="#9d9374" stroke="#9d9374" stroke-width="1.51"/><path d="M1934,735L1939,863L2039,835Z" fill="#88b760" stroke="#88b760" stroke-width="1.51"/><path d="M1951,1022L1967,1173L2043,1124Z" fill="#569729" stroke="#569729" stroke-width="1.51"/><path d="M423,-262L770,-177L1013,-184Z" fill="#d683a8" stroke="#d683a8" stroke-width="1.51"/><path d="M423,-262L1013,-184L1145,-209Z" fill="#d489a9" stroke="#d489a9" stroke-width="1.51"/><path d="M1145,-209L1367,-210L1540,-259Z" fill="#be8982" stroke="#be8982" stroke-width="1.51"/><path d="M1753,1235L1588,1280L1925,1302Z" fill="#55962a" stroke="#55962a" stroke-width="1.51"/><path d="M1939,863L1790,992L1951,1022Z" fill="#77b244" stroke="#77b244" stroke-width="1.51"/><path d="M1836,-78L1903,-43L1959,-191Z" fill="#997159" stroke="#997159" stroke-width="1.51"/><path d="M1772,719L1934,735L1966,544Z" fill="#a0c680" stroke="#a0c680" stroke-width="1.51"/><path d="M1792,511L1772,719L1966,544Z" fill="#aaca8c" stroke="#aaca8c" stroke-width="1.51"/><path d="M1951,1022L1838,1138L1967,1173Z" fill="#5b9d2a" stroke="#5b9d2a" stroke-width="1.51"/><path d="M1838,1138L1925,1302L1967,1173Z" fill="#4e9221" stroke="#4e9221" stroke-width="1.51"/><path d="M1793,276L1777,370L1969,387Z" fill="#b0bd8c" stroke="#b0bd8c" stroke-width="1.51"/><path d="M1792,511L1966,544L1969,387Z" fill="#a7c28c" stroke="#a7c28c" stroke-width="1.51"/><path d="M1777,370L1792,511L1969,387Z" fill="#afc48f" stroke="#afc48f" stroke-width="1.51"/><path d="M1793,276L1969,387L1974,210Z" fill="#a8b185" stroke="#a8b185" stroke-width="1.51"/><path d="M1904,94L1793,276L1974,210Z" fill="#a7a680" stroke="#a7a680" stroke-width="1.51"/><path d="M1540,-259L1630,-235L1797,-265Z" fill="#9a7656" stroke="#9a7656" stroke-width="1.51"/><path d="M1934,735L1787,793L1939,863Z" fill="#91c167" stroke="#91c167" stroke-width="1.51"/><path d="M1797,-265L1836,-78L1959,-191Z" fill="#926c52" stroke="#926c52" stroke-width="1.51"/><path d="M1781,98L1793,276L1904,94Z" fill="#aca57f" stroke="#aca57f" stroke-width="1.51"/><path d="M1790,992L1838,1138L1951,1022Z" fill="#6aaa34" stroke="#6aaa34" stroke-width="1.51"/><path d="M1838,1138L1753,1235L1925,1302Z" fill="#539526" stroke="#539526" stroke-width="1.51"/><path d="M1787,793L1790,992L1939,863Z" fill="#89bf57" stroke="#89bf57" stroke-width="1.51"/><path d="M1772,719L1787,793L1934,735Z" fill="#9ec875" stroke="#9ec875" stroke-width="1.51"/><path d="M1903,-43L1781,98L1904,94Z" fill="#a49070" stroke="#a49070" stroke-width="1.51"/><path d="M1836,-78L1781,98L1903,-43Z" fill="#a4876a" stroke="#a4876a" stroke-width="1.51"/><path d="M1648,708L1772,719L1792,511Z" fill="#b2d48c" stroke="#b2d48c" stroke-width="1.51"/><path d="M1781,98L1670,234L1793,276Z" fill="#b6b48b" stroke="#b6b48b" stroke-width="1.51"/><path d="M1591,-23L1781,98L1836,-78Z" fill="#af9172" stroke="#af9172" stroke-width="1.51"/><path d="M1797,-265L1630,-235L1836,-78Z" fill="#9a7356" stroke="#9a7356" stroke-width="1.51"/><path d="M1630,-235L1591,-23L1836,-78Z" fill="#ae8065" stroke="#ae8065" stroke-width="1.51"/><path d="M1790,992L1649,1152L1838,1138Z" fill="#6eae37" stroke="#6eae37" stroke-width="1.51"/><path d="M1649,1152L1753,1235L1838,1138Z" fill="#63a42f" stroke="#63a42f" stroke-width="1.51"/><path d="M1668,493L1648,708L1792,511Z" fill="#bad898" stroke="#bad898" stroke-width="1.51"/><path d="M1591,-23L1640,128L1781,98Z" fill="#b8a380" stroke="#b8a380" stroke-width="1.51"/><path d="M1640,128L1670,234L1781,98Z" fill="#b9b088" stroke="#b9b088" stroke-width="1.51"/><path d="M1612,804L1612,982L1787,793Z" fill="#9ecf68" stroke="#9ecf68" stroke-width="1.51"/><path d="M1612,982L1649,1152L1790,992Z" fill="#7dba41" stroke="#7dba41" stroke-width="1.51"/><path d="M1787,793L1612,982L1790,992Z" fill="#8ec456" stroke="#8ec456" stroke-width="1.51"/><path d="M1777,370L1668,493L1792,511Z" fill="#b9cf96" stroke="#b9cf96" stroke-width="1.51"/><path d="M1670,234L1777,370L1793,276Z" fill="#b9bf90" stroke="#b9bf90" stroke-width="1.51"/><path d="M1772,719L1648,708L1787,793Z" fill="#a9d17e" stroke="#a9d17e" stroke-width="1.51"/><path d="M1648,708L1612,804L1787,793Z" fill="#abd47c" stroke="#abd47c" stroke-width="1.51"/><path d="M1670,234L1606,381L1777,370Z" fill="#c0c996" stroke="#c0c996" stroke-width="1.51"/><path d="M1606,381L1668,493L1777,370Z" fill="#c0d19a" stroke="#c0d19a" stroke-width="1.51"/><path d="M1649,1152L1588,1280L1753,1235Z" fill="#66a533" stroke="#66a533" stroke-width="1.51"/><path d="M770,-177L878,-171L1013,-184Z" fill="#db8eaf" stroke="#db8eaf" stroke-width="1.51"/><path d="M1538,-76L1591,-23L1630,-235Z" fill="#b98772" stroke="#b98772" stroke-width="1.51"/><path d="M1591,-23L1520,55L1640,128Z" fill="#c1a789" stroke="#c1a789" stroke-width="1.51"/><path d="M1612,982L1464,1119L1649,1152Z" fill="#84bd4c" stroke="#84bd4c" stroke-width="1.51"/><path d="M1606,381L1508,407L1668,493Z" fill="#cad9a6" stroke="#cad9a6" stroke-width="1.51"/><path d="M1479,676L1648,708L1668,493Z" fill="#c2e09e" stroke="#c2e09e" stroke-width="1.51"/><path d="M1456,548L1479,676L1668,493Z" fill="#cde5ad" stroke="#cde5ad" stroke-width="1.51"/><path d="M1640,128L1462,230L1670,234Z" fill="#c7c09b" stroke="#c7c09b" stroke-width="1.51"/><path d="M1462,230L1606,381L1670,234Z" fill="#cacba2" stroke="#cacba2" stroke-width="1.51"/><path d="M1508,407L1456,548L1668,493Z" fill="#cfe0af" stroke="#cfe0af" stroke-width="1.51"/><path d="M1530,789L1462,976L1612,982Z" fill="#a5d46f" stroke="#a5d46f" stroke-width="1.51"/><path d="M1530,789L1612,982L1612,804Z" fill="#a9d674" stroke="#a9d674" stroke-width="1.51"/><path d="M1540,-259L1538,-76L1630,-235Z" fill="#ae8169" stroke="#ae8169" stroke-width="1.51"/><path d="M1530,789L1612,804L1648,708Z" fill="#b5dc87" stroke="#b5dc87" stroke-width="1.51"/><path d="M1464,1119L1588,1280L1649,1152Z" fill="#76b144" stroke="#76b144" stroke-width="1.51"/><path d="M1479,676L1530,789L1648,708Z" fill="#c0e297" stroke="#c0e297" stroke-width="1.51"/><path d="M1520,55L1462,230L1640,128Z" fill="#c9b99a" stroke="#c9b99a" stroke-width="1.51"/><path d="M423,-262L548,-213L770,-177Z" fill="#d076a1" stroke="#d076a1" stroke-width="1.51"/><path d="M1462,230L1508,407L1606,381Z" fill="#d2d7ad" stroke="#d2d7ad" stroke-width="1.51"/><path d="M1462,976L1464,1119L1612,982Z" fill="#95ca5c" stroke="#95ca5c" stroke-width="1.51"/><path d="M-148,-251L145,-229L423,-262Z" fill="#b7367a" stroke="#b7367a" stroke-width="1.51"/><path d="M1464,1119L1449,1317L1588,1280Z" fill="#77af4a" stroke="#77af4a" stroke-width="1.51"/><path d="M1538,-76L1520,55L1591,-23Z" fill="#c29c84" stroke="#c29c84" stroke-width="1.51"/><path d="M1326,143L1462,230L1520,55Z" fill="#d6c1a9" stroke="#d6c1a9" stroke-width="1.51"/><path d="M1300,872L1462,976L1530,789Z" fill="#b8e086" stroke="#b8e086" stroke-width="1.51"/><path d="M1370,-40L1520,55L1538,-76Z" fill="#caa08d" stroke="#caa08d" stroke-width="1.51"/><path d="M1367,-210L1370,-40L1538,-76Z" fill="#ca9287" stroke="#ca9287" stroke-width="1.51"/><path d="M1367,-210L1538,-76L1540,-259Z" fill="#b98776" stroke="#b98776" stroke-width="1.51"/><path d="M1330,287L1367,419L1462,230Z" fill="#e0dcbf" stroke="#e0dcbf" stroke-width="1.51"/><path d="M1462,230L1367,419L1508,407Z" fill="#dbdeb8" stroke="#dbdeb8" stroke-width="1.51"/><path d="M1376,709L1300,872L1530,789Z" fill="#c8e89e" stroke="#c8e89e" stroke-width="1.51"/><path d="M1479,676L1376,709L1530,789Z" fill="#cae9a4" stroke="#cae9a4" stroke-width="1.51"/><path d="M1367,419L1456,548L1508,407Z" fill="#dae6bc" stroke="#dae6bc" stroke-width="1.51"/><path d="M1370,-40L1326,143L1520,55Z" fill="#d4b2a2" stroke="#d4b2a2" stroke-width="1.51"/><path d="M1342,1312L1449,1317L1464,1119Z" fill="#7fb356" stroke="#7fb356" stroke-width="1.51"/><path d="M1329,1118L1342,1312L1464,1119Z" fill="#8cbe60" stroke="#8cbe60" stroke-width="1.51"/><path d="M1462,976L1330,1028L1464,1119Z" fill="#9dce67" stroke="#9dce67" stroke-width="1.51"/><path d="M1456,548L1353,568L1479,676Z" fill="#d6ecb9" stroke="#d6ecb9" stroke-width="1.51"/><path d="M1353,568L1376,709L1479,676Z" fill="#d6edb7" stroke="#d6edb7" stroke-width="1.51"/><path d="M1367,419L1353,568L1456,548Z" fill="#deecc5" stroke="#deecc5" stroke-width="1.51"/><path d="M1300,872L1330,1028L1462,976Z" fill="#b1da80" stroke="#b1da80" stroke-width="1.51"/><path d="M1330,1028L1329,1118L1464,1119Z" fill="#9bca69" stroke="#9bca69" stroke-width="1.51"/><path d="M1326,143L1330,287L1462,230Z" fill="#ded1bc" stroke="#ded1bc" stroke-width="1.51"/><path d="M1329,1118L1168,1164L1342,1312Z" fill="#94bf6d" stroke="#94bf6d" stroke-width="1.51"/><path d="M1168,1164L1173,1294L1342,1312Z" fill="#91ba72" stroke="#91ba72" stroke-width="1.51"/><path d="M1215,382L1171,574L1353,568Z" fill="#ebf2db" stroke="#ebf2db" stroke-width="1.51"/><path d="M1215,382L1353,568L1367,419Z" fill="#e6ecd1" stroke="#e6ecd1" stroke-width="1.51"/><path d="M1330,287L1215,382L1367,419Z" fill="#e9e5cf" stroke="#e9e5cf" stroke-width="1.51"/><path d="M1145,-209L1154,-64L1367,-210Z" fill="#d4929d" stroke="#d4929d" stroke-width="1.51"/><path d="M1210,70L1326,143L1370,-40Z" fill="#deb7b2" stroke="#deb7b2" stroke-width="1.51"/><path d="M1367,-210L1154,-64L1370,-40Z" fill="#d6979a" stroke="#d6979a" stroke-width="1.51"/><path d="M1353,568L1180,639L1376,709Z" fill="#e0f1c8" stroke="#e0f1c8" stroke-width="1.51"/><path d="M1180,639L1300,872L1376,709Z" fill="#daf0bb" stroke="#daf0bb" stroke-width="1.51"/><path d="M1154,-64L1210,70L1370,-40Z" fill="#dfabb0" stroke="#dfabb0" stroke-width="1.51"/><path d="M1180,639L1204,884L1300,872Z" fill="#d7efb6" stroke="#d7efb6" stroke-width="1.51"/><path d="M1300,872L1236,1030L1330,1028Z" fill="#b5dc88" stroke="#b5dc88" stroke-width="1.51"/><path d="M1326,143L1178,191L1330,287Z" fill="#e6d3c9" stroke="#e6d3c9" stroke-width="1.51"/><path d="M1171,574L1180,639L1353,568Z" fill="#e9f4d7" stroke="#e9f4d7" stroke-width="1.51"/><path d="M1204,884L1236,1030L1300,872Z" fill="#c1e398" stroke="#c1e398" stroke-width="1.51"/><path d="M1236,1030L1329,1118L1330,1028Z" fill="#a7d178" stroke="#a7d178" stroke-width="1.51"/><path d="M1178,191L1215,382L1330,287Z" fill="#ecdfd4" stroke="#ecdfd4" stroke-width="1.51"/><path d="M1236,1030L1168,1164L1329,1118Z" fill="#a5cd7c" stroke="#a5cd7c" stroke-width="1.51"/><path d="M1210,70L1178,191L1326,143Z" fill="#e7c7c6" stroke="#e7c7c6" stroke-width="1.51"/><path d="M1180,639L1069,813L1204,884Z" fill="#def1c3" stroke="#def1c3" stroke-width="1.51"/><path d="M897,1270L712,1311L1014,1296Z" fill="#9ab386" stroke="#9ab386" stroke-width="1.51"/><path d="M1053,704L1069,813L1180,639Z" fill="#e8f5d5" stroke="#e8f5d5" stroke-width="1.51"/><path d="M1001,495L1171,574L1215,382Z" fill="#f2f3e8" stroke="#f2f3e8" stroke-width="1.51"/><path d="M1033,373L1001,495L1215,382Z" fill="#f5eeea" stroke="#f5eeea" stroke-width="1.51"/><path d="M1178,191L1033,373L1215,382Z" fill="#f2e4e0" stroke="#f2e4e0" stroke-width="1.51"/><path d="M990,1107L1168,1164L1236,1030Z" fill="#add088" stroke="#add088" stroke-width="1.51"/><path d="M1014,945L990,1107L1236,1030Z" fill="#bbda94" stroke="#bbda94" stroke-width="1.51"/><path d="M1204,884L1014,945L1236,1030Z" fill="#c4e29e" stroke="#c4e29e" stroke-width="1.51"/><path d="M995,257L1033,373L1178,191Z" fill="#f4dee4" stroke="#f4dee4" stroke-width="1.51"/><path d="M986,39L1178,191L1210,70Z" fill="#ebc2cc" stroke="#ebc2cc" stroke-width="1.51"/><path d="M1154,-64L986,39L1210,70Z" fill="#e7b2c1" stroke="#e7b2c1" stroke-width="1.51"/><path d="M1047,-70L986,39L1154,-64Z" fill="#e6a8be" stroke="#e6a8be" stroke-width="1.51"/><path d="M1069,813L1014,945L1204,884Z" fill="#d2ebb2" stroke="#d2ebb2" stroke-width="1.51"/><path d="M1145,-209L1047,-70L1154,-64Z" fill="#e098ae" stroke="#e098ae" stroke-width="1.51"/><path d="M1168,1164L1014,1296L1173,1294Z" fill="#98bc7d" stroke="#98bc7d" stroke-width="1.51"/><path d="M986,39L995,257L1178,191Z" fill="#f0cddb" stroke="#f0cddb" stroke-width="1.51"/><path d="M1171,574L1053,704L1180,639Z" fill="#ecf6de" stroke="#ecf6de" stroke-width="1.51"/><path d="M1013,-184L1047,-70L1145,-209Z" fill="#db93ab" stroke="#db93ab" stroke-width="1.51"/><path d="M990,1107L1014,1296L1168,1164Z" fill="#a2c586" stroke="#a2c586" stroke-width="1.51"/><path d="M1001,495L1053,704L1171,574Z" fill="#f1f6e7" stroke="#f1f6e7" stroke-width="1.51"/><path d="M990,1107L897,1270L1014,1296Z" fill="#a1c18b" stroke="#a1c18b" stroke-width="1.51"/><path d="M1001,495L876,556L1053,704Z" fill="#f5f7f0" stroke="#f5f7f0" stroke-width="1.51"/><path d="M876,556L882,729L1053,704Z" fill="#f1f6e8" stroke="#f1f6e8" stroke-width="1.51"/><path d="M915,862L1014,945L1069,813Z" fill="#d7ecbb" stroke="#d7ecbb" stroke-width="1.51"/><path d="M1053,704L882,729L1069,813Z" fill="#e7f4d6" stroke="#e7f4d6" stroke-width="1.51"/><path d="M882,729L915,862L1069,813Z" fill="#e2f0ce" stroke="#e2f0ce" stroke-width="1.51"/><path d="M986,39L892,39L995,257Z" fill="#f1c4db" stroke="#f1c4db" stroke-width="1.51"/><path d="M908,948L990,1107L1014,945Z" fill="#c3dea3" stroke="#c3dea3" stroke-width="1.51"/><path d="M1013,-184L930,-41L1047,-70Z" fill="#e59bb9" stroke="#e59bb9" stroke-width="1.51"/><path d="M930,-41L986,39L1047,-70Z" fill="#e9aac5" stroke="#e9aac5" stroke-width="1.51"/><path d="M878,-171L930,-41L1013,-184Z" fill="#e394b6" stroke="#e394b6" stroke-width="1.51"/><path d="M995,257L840,286L1033,373Z" fill="#f8e3ee" stroke="#f8e3ee" stroke-width="1.51"/><path d="M840,286L876,445L1033,373Z" fill="#fbe9f2" stroke="#fbe9f2" stroke-width="1.51"/><path d="M876,445L1001,495L1033,373Z" fill="#f9f0f4" stroke="#f9f0f4" stroke-width="1.51"/><path d="M892,39L840,286L995,257Z" fill="#f4d1e5" stroke="#f4d1e5" stroke-width="1.51"/><path d="M915,862L908,948L1014,945Z" fill="#d1e6b4" stroke="#d1e6b4" stroke-width="1.51"/><path d="M831,1113L897,1270L990,1107Z" fill="#abc78f" stroke="#abc78f" stroke-width="1.51"/><path d="M908,948L831,1113L990,1107Z" fill="#bcd59a" stroke="#bcd59a" stroke-width="1.51"/><path d="M876,445L876,556L1001,495Z" fill="#f9f2f5" stroke="#f9f2f5" stroke-width="1.51"/><path d="M930,-41L892,39L986,39Z" fill="#edb0cc" stroke="#edb0cc" stroke-width="1.51"/><path d="M688,47L700,263L840,286Z" fill="#f7cae3" stroke="#f7cae3" stroke-width="1.51"/><path d="M876,556L761,704L882,729Z" fill="#f2f1e7" stroke="#f2f1e7" stroke-width="1.51"/><path d="M688,47L840,286L892,39Z" fill="#f3bfda" stroke="#f3bfda" stroke-width="1.51"/><path d="M717,-73L892,39L930,-41Z" fill="#eba4c5" stroke="#eba4c5" stroke-width="1.51"/><path d="M878,-171L717,-73L930,-41Z" fill="#e795ba" stroke="#e795ba" stroke-width="1.51"/><path d="M770,-177L717,-73L878,-171Z" fill="#e28cb3" stroke="#e28cb3" stroke-width="1.51"/><path d="M831,1113L750,1143L897,1270Z" fill="#abc18d" stroke="#abc18d" stroke-width="1.51"/><path d="M710,949L831,1113L908,948Z" fill="#c5d7a1" stroke="#c5d7a1" stroke-width="1.51"/><path d="M725,888L908,948L915,862Z" fill="#d6e3b7" stroke="#d6e3b7" stroke-width="1.51"/><path d="M882,729L725,888L915,862Z" fill="#e1e9c7" stroke="#e1e9c7" stroke-width="1.51"/><path d="M761,704L725,888L882,729Z" fill="#e8ead1" stroke="#e8ead1" stroke-width="1.51"/><path d="M725,888L710,949L908,948Z" fill="#d2deb0" stroke="#d2deb0" stroke-width="1.51"/><path d="M840,286L724,392L876,445Z" fill="#fce5f1" stroke="#fce5f1" stroke-width="1.51"/><path d="M749,495L876,556L876,445Z" fill="#faeef4" stroke="#faeef4" stroke-width="1.51"/><path d="M750,1143L712,1311L897,1270Z" fill="#a2b688" stroke="#a2b688" stroke-width="1.51"/><path d="M717,-73L688,47L892,39Z" fill="#eca6c9" stroke="#eca6c9" stroke-width="1.51"/><path d="M749,495L761,704L876,556Z" fill="#f7efef" stroke="#f7efef" stroke-width="1.51"/><path d="M724,392L749,495L876,445Z" fill="#fce8f2" stroke="#fce8f2" stroke-width="1.51"/><path d="M688,47L634,111L700,263Z" fill="#f3bad9" stroke="#f3bad9" stroke-width="1.51"/><path d="M710,949L750,1143L831,1113Z" fill="#bccc97" stroke="#bccc97" stroke-width="1.51"/><path d="M700,263L724,392L840,286Z" fill="#fbdaeb" stroke="#fbdaeb" stroke-width="1.51"/><path d="M575,1131L712,1311L750,1143Z" fill="#a9b788" stroke="#a9b788" stroke-width="1.51"/><path d="M710,949L575,1131L750,1143Z" fill="#bbc794" stroke="#bbc794" stroke-width="1.51"/><path d="M537,830L725,888L761,704Z" fill="#e4e1c7" stroke="#e4e1c7" stroke-width="1.51"/><path d="M554,665L537,830L761,704Z" fill="#ece0d5" stroke="#ece0d5" stroke-width="1.51"/><path d="M749,495L561,550L761,704Z" fill="#f8e9ed" stroke="#f8e9ed" stroke-width="1.51"/><path d="M561,550L554,665L761,704Z" fill="#f3e3e3" stroke="#f3e3e3" stroke-width="1.51"/><path d="M548,-213L717,-73L770,-177Z" fill="#de83ae" stroke="#de83ae" stroke-width="1.51"/><path d="M385,1299L287,1329L595,1338Z" fill="#948e75" stroke="#948e75" stroke-width="1.51"/><path d="M634,111L624,241L700,263Z" fill="#f6c4e1" stroke="#f6c4e1" stroke-width="1.51"/><path d="M550,979L575,1131L710,949Z" fill="#c2c898" stroke="#c2c898" stroke-width="1.51"/><path d="M724,392L561,550L749,495Z" fill="#fae4ef" stroke="#fae4ef" stroke-width="1.51"/><path d="M624,241L565,359L700,263Z" fill="#f8cde5" stroke="#f8cde5" stroke-width="1.51"/><path d="M575,1131L595,1338L712,1311Z" fill="#a0aa82" stroke="#a0aa82" stroke-width="1.51"/><path d="M530,-24L688,47L717,-73Z" fill="#e999c1" stroke="#e999c1" stroke-width="1.51"/><path d="M700,263L565,359L724,392Z" fill="#fad7ea" stroke="#fad7ea" stroke-width="1.51"/><path d="M565,359L561,550L724,392Z" fill="#fadbec" stroke="#fadbec" stroke-width="1.51"/><path d="M537,830L710,949L725,888Z" fill="#d8dab4" stroke="#d8dab4" stroke-width="1.51"/><path d="M537,830L550,979L710,949Z" fill="#d2d2ac" stroke="#d2d2ac" stroke-width="1.51"/><path d="M548,-213L530,-24L717,-73Z" fill="#e382b2" stroke="#e382b2" stroke-width="1.51"/><path d="M530,-24L634,111L688,47Z" fill="#eca3ca" stroke="#eca3ca" stroke-width="1.51"/><path d="M465,508L561,550L565,359Z" fill="#f7d7e9" stroke="#f7d7e9" stroke-width="1.51"/><path d="M575,1131L385,1299L595,1338Z" fill="#9ea27e" stroke="#9ea27e" stroke-width="1.51"/><path d="M530,-24L465,37L634,111Z" fill="#ea9cc6" stroke="#ea9cc6" stroke-width="1.51"/><path d="M441,269L624,241L634,111Z" fill="#f4bddd" stroke="#f4bddd" stroke-width="1.51"/><path d="M465,37L441,269L634,111Z" fill="#eeacd2" stroke="#eeacd2" stroke-width="1.51"/><path d="M455,1117L385,1299L575,1131Z" fill="#a7a881" stroke="#a7a881" stroke-width="1.51"/><path d="M441,269L565,359L624,241Z" fill="#f6c6e2" stroke="#f6c6e2" stroke-width="1.51"/><path d="M405,-96L530,-24L548,-213Z" fill="#df77ac" stroke="#df77ac" stroke-width="1.51"/><path d="M438,704L537,830L554,665Z" fill="#ead7d0" stroke="#ead7d0" stroke-width="1.51"/><path d="M550,979L455,1117L575,1131Z" fill="#b8ba8e" stroke="#b8ba8e" stroke-width="1.51"/><path d="M537,830L445,964L550,979Z" fill="#d0caa8" stroke="#d0caa8" stroke-width="1.51"/><path d="M465,508L554,665L561,550Z" fill="#f4dbe7" stroke="#f4dbe7" stroke-width="1.51"/><path d="M421,359L465,508L565,359Z" fill="#f7cee5" stroke="#f7cee5" stroke-width="1.51"/><path d="M410,878L445,964L537,830Z" fill="#d4c9ac" stroke="#d4c9ac" stroke-width="1.51"/><path d="M445,964L455,1117L550,979Z" fill="#c0bd93" stroke="#c0bd93" stroke-width="1.51"/><path d="M465,508L438,704L554,665Z" fill="#f1d7df" stroke="#f1d7df" stroke-width="1.51"/><path d="M441,269L421,359L565,359Z" fill="#f6c5e1" stroke="#f6c5e1" stroke-width="1.51"/><path d="M423,-262L405,-96L548,-213Z" fill="#d16c9e" stroke="#d16c9e" stroke-width="1.51"/><path d="M438,704L410,878L537,830Z" fill="#e0cebe" stroke="#e0cebe" stroke-width="1.51"/><path d="M405,-96L465,37L530,-24Z" fill="#e386b7" stroke="#e386b7" stroke-width="1.51"/><path d="M331,-185L405,-96L423,-262Z" fill="#cf629a" stroke="#cf629a" stroke-width="1.51"/><path d="M330,710L410,878L438,704Z" fill="#e3c8c1" stroke="#e3c8c1" stroke-width="1.51"/><path d="M295,533L330,710L438,704Z" fill="#ecc6d0" stroke="#ecc6d0" stroke-width="1.51"/><path d="M278,105L287,219L441,269Z" fill="#eba1cb" stroke="#eba1cb" stroke-width="1.51"/><path d="M445,964L256,1084L455,1117Z" fill="#b8ae86" stroke="#b8ae86" stroke-width="1.51"/><path d="M256,1084L385,1299L455,1117Z" fill="#a79d7a" stroke="#a79d7a" stroke-width="1.51"/><path d="M295,533L438,704L465,508Z" fill="#f1ccdc" stroke="#f1ccdc" stroke-width="1.51"/><path d="M421,359L295,533L465,508Z" fill="#f4c7de" stroke="#f4c7de" stroke-width="1.51"/><path d="M405,-96L295,-36L465,37Z" fill="#df7ab0" stroke="#df7ab0" stroke-width="1.51"/><path d="M295,-36L278,105L465,37Z" fill="#e283b6" stroke="#e283b6" stroke-width="1.51"/><path d="M278,105L441,269L465,37Z" fill="#ea9ec8" stroke="#ea9ec8" stroke-width="1.51"/><path d="M94,1286L-70,1344L287,1329Z" fill="#8a6859" stroke="#8a6859" stroke-width="1.51"/><path d="M243,990L256,1084L445,964Z" fill="#bcaa86" stroke="#bcaa86" stroke-width="1.51"/><path d="M243,404L295,533L421,359Z" fill="#f1bad7" stroke="#f1bad7" stroke-width="1.51"/><path d="M145,-229L331,-185L423,-262Z" fill="#c3538c" stroke="#c3538c" stroke-width="1.51"/><path d="M410,878L243,990L445,964Z" fill="#c9b798" stroke="#c9b798" stroke-width="1.51"/><path d="M287,219L421,359L441,269Z" fill="#f0b3d5" stroke="#f0b3d5" stroke-width="1.51"/><path d="M256,1084L287,1329L385,1299Z" fill="#9b8d70" stroke="#9b8d70" stroke-width="1.51"/><path d="M330,710L236,805L410,878Z" fill="#ddbeb3" stroke="#ddbeb3" stroke-width="1.51"/><path d="M287,219L243,404L421,359Z" fill="#f0b0d2" stroke="#f0b0d2" stroke-width="1.51"/><path d="M236,805L243,990L410,878Z" fill="#cfb49c" stroke="#cfb49c" stroke-width="1.51"/><path d="M331,-185L295,-36L405,-96Z" fill="#d864a0" stroke="#d864a0" stroke-width="1.51"/><path d="M256,1084L94,1286L287,1329Z" fill="#998367" stroke="#998367" stroke-width="1.51"/><path d="M108,531L106,719L295,533Z" fill="#e9aec4" stroke="#e9aec4" stroke-width="1.51"/><path d="M295,533L106,719L330,710Z" fill="#e8b8c6" stroke="#e8b8c6" stroke-width="1.51"/><path d="M106,719L236,805L330,710Z" fill="#e0b3b5" stroke="#e0b3b5" stroke-width="1.51"/><path d="M125,-74L295,-36L331,-185Z" fill="#d55899" stroke="#d55899" stroke-width="1.51"/><path d="M145,-229L125,-74L331,-185Z" fill="#c9478c" stroke="#c9478c" stroke-width="1.51"/><path d="M102,1093L94,1286L256,1084Z" fill="#a28467" stroke="#a28467" stroke-width="1.51"/><path d="M89,208L243,404L287,219Z" fill="#ea9bc5" stroke="#ea9bc5" stroke-width="1.51"/><path d="M278,105L150,70L287,219Z" fill="#e487b9" stroke="#e487b9" stroke-width="1.51"/><path d="M150,70L89,208L287,219Z" fill="#e385b7" stroke="#e385b7" stroke-width="1.51"/><path d="M150,70L278,105L295,-36Z" fill="#de78ae" stroke="#de78ae" stroke-width="1.51"/><path d="M125,-74L150,70L295,-36Z" fill="#d863a0" stroke="#d863a0" stroke-width="1.51"/><path d="M243,404L108,531L295,533Z" fill="#edb1ce" stroke="#edb1ce" stroke-width="1.51"/><path d="M236,805L143,996L243,990Z" fill="#c6a58d" stroke="#c6a58d" stroke-width="1.51"/><path d="M89,208L106,432L243,404Z" fill="#ea9bc2" stroke="#ea9bc2" stroke-width="1.51"/><path d="M106,432L108,531L243,404Z" fill="#eba6c7" stroke="#eba6c7" stroke-width="1.51"/><path d="M81,815L143,996L236,805Z" fill="#cea493" stroke="#cea493" stroke-width="1.51"/><path d="M243,990L143,996L256,1084Z" fill="#b89d7c" stroke="#b89d7c" stroke-width="1.51"/><path d="M143,996L102,1093L256,1084Z" fill="#b19273" stroke="#b19273" stroke-width="1.51"/><path d="M-148,-251L19,-190L145,-229Z" fill="#b41670" stroke="#b41670" stroke-width="1.51"/><path d="M106,719L81,815L236,805Z" fill="#d9a6a5" stroke="#d9a6a5" stroke-width="1.51"/><path d="M25,1114L94,1286L102,1093Z" fill="#9e7a60" stroke="#9e7a60" stroke-width="1.51"/><path d="M89,208L8,240L106,432Z" fill="#e589b6" stroke="#e589b6" stroke-width="1.51"/><path d="M8,240L-51,379L106,432Z" fill="#e58ab5" stroke="#e58ab5" stroke-width="1.51"/><path d="M-1,532L106,719L108,531Z" fill="#e5a0ba" stroke="#e5a0ba" stroke-width="1.51"/><path d="M-61,-76L-45,97L125,-74Z" fill="#ce428c" stroke="#ce428c" stroke-width="1.51"/><path d="M81,815L-48,985L143,996Z" fill="#c1917e" stroke="#c1917e" stroke-width="1.51"/><path d="M19,-190L125,-74L145,-229Z" fill="#c33280" stroke="#c33280" stroke-width="1.51"/><path d="M125,-74L-45,97L150,70Z" fill="#d55a9b" stroke="#d55a9b" stroke-width="1.51"/><path d="M-45,97L89,208L150,70Z" fill="#db6ca6" stroke="#db6ca6" stroke-width="1.51"/><path d="M-1,532L-33,711L106,719Z" fill="#e09aae" stroke="#e09aae" stroke-width="1.51"/><path d="M-48,985L102,1093L143,996Z" fill="#b2896d" stroke="#b2896d" stroke-width="1.51"/><path d="M-48,985L25,1114L102,1093Z" fill="#ab8064" stroke="#ab8064" stroke-width="1.51"/><path d="M106,432L-1,532L108,531Z" fill="#e89dbf" stroke="#e89dbf" stroke-width="1.51"/><path d="M19,-190L-61,-76L125,-74Z" fill="#c72780" stroke="#c72780" stroke-width="1.51"/><path d="M-22,784L-48,985L81,815Z" fill="#c99086" stroke="#c99086" stroke-width="1.51"/><path d="M-22,784L81,815L106,719Z" fill="#d79b9e" stroke="#d79b9e" stroke-width="1.51"/><path d="M-33,711L-22,784L106,719Z" fill="#da97a1" stroke="#da97a1" stroke-width="1.51"/><path d="M-45,97L8,240L89,208Z" fill="#dd70a8" stroke="#dd70a8" stroke-width="1.51"/><path d="M25,1114L-70,1344L94,1286Z" fill="#906754" stroke="#906754" stroke-width="1.51"/><path d="M-51,379L-1,532L106,432Z" fill="#e692b8" stroke="#e692b8" stroke-width="1.51"/><path d="M-117,1320L-70,1344L25,1114Z" fill="#88614e" stroke="#88614e" stroke-width="1.51"/><path d="M-154,843L-48,985L-22,784Z" fill="#bf8b7c" stroke="#bf8b7c" stroke-width="1.51"/><path d="M-51,379L-110,438L-1,532Z" fill="#de8cb1" stroke="#de8cb1" stroke-width="1.51"/><path d="M-152,636L-33,711L-1,532Z" fill="#d993a9" stroke="#d993a9" stroke-width="1.51"/><path d="M-165,1130L-117,1320L25,1114Z" fill="#8e694e" stroke="#8e694e" stroke-width="1.51"/><path d="M-118,1037L-165,1130L25,1114Z" fill="#9b7457" stroke="#9b7457" stroke-width="1.51"/><path d="M-48,985L-118,1037L25,1114Z" fill="#a77b5f" stroke="#a77b5f" stroke-width="1.51"/><path d="M-148,-251L-61,-76L19,-190Z" fill="#b41470" stroke="#b41470" stroke-width="1.51"/><path d="M-137,81L-218,247L-45,97Z" fill="#ca5f95" stroke="#ca5f95" stroke-width="1.51"/><path d="M-61,-76L-137,81L-45,97Z" fill="#c84a8c" stroke="#c84a8c" stroke-width="1.51"/><path d="M-45,97L-218,247L8,240Z" fill="#d36ca0" stroke="#d36ca0" stroke-width="1.51"/><path d="M-218,247L-51,379L8,240Z" fill="#d77aa6" stroke="#d77aa6" stroke-width="1.51"/><path d="M-110,438L-179,540L-1,532Z" fill="#d98ead" stroke="#d98ead" stroke-width="1.51"/><path d="M-179,540L-152,636L-1,532Z" fill="#d690aa" stroke="#d690aa" stroke-width="1.51"/><path d="M-33,711L-154,843L-22,784Z" fill="#cc8f90" stroke="#cc8f90" stroke-width="1.51"/><path d="M-148,-251L-202,-72L-61,-76Z" fill="#b3136f" stroke="#b3136f" stroke-width="1.51"/><path d="M-152,636L-154,843L-33,711Z" fill="#cc8f96" stroke="#cc8f96" stroke-width="1.51"/><path d="M-202,-72L-137,81L-61,-76Z" fill="#be397f" stroke="#be397f" stroke-width="1.51"/><path d="M-218,247L-110,438L-51,379Z" fill="#d680a6" stroke="#d680a6" stroke-width="1.51"/><path d="M-154,843L-118,1037L-48,985Z" fill="#ae8169" stroke="#ae8169" stroke-width="1.51"/><path d="M-218,247L-179,540L-110,438Z" fill="#d183a4" stroke="#d183a4" stroke-width="1.51"/><path d="M-154,843L-165,1130L-118,1037Z" fill="#a27a5d" stroke="#a27a5d" stroke-width="1.51"/><path d="M-202,-72L-218,247L-137,81Z" fill="#bf5188" stroke="#bf5188" stroke-width="1.51"/><path d="M-179,540L-154,843L-152,636Z" fill="#cb8d9a" stroke="#cb8d9a" stroke-width="1.51"/><path d="M-179,540L-165,1130L-154,843Z" fill="#b9877b" stroke="#b9877b" stroke-width="1.51"/><path d="M-179,540L-218,247L-165,1130Z" fill="#ca8c9b" stroke="#ca8c9b" stroke-width="1.51"/></svg>